<svg viewBox="0 0 20 20" xmlns="http://www.w3.org/2000/svg" class="hJ-aM">
<path d="M19.53 10.19a8.8 8.8 0 0 0-.2-2.04H9.96v3.7h5.49c-.11.92-.71 2.3-2.04 3.23l-.02.13 2.96 2.29.2.02c1.89-1.74 2.97-4.3 2.97-7.33" fill="#4285F4"></path>
<path d="M9.97 19.93a9.5 9.5 0 0 0 6.6-2.41l-3.15-2.44a5.9 5.9 0 0 1-3.45 1 6 6 0 0 1-5.67-4.14h-.12l-3.08 2.4-.04.1c1.64 3.26 5 5.5 8.9 5.5" fill="#34A853"></path>
<path d="M4.3 11.94a6.14 6.14 0 0 1-.01-3.95l-.01-.13-3.12-2.42-.1.05a9.97 9.97 0 0 0 0 8.95l3.24-2.5" fill="#FBBC05"></path>
<path d="M9.97 3.85a5.5 5.5 0 0 1 3.85 1.49l2.81-2.75A9.96 9.96 0 0 0 1.06 5.5L4.3 8a6.02 6.02 0 0 1 5.68-4.14" fill="#EB4335"></path>
</svg>