<!-- Generated by IcoMoon.io -->
<svg version="1.1" xmlns="http://www.w3.org/2000/svg" width="32" height="32" viewBox="0 0 32 32">
<title>a-three</title>
<path d="M19.587 17.001c-0.572 0-1.099 0.312-1.372 0.813l-3.23 5.94c-0.253 0.465-0.253 1.025 0 1.491l3.23 5.939c0.273 0.502 0.8 0.815 1.372 0.815h6.301c0.572 0 1.1-0.313 1.372-0.815l3.231-5.939c0.253-0.467 0.253-1.027 0-1.493l-3.231-5.939c-0.272-0.502-0.8-0.814-1.372-0.814l-6.301 0.002zM25.588 28.37c-0.225 0.391-0.642 0.632-1.092 0.632h-3.518c-0.449 0-0.866-0.241-1.092-0.631l-1.868-3.239c-0.226-0.391-0.226-0.87 0-1.261l1.868-3.239c0.226-0.39 0.643-0.63 1.092-0.63h3.518c0.45 0 0.867 0.24 1.092 0.631l1.868 3.239c0.225 0.39 0.225 0.869 0 1.259l-1.868 3.239zM13.786 8.815c-0.273-0.502-0.8-0.815-1.372-0.815h-6.303c-0.572 0-1.099 0.312-1.372 0.815l-3.23 5.94c-0.253 0.465-0.253 1.026 0 1.491l3.23 5.94c0.273 0.502 0.8 0.814 1.372 0.814h6.303c0.572 0 1.099-0.314 1.372-0.814l3.23-5.94c0.253-0.465 0.253-1.026 0-1.491l-3.23-5.94zM25.887 15c0.572 0 1.1-0.313 1.372-0.815l3.231-5.94c0.253-0.466 0.253-1.027 0-1.493l-3.231-5.939c-0.272-0.502-0.799-0.814-1.372-0.814h-6.301c-0.572 0-1.099 0.312-1.372 0.814l-3.23 5.94c-0.253 0.465-0.253 1.026 0 1.491l3.23 5.941c0.273 0.502 0.8 0.815 1.372 0.815h6.301z"></path>
</svg>
