<!-- Generated by IcoMoon.io -->
<svg version="1.1" xmlns="http://www.w3.org/2000/svg" width="32" height="32" viewBox="0 0 32 32">
<title>bankruptcy</title>
<path d="M31.062 6.654h-8.502v-2.563c0-1.206-0.982-2.188-2.188-2.188h-8.745c-1.206 0-2.188 0.982-2.188 2.188v2.563h-8.502c-0.518 0-0.938 0.42-0.938 0.938v9.064c0 0.488 0.374 0.894 0.86 0.934l0.453 0.038v11.53c0 0.518 0.42 0.938 0.938 0.938h27.499c0.518 0 0.938-0.42 0.938-0.938v-11.53l0.453-0.038c0.486-0.040 0.86-0.447 0.86-0.934v-9.064c0-0.518-0.42-0.938-0.938-0.938zM11.315 4.091c0-0.172 0.14-0.313 0.313-0.313h8.745c0.172 0 0.313 0.14 0.313 0.313v2.563h-9.371zM1.875 8.53h28.249v7.263l-8.76 0.727 1.341-1.341c0.366-0.366 0.366-0.96 0-1.326l-2.652-2.652c-0.366-0.366-0.96-0.366-1.326 0l-2.724 2.724-2.727-2.727c-0.366-0.366-0.96-0.366-1.326 0l-2.652 2.652c-0.366 0.366-0.366 0.96 0 1.326l1.345 1.345-8.767-0.728zM14.014 18.567c0.366-0.366 0.366-0.96 0-1.326l-2.727-2.727 1.326-1.326 2.727 2.727c0.366 0.366 0.96 0.366 1.326 0l2.724-2.724 1.326 1.326-2.724 2.724c-0.366 0.366-0.366 0.96 0 1.326l2.696 2.696-1.326 1.326-2.696-2.696c-0.366-0.366-0.96-0.366-1.326 0l-2.674 2.674-1.326-1.326zM28.812 28.221h-25.624v-10.437l8.27 0.687-2.107 2.107c-0.366 0.366-0.366 0.96 0 1.326l2.652 2.652c0.366 0.366 0.96 0.366 1.326 0l2.674-2.674 2.696 2.696c0.366 0.366 0.96 0.366 1.326 0l2.652-2.652c0.366-0.366 0.366-0.96 0-1.326l-2.13-2.13 8.264-0.686z"></path>
</svg>
