<!-- Generated by IcoMoon.io -->
<svg version="1.1" xmlns="http://www.w3.org/2000/svg" width="32" height="32" viewBox="0 0 32 32">
<title>calc</title>
<path d="M26.909 0h-21.818c-0.803 0-1.454 0.652-1.454 1.455v29.090c0 0.803 0.652 1.455 1.454 1.455h21.818c0.803 0 1.454-0.652 1.454-1.455v-29.090c0-0.803-0.651-1.455-1.454-1.455zM25.454 2.909v4.363h-18.909v-4.363h18.909zM6.546 29.091v-18.91h18.909v18.908l-18.909 0.002zM11.746 11.468h-3.019c-0.402 0-0.727 0.326-0.727 0.727v3.022c0 0.402 0.326 0.727 0.727 0.727h3.020c0.402 0 0.727-0.326 0.727-0.727v-3.022c0.001-0.402-0.324-0.727-0.727-0.727zM17.509 11.468h-3.019c-0.402 0-0.727 0.326-0.727 0.727v3.022c0 0.402 0.325 0.727 0.727 0.727h3.019c0.402 0 0.727-0.326 0.727-0.727v-3.022c0.001-0.402-0.325-0.727-0.727-0.727zM23.272 11.468h-3.020c-0.402 0-0.726 0.326-0.726 0.727v3.022c0 0.402 0.325 0.727 0.726 0.727h3.020c0.402 0 0.727-0.326 0.727-0.727v-3.022c0-0.402-0.325-0.727-0.727-0.727zM11.746 17.399h-3.019c-0.402 0-0.727 0.325-0.727 0.726v3.022c0 0.402 0.326 0.726 0.727 0.726h3.020c0.402 0 0.727-0.325 0.727-0.726v-3.022c0.001-0.402-0.324-0.726-0.727-0.726zM17.509 17.399h-3.019c-0.402 0-0.727 0.325-0.727 0.726v3.022c0 0.402 0.325 0.726 0.727 0.726h3.019c0.402 0 0.727-0.325 0.727-0.726v-3.022c0.001-0.402-0.325-0.726-0.727-0.726zM11.746 23.33h-3.019c-0.402 0-0.727 0.325-0.727 0.726v3.022c0 0.403 0.326 0.727 0.727 0.727h3.020c0.402 0 0.727-0.326 0.727-0.727v-3.022c0.001-0.402-0.324-0.726-0.727-0.726zM17.509 23.33h-3.019c-0.402 0-0.727 0.325-0.727 0.726v3.022c0 0.403 0.325 0.727 0.727 0.727h3.019c0.402 0 0.727-0.326 0.727-0.727v-3.022c0.001-0.402-0.325-0.726-0.727-0.726zM23.272 17.399h-3.020c-0.402 0-0.726 0.325-0.726 0.726v8.952c0 0.403 0.325 0.727 0.726 0.727h3.020c0.402 0 0.727-0.326 0.727-0.727v-8.952c0-0.402-0.325-0.726-0.727-0.726z"></path>
</svg>
