<!-- Generated by IcoMoon.io -->
<svg version="1.1" xmlns="http://www.w3.org/2000/svg" width="32" height="32" viewBox="0 0 32 32">
<title>calendar</title>
<path d="M10 15v2c0 0.553-0.447 1-1 1h-2c-0.553 0-1-0.447-1-1v-2c0-0.553 0.447-1 1-1h2c0.553 0 1 0.447 1 1zM9 22h-2c-0.553 0-1 0.447-1 1v2c0 0.553 0.447 1 1 1h2c0.553 0 1-0.447 1-1v-2c0-0.553-0.447-1-1-1zM17 14h-2c-0.553 0-1 0.447-1 1v2c0 0.553 0.447 1 1 1h2c0.553 0 1-0.447 1-1v-2c0-0.553-0.447-1-1-1zM17 22h-2c-0.553 0-1 0.447-1 1v2c0 0.553 0.447 1 1 1h2c0.553 0 1-0.447 1-1v-2c0-0.553-0.447-1-1-1zM25 14h-2c-0.553 0-1 0.447-1 1v2c0 0.553 0.447 1 1 1h2c0.553 0 1-0.447 1-1v-2c0-0.553-0.447-1-1-1zM25 22h-2c-0.553 0-1 0.447-1 1v2c0 0.553 0.447 1 1 1h2c0.553 0 1-0.447 1-1v-2c0-0.553-0.447-1-1-1zM7 6h2c0.553 0 1-0.447 1-1v-4c0-0.553-0.447-1-1-1h-2c-0.553 0-1 0.447-1 1v4c0 0.553 0.447 1 1 1zM32 8v20c0 2.209-1.791 4-4 4h-24c-2.209 0-4-1.791-4-4v-20c0-2.209 1.791-4 4-4h1v1c0 1.102 0.897 2 2 2h2c1.103 0 2-0.898 2-2v-1h10v1c0 1.102 0.898 2 2 2h2c1.102 0 2-0.898 2-2v-1h1c2.209 0 4 1.791 4 4zM30 12c0-1.102-0.896-2-2-2h-24c-1.103 0-2 0.898-2 2v16c0 1.104 0.897 2 2 2h24c1.104 0 2-0.896 2-2v-16zM23 6h2c0.553 0 1-0.447 1-1v-4c0-0.553-0.447-1-1-1h-2c-0.553 0-1 0.447-1 1v4c0 0.553 0.447 1 1 1z"></path>
</svg>
