<!-- Generated by IcoMoon.io -->
<svg version="1.1" xmlns="http://www.w3.org/2000/svg" width="32" height="32" viewBox="0 0 32 32">
<title>changehistory</title>
<path d="M3.517 11.848c0-6.533 5.315-11.848 11.848-11.848 5.408 0 9.97 3.646 11.386 8.607-0.259 0.28-0.44 0.635-0.491 1.038l-0.129 1.034-0.22 1.171-1.211-0.001c0-5.148-4.189-9.336-9.336-9.336-5.148 0-9.337 4.188-9.337 9.336 0 3.492 1.931 6.537 4.777 8.139l-1.826 1.826c-3.28-2.11-5.462-5.783-5.462-9.964zM15.365 4.406c-0.694 0-1.256 0.563-1.256 1.256v6.186c0 0.693 0.562 1.256 1.256 1.256h7.105c0.694 0 1.256-0.562 1.256-1.256s-0.562-1.256-1.256-1.256h-5.849v-4.93c0-0.693-0.563-1.256-1.256-1.256zM28.443 9.942c-0.009-0.328-0.269-0.595-0.596-0.612-0.314-0.018-0.614 0.222-0.655 0.549l-0.134 1.071-0.235 1.251c-0.097 0.434-0.197 0.882-0.383 1.37l-0.281 0.823-0.399 0.878c-0.143 0.36-0.359 0.722-0.588 1.106-0.116 0.194-0.234 0.39-0.344 0.591-0.116 0.156-0.229 0.315-0.341 0.474-0.296 0.417-0.574 0.81-0.948 1.202-0.325 0.406-0.715 0.768-1.126 1.151-0.121 0.113-0.242 0.225-0.361 0.339-0.134 0.102-0.266 0.204-0.396 0.306-0.437 0.341-0.849 0.662-1.34 0.944-0.378 0.264-0.811 0.477-1.228 0.682-0.174 0.086-0.348 0.171-0.516 0.259-0.213 0.077-0.42 0.159-0.625 0.241-0.383 0.153-0.743 0.297-1.126 0.381l-0.83 0.23-0.816 0.139c-0.415 0.089-0.781 0.11-1.135 0.131l-0.665 0.051-0.094-0.002v-2.93c0-0.253-0.153-0.483-0.388-0.58s-0.504-0.043-0.685 0.136l-5.402 5.402c-0.118 0.118-0.184 0.278-0.184 0.444s0.066 0.326 0.184 0.444l5.403 5.403c0.12 0.12 0.281 0.183 0.444 0.183 0.081 0 0.163-0.016 0.241-0.048 0.235-0.098 0.388-0.327 0.388-0.581v-3.062l1.156-0.212c0.535-0.111 1.2-0.249 1.838-0.485l0.743-0.249 1.232-0.521c0.519-0.205 1.011-0.492 1.487-0.77 0.203-0.119 0.409-0.239 0.618-0.354 0.023-0.013 0.044-0.027 0.066-0.042 0.164-0.118 0.33-0.234 0.498-0.351 0.507-0.352 1.031-0.717 1.48-1.139 0.554-0.441 1.038-0.952 1.505-1.447l0.34-0.357c0.014-0.016 0.029-0.032 0.043-0.049l0.307-0.389c0.418-0.526 0.852-1.071 1.179-1.631 0.367-0.524 0.643-1.071 0.91-1.6 0.092-0.183 0.183-0.364 0.277-0.541 0.012-0.025 0.024-0.049 0.034-0.075 0.084-0.224 0.173-0.444 0.261-0.659 0.195-0.477 0.396-0.969 0.51-1.452l0.29-1.030 0.165-0.906c0.131-0.597 0.169-1.144 0.203-1.626l0.061-0.82-0.040-1.664z"></path>
</svg>
