<!-- Generated by IcoMoon.io -->
<svg version="1.1" xmlns="http://www.w3.org/2000/svg" width="32" height="32" viewBox="0 0 32 32">
<title>checklist</title>
<path d="M24.672 1.454c1.824 0 3.308 1.484 3.308 3.308v23.931c0 1.824-1.484 3.308-3.308 3.308h-17.346c-1.824 0-3.307-1.484-3.307-3.308v-23.931c0-1.824 1.483-3.308 3.307-3.308h4.987l0.202-0.91c0.071-0.317 0.351-0.543 0.677-0.543h5.616c0.325 0 0.607 0.226 0.677 0.543l0.203 0.91h4.986zM25.819 28.692v-23.931c0-0.632-0.514-1.146-1.146-1.146h-4.505l0.115 0.517c0.046 0.205-0.004 0.42-0.136 0.584-0.131 0.164-0.33 0.26-0.54 0.26h-7.211c-0.21 0-0.41-0.096-0.541-0.26s-0.182-0.379-0.135-0.584l0.115-0.517h-4.506c-0.631 0-1.145 0.514-1.145 1.146v23.931c0 0.632 0.514 1.146 1.145 1.146h17.346c0.632 0 1.146-0.514 1.146-1.146zM11.612 12.808c-0.534 0-0.968-0.434-0.968-0.969v-3.825c0-0.535 0.434-0.968 0.968-0.968h3.827c0.534 0 0.968 0.434 0.968 0.968v0.825l-0.115-0.079c-0.986-0.674-2.332-0.419-3.004 0.566-0.673 0.986-0.42 2.331 0.566 3.004l0.699 0.477h-2.94zM20.614 7.498c0.434-0.41 1.117-0.392 1.528 0.042 0.41 0.433 0.392 1.118-0.042 1.528l-4.022 3.808c-0.207 0.196-0.474 0.296-0.743 0.296-0.212 0-0.424-0.062-0.609-0.188l-2.262-1.545c-0.494-0.337-0.621-1.009-0.284-1.502 0.338-0.492 1.011-0.62 1.502-0.283l1.543 1.053zM11.612 20.234c-0.534 0-0.968-0.434-0.968-0.968v-3.825c0-0.535 0.434-0.969 0.968-0.969h3.827c0.534 0 0.968 0.434 0.968 0.969v0.825l-0.115-0.079c-0.986-0.675-2.332-0.42-3.004 0.566s-0.42 2.331 0.566 3.004l0.7 0.478h-2.941zM20.614 14.924c0.434-0.41 1.117-0.392 1.528 0.042 0.41 0.434 0.392 1.118-0.042 1.528l-4.022 3.807c-0.207 0.196-0.474 0.296-0.743 0.296-0.212 0-0.424-0.062-0.609-0.188l-2.262-1.545c-0.494-0.337-0.621-1.009-0.284-1.502 0.338-0.494 1.011-0.621 1.502-0.283l1.543 1.053zM15.439 21.897c0.534 0 0.968 0.434 0.968 0.968v3.825c0 0.535-0.434 0.968-0.968 0.968h-3.827c-0.534 0-0.968-0.434-0.968-0.968v-3.825c0-0.535 0.434-0.968 0.968-0.968h3.827z"></path>
</svg>
