<!-- Generated by IcoMoon.io -->
<svg version="1.1" xmlns="http://www.w3.org/2000/svg" width="32" height="32" viewBox="0 0 32 32">
<title>clipboard</title>
<path d="M19.438 32h-11.938c-2.757 0-5-2.243-5-5v-16.938c0-2.757 2.243-5 5-5h11.938c2.757 0 5 2.243 5 5v16.938c0 2.757-2.243 5-5 5zM7.5 7.563c-1.378 0-2.5 1.122-2.5 2.5v16.938c0 1.378 1.122 2.5 2.5 2.5h11.938c1.378 0 2.5-1.122 2.5-2.5v-16.938c0-1.378-1.122-2.5-2.5-2.5zM29.438 23.875v-18.875c0-2.757-2.243-5-5-5h-13.875c-0.69 0-1.25 0.56-1.25 1.25s0.56 1.25 1.25 1.25h13.875c1.378 0 2.5 1.122 2.5 2.5v18.875c0 0.69 0.56 1.25 1.25 1.25s1.25-0.56 1.25-1.25z"></path>
</svg>
