<!-- Generated by IcoMoon.io -->
<svg version="1.1" xmlns="http://www.w3.org/2000/svg" width="32" height="32" viewBox="0 0 32 32">
<title>clipboard-ok</title>
<path d="M27.2 3.2h-6.696c-0.656-1.856-2.416-3.2-4.504-3.2s-3.848 1.344-4.504 3.2h-6.696c-1.768 0-3.2 1.432-3.2 3.2v22.4c0 1.768 1.432 3.2 3.2 3.2h22.4c1.768 0 3.2-1.432 3.2-3.2v-22.4c-0-1.768-1.432-3.2-3.2-3.2zM16 3.2c0.88 0 1.6 0.712 1.6 1.6s-0.72 1.6-1.6 1.6-1.6-0.712-1.6-1.6c0-0.888 0.72-1.6 1.6-1.6zM12.8 25.6l-6.4-6.4 2.264-2.264 4.136 4.136 10.536-10.536 2.264 2.264-12.8 12.8z"></path>
</svg>
