<!-- Generated by IcoMoon.io -->
<svg version="1.1" xmlns="http://www.w3.org/2000/svg" width="32" height="32" viewBox="0 0 32 32">
<title>collapsed2</title>
<path d="M29.89 1.016c1.165 0 2.11 0.945 2.11 2.11v25.747c0 1.166-0.945 2.11-2.11 2.11h-27.78c-1.165 0-2.11-0.944-2.11-2.11v-25.747c0-1.165 0.945-2.11 2.11-2.11h27.78zM26.469 18.466v-4.932c0-0.389-0.314-0.703-0.703-0.703h-5.893c-0.39 0-0.703-0.314-0.703-0.703v-5.892c0-0.389-0.314-0.703-0.703-0.703h-4.933c-0.389 0-0.703 0.314-0.703 0.703v5.892c0 0.389-0.314 0.703-0.703 0.703h-5.893c-0.389 0-0.703 0.314-0.703 0.703v4.932c0 0.39 0.314 0.703 0.703 0.703h5.893c0.389 0 0.703 0.314 0.703 0.703v5.893c0 0.39 0.314 0.703 0.703 0.703h4.933c0.389 0 0.703-0.314 0.703-0.703v-5.893c0-0.39 0.314-0.703 0.703-0.703h5.893c0.39 0 0.703-0.314 0.703-0.703z"></path>
</svg>
