<!-- Generated by IcoMoon.io -->
<svg version="1.1" xmlns="http://www.w3.org/2000/svg" width="32" height="32" viewBox="0 0 32 32">
<title>documents</title>
<path d="M28 4h-2v-2c-0-1.104-0.896-2-2-2h-20c-1.104 0-2 0.896-2 2v24c0 1.104 0.896 2 2 2h2v2c0 1.104 0.896 2 2 2h20c1.104 0 2-0.896 2-2v-24c0-1.104-0.896-2-2-2zM4 26v-24h20v24h-20zM28 30h-20v-2h16c1.104 0 2-0.896 2-2v-20h2v24zM21 6h-10c-0.552 0-1 0.448-1 1s0.448 1 1 1h10c0.55 0 1-0.448 1-1s-0.45-1-1-1zM21 12h-14c-0.552 0-1 0.448-1 1s0.448 1 1 1h14c0.55 0 1-0.448 1-1s-0.45-1-1-1zM21 16h-14c-0.552 0-1 0.448-1 1 0 0.55 0.448 1 1 1h14c0.55 0 1-0.45 1-1 0-0.552-0.45-1-1-1zM21 20h-14c-0.552 0-1 0.45-1 1s0.448 1 1 1h14c0.55 0 1-0.45 1-1s-0.45-1-1-1z"></path>
</svg>
