<!-- Generated by IcoMoon.io -->
<svg version="1.1" xmlns="http://www.w3.org/2000/svg" width="32" height="32" viewBox="0 0 32 32">
<title>done</title>
<path d="M4.167 26.226v-22.73h18.357v19.089l3.498-2.889v-17.949c0-0.965-0.782-1.748-1.748-1.748h-21.855c-0.965 0-1.748 0.783-1.748 1.748v26.226c0 0.965 0.782 1.748 1.748 1.748h15.256l-2.471-3.496h-11.037zM31.056 18.798c-0.322-0.304-0.817-0.318-1.156-0.039l-8.019 6.627-5.344-3.206c-0.355-0.212-0.809-0.149-1.091 0.156-0.28 0.302-0.311 0.761-0.072 1.098l5.791 8.195c0.162 0.229 0.426 0.367 0.706 0.37 0.003 0 0.005 0 0.008 0 0.278 0 0.54-0.131 0.705-0.357l8.579-11.692c0.259-0.355 0.214-0.848-0.106-1.152zM18.591 6.12h-10.491c-0.965 0-1.748 0.783-1.748 1.748s0.782 1.748 1.748 1.748h10.491c0.965 0 1.747-0.783 1.747-1.748s-0.781-1.748-1.746-1.748zM18.591 11.364h-10.491c-0.965 0-1.748 0.783-1.748 1.748s0.782 1.748 1.748 1.748h10.491c0.965 0 1.747-0.782 1.747-1.748 0.002-0.965-0.781-1.748-1.746-1.748zM18.591 16.609h-10.491c-0.965 0-1.748 0.783-1.748 1.748s0.782 1.748 1.748 1.748h10.491c0.965 0 1.747-0.783 1.747-1.748 0.002-0.965-0.781-1.748-1.746-1.748z"></path>
</svg>
