<!-- Generated by IcoMoon.io -->
<svg version="1.1" xmlns="http://www.w3.org/2000/svg" width="32" height="32" viewBox="0 0 32 32">
<title>downloadzip</title>
<path d="M31.111 3.911l-2.489-3.022c-0.356-0.533-1.067-0.889-1.956-0.889h-21.333c-0.889 0-1.6 0.356-2.133 0.889l-2.311 3.022c-0.533 0.711-0.889 1.422-0.889 2.311v22.222c0 1.956 1.6 3.556 3.556 3.556h24.889c1.956 0 3.556-1.6 3.556-3.556v-22.222c0-0.889-0.356-1.6-0.889-2.311zM16 25.778l-9.778-9.778h6.222v-3.556h7.111v3.556h6.222l-9.778 9.778zM3.733 3.556l1.422-1.778h21.333l1.6 1.778h-24.356z"></path>
</svg>
