<!-- Generated by IcoMoon.io -->
<svg version="1.1" xmlns="http://www.w3.org/2000/svg" width="27" height="32" viewBox="0 0 27 32">
<title>dropdownarrow-angle-classic</title>
<path d="M13.556 23.131c-0.303 0-0.588-0.119-0.803-0.331l-9.625-9.509c-0.219-0.216-0.337-0.5-0.341-0.806s0.116-0.594 0.331-0.809l1.216-1.228c0.216-0.219 0.506-0.341 0.813-0.341 0.303 0 0.588 0.119 0.803 0.331l7.419 7.338c0.050 0.047 0.113 0.075 0.181 0.075s0.134-0.028 0.181-0.075l7.394-7.338c0.216-0.213 0.503-0.331 0.806-0.331 0.306 0 0.597 0.119 0.813 0.338l1.212 1.222c0.444 0.447 0.441 1.172-0.006 1.619l-9.588 9.516c-0.216 0.216-0.503 0.331-0.806 0.331 0 0 0 0 0 0z"></path>
</svg>
