<!-- Generated by IcoMoon.io -->
<svg version="1.1" xmlns="http://www.w3.org/2000/svg" width="32" height="32" viewBox="0 0 32 32">
<title>edit</title>
<path d="M22.066 29.89v-8.445l2.11-2.11v11.611c0 0.583-0.472 1.055-1.055 1.055h-21.905c-0.583 0-1.055-0.472-1.055-1.055v-29.89c0-0.583 0.473-1.055 1.055-1.055h21.905c0.583 0 1.055 0.472 1.055 1.055v5.831l-2.11 2.11v-6.886h-19.795v27.779h19.795zM18.955 4.641c0.445 0 0.806 0.361 0.806 0.806s-0.361 0.806-0.806 0.806h-13.573c-0.445 0-0.806-0.361-0.806-0.806s0.361-0.806 0.806-0.806h13.573zM19.762 9.748c0 0.445-0.361 0.806-0.806 0.806h-13.573c-0.445 0-0.806-0.361-0.806-0.806s0.361-0.806 0.806-0.806h13.573c0.445 0 0.806 0.361 0.806 0.806zM17.821 13.242l-1.613 1.613h-10.826c-0.445 0-0.806-0.361-0.806-0.806s0.361-0.806 0.806-0.806h12.439zM13.31 18.587l-0.169 0.567h-7.759c-0.445 0-0.806-0.361-0.806-0.806s0.361-0.806 0.806-0.806h8.383c-0.19 0.33-0.346 0.68-0.455 1.045zM5.382 21.843h6.967c-0.148 0.545-0.094 1.106 0.115 1.613h-7.083c-0.445 0-0.806-0.361-0.806-0.806s0.361-0.806 0.806-0.806zM31.18 6.107c0.422 0.422 0.659 0.995 0.659 1.592s-0.237 1.169-0.659 1.592l-11.93 11.929c-0.325 0.325-0.726 0.564-1.167 0.696l-3.186 0.951c-0.036 0.011-0.073 0.016-0.11 0.016-0.1 0-0.198-0.039-0.271-0.112-0.1-0.1-0.137-0.246-0.096-0.381l0.951-3.186c0.132-0.441 0.371-0.842 0.696-1.167l11.929-11.93c0.422-0.422 0.995-0.659 1.592-0.659s1.17 0.237 1.592 0.66z"></path>
</svg>
