<!-- Generated by IcoMoon.io -->
<svg version="1.1" xmlns="http://www.w3.org/2000/svg" width="32" height="32" viewBox="0 0 32 32">
<title>egg1</title>
<path d="M24.603 7.022c-2.375-4.528-5.43-7.022-8.603-7.022s-6.228 2.494-8.603 7.022c-2.060 3.927-3.289 8.804-3.289 13.046 0 6.579 5.335 11.932 11.892 11.932s11.893-5.353 11.893-11.932c-0-4.242-1.23-9.119-3.289-13.046zM6.531 16.781c0.268-0.013 0.527-0.125 0.718-0.316 0.202-0.202 0.318-0.482 0.318-0.768 0-0.287-0.116-0.566-0.318-0.768-0.096-0.096-0.21-0.172-0.333-0.226 0.172-0.766 0.376-1.531 0.611-2.285l2.766 1.645c0.342 0.203 0.768 0.203 1.11 0l3.098-1.842 3.097 1.842c0.342 0.204 0.768 0.203 1.11 0l3.097-1.842 3.13 1.85c0.199 0.802 0.363 1.609 0.489 2.408-0.095-0.027-0.193-0.041-0.292-0.041-0.287 0-0.566 0.115-0.768 0.317-0.203 0.203-0.318 0.482-0.318 0.769s0.115 0.566 0.318 0.768c0.202 0.202 0.481 0.318 0.768 0.318 0.184 0 0.366-0.049 0.526-0.137 0.041 0.543 0.063 1.076 0.063 1.595 0 0.282-0.013 0.562-0.036 0.838l-3.265-1.77c-0.323-0.175-0.712-0.175-1.035 0l-3.49 1.892-3.489-1.892c-0.323-0.175-0.712-0.175-1.035 0l-3.49 1.892-3.574-2.008c0.038-0.73 0.113-1.479 0.224-2.239zM16 2.172c2.292 0 4.727 2.135 6.68 5.859 0.487 0.928 0.925 1.927 1.309 2.963l-1.629-0.969c-0.342-0.204-0.768-0.204-1.11 0l-3.097 1.842-3.097-1.842c-0.342-0.204-0.768-0.204-1.11-0l-3.098 1.842-2.581-1.535c0.32-0.8 0.672-1.573 1.054-2.301 1.953-3.723 4.387-5.859 6.68-5.859zM16 29.828c-4.837 0-8.859-3.565-9.598-8.216l2.962 1.605c0.323 0.175 0.712 0.175 1.035 0l3.49-1.892 3.489 1.892c0.323 0.175 0.712 0.175 1.035 0l3.49-1.892 3.328 1.804c-1.282 3.887-4.935 6.699-9.23 6.699zM10.979 18.292c0.202-0.203 0.318-0.482 0.318-0.768s-0.116-0.566-0.318-0.769c-0.202-0.202-0.482-0.317-0.768-0.317s-0.566 0.115-0.768 0.317c-0.202 0.202-0.318 0.482-0.318 0.769s0.116 0.566 0.318 0.768c0.202 0.202 0.482 0.318 0.768 0.318s0.566-0.116 0.768-0.318zM13.942 16.784c0.286 0 0.566-0.116 0.768-0.318 0.202-0.203 0.318-0.482 0.318-0.768s-0.116-0.566-0.318-0.768c-0.203-0.203-0.482-0.318-0.768-0.318s-0.566 0.115-0.768 0.318c-0.203 0.202-0.318 0.482-0.318 0.768s0.115 0.566 0.318 0.768c0.202 0.202 0.481 0.318 0.768 0.318zM17.671 18.61c0.287 0 0.566-0.116 0.768-0.318 0.202-0.203 0.318-0.482 0.318-0.768s-0.116-0.566-0.318-0.769c-0.202-0.202-0.482-0.317-0.768-0.317s-0.566 0.115-0.768 0.317c-0.202 0.203-0.318 0.482-0.318 0.769s0.116 0.565 0.318 0.768c0.202 0.202 0.482 0.318 0.768 0.318zM21.401 16.784c0.286 0 0.566-0.116 0.768-0.318 0.202-0.203 0.318-0.482 0.318-0.768s-0.116-0.566-0.318-0.768c-0.202-0.202-0.482-0.318-0.768-0.318s-0.566 0.116-0.768 0.318c-0.202 0.202-0.318 0.482-0.318 0.768s0.116 0.565 0.318 0.768c0.202 0.202 0.482 0.318 0.768 0.318z"></path>
</svg>
