<!-- Generated by IcoMoon.io -->
<svg version="1.1" xmlns="http://www.w3.org/2000/svg" width="32" height="32" viewBox="0 0 32 32">
<title>egg2</title>
<path d="M22.695 22.163l-4.040 2.194c-0.373 0.202-0.824 0.203-1.197 0l-4.039-2.194-4.040 2.194c-0.374 0.203-0.824 0.203-1.198 0l-3.262-1.772c0.892 5.336 5.516 9.415 11.068 9.415 4.942 0 9.148-3.229 10.643-7.7l-3.935-2.137zM27.212 20.706c0-0.601-0.025-1.218-0.073-1.845-0.185 0.102-0.394 0.159-0.608 0.159-0.331 0-0.653-0.134-0.887-0.368-0.235-0.234-0.367-0.557-0.367-0.888s0.133-0.655 0.367-0.889c0.233-0.234 0.555-0.367 0.887-0.367 0.114 0 0.227 0.017 0.337 0.048-0.149-0.948-0.344-1.906-0.582-2.858l-3.471-2.068-3.577 2.131c-0.395 0.235-0.887 0.235-1.282 0l-3.576-2.131-3.577 2.131c-0.395 0.235-0.887 0.235-1.282 0l-3.3-1.966c-0.279 0.892-0.521 1.799-0.725 2.707 0.142 0.062 0.274 0.15 0.385 0.261 0.233 0.234 0.367 0.557 0.367 0.888 0 0.33-0.134 0.654-0.367 0.889-0.22 0.22-0.519 0.35-0.829 0.365-0.136 0.933-0.225 1.853-0.266 2.745l3.991 2.168 4.040-2.194c0.373-0.203 0.824-0.203 1.198 0l4.039 2.194 4.039-2.194c0.374-0.203 0.824-0.203 1.198 0l3.872 2.103c0.030-0.336 0.047-0.676 0.047-1.019zM10.19 18.652c-0.233 0.234-0.557 0.368-0.887 0.368s-0.654-0.134-0.887-0.368c-0.233-0.234-0.367-0.557-0.367-0.888s0.135-0.656 0.367-0.889c0.233-0.234 0.557-0.367 0.887-0.367s0.654 0.133 0.887 0.367c0.233 0.235 0.367 0.558 0.367 0.889s-0.134 0.653-0.367 0.888zM14.497 16.539c-0.233 0.233-0.556 0.368-0.886 0.368-0.331 0-0.653-0.135-0.887-0.368s-0.367-0.558-0.367-0.889c0-0.33 0.133-0.655 0.367-0.888 0.234-0.235 0.557-0.368 0.887-0.368s0.652 0.133 0.886 0.368c0.233 0.234 0.368 0.558 0.368 0.888s-0.135 0.653-0.368 0.889zM18.803 18.652c-0.233 0.234-0.556 0.368-0.887 0.368-0.33 0-0.653-0.134-0.887-0.368-0.233-0.235-0.367-0.557-0.367-0.888s0.134-0.655 0.367-0.889c0.233-0.234 0.557-0.367 0.887-0.367s0.653 0.133 0.887 0.367c0.233 0.235 0.367 0.558 0.367 0.889s-0.134 0.653-0.367 0.888zM23.111 16.539c-0.234 0.233-0.557 0.368-0.887 0.368s-0.654-0.135-0.887-0.368c-0.233-0.235-0.367-0.558-0.367-0.889s0.134-0.655 0.367-0.888c0.233-0.234 0.556-0.368 0.887-0.368s0.653 0.134 0.887 0.368c0.233 0.234 0.367 0.558 0.367 0.888s-0.134 0.653-0.367 0.889zM7.081 9.381l3.082 1.837 3.577-2.131c0.395-0.235 0.887-0.235 1.282 0l3.577 2.131 3.577-2.131c0.395-0.235 0.887-0.235 1.282 0l1.72 1.025c-0.434-1.165-0.929-2.287-1.476-3.333-2.255-4.308-5.067-6.779-7.714-6.779-2.647 0-5.458 2.471-7.713 6.779-0.432 0.825-0.831 1.699-1.193 2.602z"></path>
</svg>
