<!-- Generated by IcoMoon.io -->
<svg version="1.1" xmlns="http://www.w3.org/2000/svg" width="32" height="32" viewBox="0 0 32 32">
<title>eraser</title>
<path d="M29.802 30.747h-28.641c-0.641 0-1.161-0.52-1.161-1.161s0.52-1.161 1.161-1.161h28.641c0.641 0 1.161 0.52 1.161 1.161s-0.52 1.161-1.161 1.161zM15.729 30.747c-0.297 0-0.594-0.113-0.82-0.341-0.454-0.454-0.454-1.189 0-1.642l14.196-14.197c0.37-0.37 0.573-0.853 0.573-1.362 0-0.518-0.203-1.008-0.573-1.378l-7.601-7.602c-0.464-0.474-1.005-0.571-1.378-0.571-0.517 0-0.998 0.2-1.353 0.564l-15.878 15.878c-0.475 0.464-0.573 1.003-0.573 1.378 0 0.517 0.2 0.999 0.564 1.353l5.939 5.939c0.454 0.454 0.454 1.189 0 1.643s-1.189 0.454-1.643 0l-5.929-5.929c-0.803-0.787-1.252-1.856-1.252-3.005 0-1.159 0.449-2.234 1.263-3.030l15.859-15.857c1.575-1.616 4.451-1.613 6.033 0.009l7.591 7.592c0.808 0.808 1.254 1.879 1.254 3.019 0 1.129-0.446 2.195-1.254 3.003l-14.196 14.196c-0.226 0.228-0.523 0.341-0.821 0.341zM24.185 22.292c-0.297 0-0.594-0.113-0.821-0.34l-11.982-11.983c-0.454-0.454-0.454-1.189 0-1.642s1.189-0.454 1.642 0l11.983 11.982c0.454 0.454 0.454 1.189 0 1.643-0.229 0.226-0.526 0.34-0.822 0.34z"></path>
</svg>
