<!-- Generated by IcoMoon.io -->
<svg version="1.1" xmlns="http://www.w3.org/2000/svg" width="32" height="32" viewBox="0 0 32 32">
<title>excel-summary</title>
<path d="M2.857 13.697h4v2.286h-4z"></path>
<path d="M2.857 20.553h4v2.282h-4z"></path>
<path d="M8 6.839h18.286v2.286h-18.286z"></path>
<path d="M1.714 25.697h10.857v-1.714h-9.714c-0.617 0.013-1.128-0.475-1.143-1.092v-16.103c0.015-0.616 0.526-1.104 1.143-1.091h23.428c0.631 0 1.143 0.511 1.143 1.143v4.571h1.714v-8.571c0-0.947-0.768-1.714-1.714-1.714h-25.714c-0.947 0-1.714 0.768-1.714 1.714v21.143c0 0.947 0.768 1.714 1.714 1.714zM14.286 2.839h12.572c0.316 0 0.571 0.256 0.571 0.571s-0.256 0.572-0.571 0.572h-12.572c-0.315 0-0.571-0.256-0.571-0.572s0.256-0.571 0.571-0.571zM9.714 2.839h2.286c0.316 0 0.572 0.256 0.572 0.571s-0.256 0.572-0.572 0.572h-2.286c-0.316 0-0.572-0.256-0.572-0.572s0.256-0.571 0.572-0.571zM6.286 2.839h1.143c0.316 0 0.572 0.256 0.572 0.571s-0.256 0.572-0.572 0.572h-1.143c-0.315 0-0.571-0.256-0.571-0.572s0.256-0.571 0.571-0.571zM2.857 2.839h1.143c0.316 0 0.572 0.256 0.572 0.571s-0.256 0.572-0.572 0.572h-1.143c-0.316 0-0.572-0.256-0.572-0.572s0.256-0.571 0.572-0.571z"></path>
<path d="M2.857 17.125h4v2.286h-4z"></path>
<path d="M2.857 10.268h4v2.286h-4z"></path>
<path d="M8 20.553h4.572v2.285h-4.572z"></path>
<path d="M2.857 6.839h4v2.286h-4z"></path>
<path d="M14.286 11.411h12v-1.143h-18.286v2.286h4.677c0.241-0.682 0.885-1.14 1.609-1.143z"></path>
<path d="M31.428 12.553h-17.143c-0.315 0-0.571 0.256-0.571 0.572v17.143c0 0.316 0.256 0.572 0.571 0.572h17.143c0.316 0 0.572-0.256 0.572-0.572v-17.143c0-0.316-0.256-0.572-0.572-0.572zM28 17.345c0 0.316-0.256 0.572-0.572 0.572s-0.571-0.256-0.571-0.572v-1.363h-8.424l4.986 4.433c0.366 0.325 0.575 0.791 0.575 1.281s-0.209 0.956-0.575 1.281l-4.986 4.433h8.424v-1.363c0-0.316 0.256-0.572 0.571-0.572s0.572 0.256 0.572 0.572v1.451c0.004 0.577-0.46 1.049-1.037 1.055h-8.782c-0.401 0-0.765-0.232-0.934-0.595-0.18-0.372-0.127-0.814 0.135-1.133 0.019-0.024 0.041-0.046 0.063-0.066l5.214-4.636c0.122-0.108 0.192-0.264 0.192-0.427s-0.070-0.319-0.192-0.427l-5.214-4.636c-0.023-0.020-0.044-0.042-0.063-0.066-0.262-0.319-0.315-0.761-0.135-1.133 0.169-0.364 0.533-0.596 0.934-0.595h8.782c0.577 0.006 1.041 0.477 1.037 1.055z"></path>
<path d="M8 13.697h4.572v2.286h-4.572z"></path>
<path d="M8 17.125h4.572v2.286h-4.572z"></path>
</svg>
