<!-- Generated by IcoMoon.io -->
<svg version="1.1" xmlns="http://www.w3.org/2000/svg" width="32" height="32" viewBox="0 0 32 32">
<title>excel</title>
<path d="M30.969 3.692h-11.276v3.673h3.73v2.5h-3.73v2.443h3.692v2.462h-3.692v2.462h3.692v2.462h-3.692v2.462h3.692v2.462h-3.692v3.692h11.276c0.567 0 1.031-0.481 1.031-1.071v-22.474c0-0.59-0.464-1.071-1.031-1.071zM29.538 24.615h-4.923v-2.462h4.923v2.462zM29.538 19.692h-4.923v-2.462h4.923v2.462zM29.538 14.769h-4.923v-2.462h4.923v2.462zM29.538 9.846h-4.923v-2.462h4.923v2.462zM0 3.556v24.89l18.462 3.554v-32l-18.462 3.556zM11.678 22.252l-2.148-4.060c-0.081-0.151-0.165-0.43-0.252-0.834h-0.033c-0.041 0.191-0.137 0.481-0.288 0.87l-2.155 4.025h-3.346l3.973-6.233-3.634-6.234h3.417l1.782 3.738c0.139 0.295 0.263 0.646 0.374 1.051h0.034c0.070-0.244 0.201-0.606 0.391-1.087l1.982-3.703h3.129l-3.738 6.181 3.842 6.286-3.329 0.001z"></path>
</svg>
