<!-- Generated by IcoMoon.io -->
<svg version="1.1" xmlns="http://www.w3.org/2000/svg" width="32" height="32" viewBox="0 0 32 32">
<title>exportexcel2</title>
<path d="M23.116 27.341v4.659l5.365-6.515-3.616 0.103c-0.966-0.001-1.749 0.785-1.749 1.753zM26.727 0h-21.456c-0.971 0-1.753 0.786-1.753 1.749v28.5c0 0.968 0.781 1.749 1.753 1.749h16.104v-6.211c0-0.968 0.784-1.752 1.753-1.752h5.355v-22.287c0-0.963-0.784-1.749-1.756-1.749zM17.088 3.987c0-0.277 0.134-0.5 0.3-0.5h8.041c0.166 0 0.303 0.224 0.303 0.5v0.833c0 0.275-0.137 0.497-0.303 0.497h-8.041c-0.166 0-0.3-0.224-0.3-0.497 0 0 0-0.833 0-0.833zM25.765 7.090v0.835c0 0.275-0.134 0.497-0.3 0.497h-8.043c-0.165 0-0.3-0.224-0.3-0.497v-0.835c0-0.275 0.135-0.497 0.3-0.497h8.043c0.166 0 0.3 0.224 0.3 0.497zM6.531 11.924c0.493 0 0.946-0.137 1.354-0.409 0.409-0.27 1.005-0.984 1.79-2.134l0.837-1.24-1.752-3.241c-0.573-1.058-1.001-1.707-1.283-1.946-0.283-0.239-0.598-0.373-0.946-0.4v-0.404h5.633v0.404l-0.294 0.010-0.566 0.195c-0.058 0.051-0.087 0.135-0.087 0.25 0 0.108 0.017 0.22 0.055 0.339 0.020 0.049 0.121 0.244 0.303 0.586l0.795 1.476 0.414-0.586c0.579-0.796 0.869-1.354 0.869-1.673 0-0.151-0.062-0.28-0.19-0.385s-0.354-0.178-0.679-0.212v-0.404h3.597v0.404c-0.443 0.012-0.858 0.15-1.238 0.406-0.386 0.259-0.816 0.756-1.295 1.495l-1.064 1.631 1.758 3.348c0.61 1.165 1.093 1.907 1.445 2.217 0.195 0.165 0.466 0.256 0.805 0.272v0.391h-5.662v-0.391c0.44-0.036 0.713-0.095 0.821-0.173 0.105-0.083 0.157-0.19 0.157-0.328 0-0.199-0.117-0.52-0.349-0.956l-0.88-1.651-0.751 1.099c-0.339 0.497-0.53 0.796-0.574 0.887-0.060 0.141-0.087 0.262-0.087 0.371 0 0.169 0.033 0.307 0.105 0.419 0.068 0.115 0.161 0.195 0.28 0.25 0.121 0.055 0.34 0.083 0.66 0.083v0.391h-3.98v-0.389zM16.347 25.86c0 0.277-0.159 0.497-0.358 0.497h-9.534c-0.198 0-0.359-0.222-0.359-0.497v-0.835c0-0.275 0.16-0.5 0.359-0.5h9.534c0.198 0 0.358 0.226 0.358 0.5 0 0 0 0.835 0 0.835zM25.551 22.233c0 0.275-0.303 0.5-0.677 0.5h-18.101c-0.373 0-0.677-0.226-0.677-0.5v-0.837c0-0.275 0.304-0.495 0.677-0.495h18.1c0.374 0 0.677 0.222 0.677 0.495l0.001 0.837zM25.551 18.568c0 0.279-0.303 0.497-0.677 0.497h-18.101c-0.373 0-0.677-0.22-0.677-0.497v-0.833c0-0.275 0.304-0.497 0.677-0.497h18.1c0.374 0 0.677 0.224 0.677 0.497l0.001 0.833zM25.551 14.976c0 0.277-0.303 0.502-0.677 0.502h-18.101c-0.373 0-0.677-0.226-0.677-0.502v-0.831c0-0.279 0.304-0.5 0.677-0.5h18.1c0.374 0 0.677 0.222 0.677 0.5l0.001 0.831zM25.8 11.005c0 0.275-0.135 0.497-0.303 0.497h-8.043c-0.168 0-0.3-0.224-0.3-0.497v-0.834c0-0.275 0.132-0.497 0.3-0.497h8.042c0.168 0 0.303 0.224 0.303 0.497v0.834z"></path>
</svg>
