<!-- Generated by IcoMoon.io -->
<svg version="1.1" xmlns="http://www.w3.org/2000/svg" width="32" height="32" viewBox="0 0 32 32">
<title>exportword2</title>
<path d="M23.119 32v-4.659c0-0.968 0.782-1.754 1.752-1.754l3.61-0.103-5.362 6.516zM26.73 0h-21.457c-0.971 0-1.754 0.784-1.754 1.749v28.498c0 0.968 0.783 1.752 1.754 1.752h16.103v-6.213c0-0.966 0.786-1.752 1.754-1.752h5.352v-22.285c-0.001-0.965-0.782-1.749-1.752-1.749zM25.552 14.976c0 0.275-0.302 0.5-0.677 0.5h-18.098c-0.375 0-0.679-0.226-0.679-0.5v-0.833c0-0.277 0.304-0.5 0.679-0.5h18.098c0.375 0 0.677 0.224 0.677 0.5v0.833zM25.552 18.566c0 0.279-0.302 0.5-0.677 0.5h-18.098c-0.375 0-0.679-0.222-0.679-0.5v-0.831c0-0.277 0.304-0.502 0.679-0.502h18.098c0.375 0 0.677 0.226 0.677 0.502v0.831zM25.552 22.231c0 0.277-0.302 0.5-0.677 0.5h-18.098c-0.375 0-0.679-0.224-0.679-0.5v-0.833c0-0.277 0.304-0.502 0.679-0.502h18.098c0.375 0 0.677 0.226 0.677 0.502v0.833zM16.349 25.86c0 0.275-0.16 0.495-0.358 0.495h-9.535c-0.198 0-0.359-0.222-0.359-0.495v-0.835c0-0.275 0.16-0.5 0.359-0.5h9.535c0.197 0 0.358 0.226 0.358 0.5v0.835zM12.761 11.757l-1.738-6.167-1.967 6.167h-0.709c0 0-2.633-7.866-2.848-8.156-0.138-0.2-0.349-0.342-0.629-0.426v-0.345h3.905v0.345c-0.265 0-0.448 0.042-0.546 0.129s-0.149 0.186-0.149 0.296c0 0.105 1.398 4.328 1.398 4.328l1.092-3.384c0 0-0.391-0.977-0.515-1.106-0.125-0.125-0.318-0.214-0.578-0.262v-0.345h3.963v0.345c-0.311 0.019-0.505 0.067-0.587 0.141-0.083 0.078-0.124 0.188-0.124 0.33 0 0.135 1.332 4.281 1.332 4.281s1.209-3.86 1.209-4.021c0-0.242-0.053-0.417-0.158-0.53-0.104-0.11-0.309-0.178-0.611-0.201v-0.345h2.291v0.345c-0.253 0.036-0.456 0.137-0.604 0.3-0.151 0.163-2.748 8.281-2.748 8.281h-0.681v0.001zM25.734 4.82c0 0.275-0.135 0.497-0.302 0.497h-8.040c-0.167 0-0.302-0.224-0.302-0.497v-0.835c0-0.275 0.135-0.497 0.302-0.497h8.040c0.167 0 0.302 0.224 0.302 0.497v0.835zM25.8 11.005c0 0.277-0.135 0.495-0.301 0.495h-8.041c-0.169 0-0.302-0.22-0.302-0.495v-0.834c0-0.275 0.133-0.5 0.302-0.5h8.041c0.166 0 0.301 0.226 0.301 0.5v0.834zM25.767 7.923c0 0.277-0.133 0.497-0.302 0.497h-8.040c-0.167 0-0.302-0.222-0.302-0.497v-0.833c0-0.277 0.135-0.5 0.302-0.5h8.040c0.169 0 0.302 0.224 0.302 0.5v0.833z"></path>
</svg>
