<svg width="20" height="16" viewBox="0 0 20 16" fill="none" xmlns="http://www.w3.org/2000/svg">
<g clip-path="url(#clip0_4569_134177)">
<path fill-rule="evenodd" clip-rule="evenodd" d="M5.82762 9V15C5.82762 15.55 6.2675 16 6.80514 16H8.76019C9.29783 16 9.73771 15.55 9.73771 15V9C9.73771 9 13.3741 4.2 15.3487 1.61C15.8472 0.95 15.3878 0 14.5765 0H0.979093C0.167747 0 -0.29169 0.95 0.206848 1.61C2.18145 4.2 5.82762 9 5.82762 9ZM2.17553 1.6C3.05619 2.7565 4.09274 4.11945 4.98312 5.29069L7.05272 8.01403L7.38317 8.44906V14.4H8.18216V8.45022L8.5107 8.01656L9.10998 7.22577C9.48184 6.73517 9.99822 6.05406 10.5763 5.29198C11.465 4.12058 12.5001 2.75707 13.3804 1.6H2.17553Z" fill="#4D5268"/>
<path d="M15.5555 6.85718L14.3066 10.0476L11.1111 10.3411L13.5378 12.6172L12.8089 16L15.5555 14.2051L18.3022 16L17.5733 12.6172L20 10.3411L16.8044 10.0476L15.5555 6.85718Z" fill="#3C90F2"/>
</g>
<defs>
<clipPath id="clip0_4569_134177">
<rect width="20" height="16" fill="white"/>
</clipPath>
</defs>
</svg>
