<svg width="20" height="16" viewBox="0 0 20 16" fill="none" xmlns="http://www.w3.org/2000/svg">
<g clip-path="url(#clip0_4569_134180)">
<path fill-rule="evenodd" clip-rule="evenodd" d="M5.82762 9V15C5.82762 15.55 6.2675 16 6.80514 16H8.76019C9.29783 16 9.73771 15.55 9.73771 15V9C9.73771 9 13.3741 4.2 15.3487 1.61C15.8472 0.95 15.3878 0 14.5765 0H0.979093C0.167747 0 -0.29169 0.95 0.206848 1.61C2.18145 4.2 5.82762 9 5.82762 9ZM2.17553 1.6C3.05619 2.7565 4.09274 4.11945 4.98312 5.29069L7.05272 8.01403L7.38317 8.44906V14.4H8.18216V8.45022L8.5107 8.01656L9.10998 7.22577C9.48184 6.73517 9.99822 6.05406 10.5763 5.29198C11.465 4.12058 12.5001 2.75707 13.3804 1.6H2.17553Z" fill="#4D5268"/>
<path fill-rule="evenodd" clip-rule="evenodd" d="M15.2778 5.42859C13.7494 5.42859 12.5 6.71365 12.5 8.28573C12.5 9.85781 13.7494 11.1429 15.2778 11.1429C16.8062 11.1429 18.0556 9.85781 18.0556 8.28573C18.0556 6.71365 16.8062 5.42859 15.2778 5.42859ZM14.0556 8.28573C14.0556 7.59731 14.6085 7.02859 15.2778 7.02859C15.9471 7.02859 16.5 7.59731 16.5 8.28573C16.5 8.97416 15.9471 9.54288 15.2778 9.54288C14.6085 9.54288 14.0556 8.97416 14.0556 8.28573ZM15.2778 11.4286C14.4459 11.4286 13.3633 11.6415 12.4801 12.0696C11.6136 12.4897 10.8334 13.1738 10.8334 14.1633V16.2857H19.7223V14.1633C19.7223 13.1738 18.942 12.4897 18.0756 12.0696C17.1923 11.6415 16.1098 11.4286 15.2778 11.4286ZM13.1433 13.5169C13.8013 13.1979 14.6547 13.0286 15.2778 13.0286C15.9009 13.0286 16.7543 13.1979 17.4124 13.5169C18.1414 13.8704 18.1667 14.1506 18.1667 14.1633V14.6857H12.3889V14.1633C12.3889 14.1506 12.4142 13.8704 13.1433 13.5169Z" fill="#06C270"/>
</g>
<defs>
<clipPath id="clip0_4569_134180">
<rect width="20" height="16" fill="white"/>
</clipPath>
</defs>
</svg>
