<!-- Generated by IcoMoon.io -->
<svg version="1.1" xmlns="http://www.w3.org/2000/svg" width="32" height="32" viewBox="0 0 32 32">
<title>filter</title>
<path d="M31.23 4.662c0-1.58-1.632-2.757-4.99-3.596-2.749-0.687-6.386-1.066-10.24-1.066s-7.491 0.379-10.24 1.066c-3.358 0.84-4.99 2.016-4.99 3.596 0 0.585 0.224 1.114 0.676 1.592l10.366 12.573v12.034c0 0.394 0.204 0.76 0.539 0.968 0.183 0.114 0.392 0.171 0.601 0.171 0.173 0 0.346-0.039 0.506-0.118l6.087-3.017c0.387-0.192 0.633-0.587 0.633-1.019l0.012-9.018 10.367-12.574c0.451-0.477 0.675-1.006 0.675-1.591zM6.826 3.154c2.51-0.565 5.768-0.876 9.174-0.876s6.664 0.311 9.174 0.876c2.772 0.624 3.551 1.294 3.738 1.508-0.187 0.213-0.966 0.884-3.738 1.508-2.51 0.565-5.768 0.876-9.174 0.876s-6.664-0.311-9.174-0.876c-2.772-0.624-3.551-1.294-3.738-1.508 0.186-0.214 0.966-0.884 3.738-1.508zM18.171 17.693c-0.168 0.204-0.26 0.459-0.26 0.723l-0.011 8.72-3.81 1.888v-10.607c0-0.264-0.092-0.521-0.26-0.725l-7.707-9.348c2.703 0.632 6.19 0.98 9.878 0.98s7.175-0.347 9.878-0.98l-7.707 9.348z"></path>
</svg>
