<!-- Generated by IcoMoon.io -->
<svg version="1.1" xmlns="http://www.w3.org/2000/svg" width="32" height="32" viewBox="0 0 32 32">
<title>folder</title>
<path d="M30.943 9.674c0.692 0 1.159 0.557 1.037 1.238l-2.83 15.903c-0.121 0.681-0.786 1.238-1.478 1.238h-25.576c-0.139 0-0.268-0.023-0.385-0.064-0.973-0.181-1.711-1.036-1.711-2.060v-17.429c0-1.156 0.941-2.096 2.096-2.096h1.091c0.124 0 0.285-0.255 0.499-0.616 0.042-0.071 0.085-0.143 0.128-0.213 0.663-1.081 1.226-1.629 2.17-1.629h3.732c0.667 0 1.616 0.291 2.347 1.676 0.032 0.060 0.063 0.121 0.094 0.181 0.209 0.407 0.326 0.6 0.422 0.6h14.344c1.156 0 2.096 0.941 2.096 2.097v0.881s-0.030 0.294 0.168 0.294h1.757zM2.097 8.081c-0.227 0-0.419 0.192-0.419 0.419v13.9c0 0.734 0.107 0.338 0.107 0.338l2.104-11.825c0.121-0.681 0.786-1.238 1.478-1.238h21.807c0.194 0 0.168-0.335 0.168-0.335v-0.839c0-0.227-0.192-0.419-0.419-0.419h-14.344c-1.137 0-1.604-0.909-1.913-1.51-0.028-0.055-0.057-0.111-0.086-0.166-0.412-0.782-0.752-0.782-0.864-0.782h-3.55c-0.321 0-0.584 0.279-0.922 0.829-0.039 0.063-0.077 0.128-0.115 0.192-0.339 0.572-0.852 1.437-1.942 1.437h-1.091z"></path>
</svg>
