<!-- Generated by IcoMoon.io -->
<svg version="1.1" xmlns="http://www.w3.org/2000/svg" width="32" height="32" viewBox="0 0 32 32">
<title>forbidden</title>
<path d="M27.269 4.731c-3.019-3.019-7.012-4.731-11.269-4.731-8.791 0-16 7.195-16 16 0 8.81 7.192 16 16 16 8.769 0 16-7.162 16-16 0-4.256-1.712-8.25-4.731-11.269zM16 28.188c-6.737 0-12.188-5.437-12.188-12.188 0-2.625 0.825-5.119 2.344-7.181l17.025 17.006c-2.063 1.538-4.556 2.363-7.181 2.363zM25.825 23.181l-17.006-17.025c2.063-1.519 4.556-2.344 7.181-2.344 6.737 0 12.188 5.437 12.188 12.188 0 2.625-0.825 5.119-2.363 7.181z"></path>
</svg>
