<!-- Generated by IcoMoon.io -->
<svg version="1.1" xmlns="http://www.w3.org/2000/svg" width="32" height="32" viewBox="0 0 32 32">
<title>function</title>
<path d="M7.717 32c2.615 0 4.003-2.335 4.411-3.715 0.007-0.022 0.013-0.044 0.018-0.067 0.951-3.94 2.466-10.184 3.589-14.725h4.016c0.755 0 1.367-0.612 1.367-1.367s-0.612-1.367-1.367-1.367h-3.336c0.359-1.431 0.622-2.45 0.726-2.798l0.115-0.389c0.424-1.447 1.417-4.835 2.952-4.835 1.424 0 1.636 2.192 1.645 2.298 0.061 0.751 0.715 1.318 1.468 1.253 0.753-0.057 1.317-0.716 1.259-1.468-0.128-1.667-1.207-4.818-4.372-4.818-3.584 0-4.929 4.594-5.576 6.802l-0.11 0.372c-0.131 0.437-0.476 1.783-0.926 3.584h-4.784c-0.755 0-1.367 0.612-1.367 1.367s0.612 1.367 1.367 1.367h4.107c-1.404 5.695-3.219 13.206-3.418 14.033-0.075 0.217-0.635 1.738-1.782 1.738-1.751 0-2.51-2.458-2.516-2.477-0.21-0.725-0.967-1.145-1.694-0.933-0.725 0.21-1.143 0.969-0.933 1.694 0.478 1.653 2.099 4.451 5.142 4.451zM27.997 28.474c0.806 0 1.483-0.572 1.483-1.484 0-0.423-0.169-0.805-0.53-1.229l-2.84-3.263 2.755-3.221c0.254-0.318 0.445-0.657 0.445-1.102 0-0.806-0.657-1.399-1.505-1.399-0.572 0-1.017 0.36-1.399 0.827l-2.14 2.796-2.098-2.797c-0.424-0.529-0.869-0.827-1.504-0.827-0.806 0-1.484 0.573-1.484 1.484 0 0.423 0.17 0.805 0.529 1.228l2.649 3.052-2.904 3.433c-0.276 0.318-0.445 0.657-0.445 1.102 0 0.806 0.657 1.399 1.504 1.399 0.572 0 1.017-0.36 1.399-0.827l2.288-3.009 2.289 3.009c0.425 0.531 0.87 0.827 1.506 0.827z"></path>
</svg>
