<!-- Generated by IcoMoon.io -->
<svg version="1.1" xmlns="http://www.w3.org/2000/svg" width="32" height="32" viewBox="0 0 32 32">
<title>hie</title>
<path d="M23.905 6.695h5.395c0.359 0 0.649-0.291 0.649-0.649v-5.396c0-0.358-0.291-0.649-0.649-0.649h-5.395c-0.359 0-0.65 0.291-0.65 0.649v1.627h-7.364c-0.592 0-1.071 0.48-1.071 1.071v11.582h-3.795v-2.546c0-0.481-0.389-0.87-0.87-0.87h-7.234c-0.481 0-0.87 0.39-0.87 0.87v7.235c0 0.481 0.389 0.87 0.87 0.87h7.234c0.481 0 0.87-0.39 0.87-0.87v-2.547h3.795v11.582c0 0.591 0.479 1.071 1.071 1.071h7.364v1.627c0 0.358 0.291 0.649 0.65 0.649h5.395c0.359 0 0.649-0.291 0.649-0.649v-5.396c0-0.358-0.291-0.649-0.649-0.649h-5.395c-0.359 0-0.65 0.291-0.65 0.649v1.627h-6.293v-10.51h6.293v1.627c0 0.358 0.291 0.649 0.65 0.649h5.395c0.359 0 0.649-0.291 0.649-0.649v-5.396c0-0.358-0.291-0.649-0.649-0.649h-5.395c-0.359 0-0.65 0.291-0.65 0.649v1.627h-6.293v-10.511h6.293v1.627c-0 0.358 0.29 0.649 0.649 0.649z"></path>
</svg>
