<!-- Generated by IcoMoon.io -->
<svg version="1.1" xmlns="http://www.w3.org/2000/svg" width="32" height="32" viewBox="0 0 32 32">
<title>home</title>
<path d="M31.657 14.744l-15-13c-0.376-0.326-0.934-0.326-1.31 0l-5.348 4.632v-1.876c0-1.104-0.896-2-2-2s-2 0.896-2 2v5.342l-5.656 4.902c-0.416 0.362-0.462 0.994-0.1 1.412 0.364 0.416 0.994 0.46 1.412 0.1l14.344-12.432 14.342 12.432c0.192 0.164 0.422 0.244 0.656 0.244 0.282 0 0.556-0.118 0.754-0.344 0.368-0.418 0.32-1.046-0.094-1.412zM17.266 8.956c-0.366-0.302-0.816-0.456-1.266-0.456s-0.9 0.152-1.268 0.456l-10 8.198c-0.464 0.38-0.732 0.946-0.732 1.548v9.798c0 1.104 0.896 2 2 2h6v-10h8v10h6c1.102 0 2-0.896 2-2v-9.798c0-0.604-0.27-1.168-0.734-1.546l-10-8.2z"></path>
</svg>
