<!-- Generated by IcoMoon.io -->
<svg version="1.1" xmlns="http://www.w3.org/2000/svg" width="32" height="32" viewBox="0 0 32 32">
<title>house</title>
<path d="M31.992 13.843c-0.058-0.749-0.403-1.431-0.974-1.92l-2.768-2.373v-6.742c0-0.518-0.42-0.937-0.937-0.937h-3.75c-0.518 0-0.925 0.42-0.925 0.937v1.92l-4.744-4.043c-1.061-0.909-2.6-0.909-3.657-0.003l-13.253 11.24c-1.172 1.004-1.324 2.776-0.304 3.967 0.777 0.904 2.023 1.192 3.084 0.819v14.349c0 0.518 0.407 0.937 0.925 0.937h22.624c0.518 0 0.937-0.42 0.937-0.937v-14.349c1.096 0.387 2.315 0.063 3.073-0.821 0.489-0.57 0.726-1.297 0.669-2.046zM24.5 3.746h1.887v4.197l-1.887-1.607v-2.59zM19.825 30.121h-7.637v-7.512h7.637v7.512zM26.387 30.121h-4.7v-8.437c0-0.518-0.42-0.937-0.937-0.937h-9.5c-0.518 0-0.925 0.42-0.925 0.937v8.437h-4.7v-14.76l10.434-8.851 10.328 8.842v14.769zM29.899 14.668c-0.332 0.387-0.923 0.444-1.322 0.102l-11.904-10.204c-0.35-0.3-0.865-0.301-1.216-0.003-0.254 0.215-11.983 10.165-12.032 10.207-0.393 0.336-0.986 0.29-1.323-0.101-0.337-0.393-0.291-0.986 0.098-1.319l13.253-11.24c0.354-0.303 0.867-0.303 1.221-0l13.125 11.237c0.392 0.336 0.438 0.929 0.102 1.322zM18.875 11.246h-5.75c-0.518 0-0.925 0.42-0.925 0.937v5.625c0 0.518 0.407 0.937 0.925 0.937h5.75c0.518 0 0.937-0.42 0.937-0.937v-5.625c0-0.518-0.42-0.937-0.937-0.937zM17.95 16.871h-3.887v-3.75h3.887v3.75zM17.937 25.433c0 0.518-0.42 0.937-0.937 0.937s-0.937-0.42-0.937-0.937c0-0.518 0.42-0.937 0.937-0.937s0.937 0.42 0.937 0.937z"></path>
</svg>
