<!-- Generated by IcoMoon.io -->
<svg version="1.1" xmlns="http://www.w3.org/2000/svg" width="32" height="32" viewBox="0 0 32 32">
<title>import</title>
<path d="M16 2.4l-8.32 7.807h5.28v8.193h6.080v-8.193h5.28l-8.32-7.807zM30.943 20.868l-5.094-3.428h-3.141l5.441 4.174h-5.671c-0.163 0-0.31 0.083-0.383 0.212l-1.308 3.576h-9.575l-1.308-3.576c-0.073-0.13-0.22-0.212-0.383-0.212h-5.671l5.441-4.174h-3.142l-5.093 3.428c-0.758 0.453-1.211 1.496-1.008 2.319l0.898 4.918c0.204 0.822 1.105 1.496 2.002 1.496h26.102c0.898 0 1.799-0.673 2.003-1.496l0.898-4.918c0.204-0.822-0.25-1.866-1.008-2.319z"></path>
</svg>
