<!-- Generated by IcoMoon.io -->
<svg version="1.1" xmlns="http://www.w3.org/2000/svg" width="32" height="32" viewBox="0 0 32 32">
<title>key</title>
<path d="M21.926 0c-5.57 0-10.074 4.504-10.074 10.074 0 1.185 0.237 2.37 0.593 3.556l-12.444 12.444v5.926h5.926v-3.556h3.556v-3.556h3.556l5.333-5.333c1.067 0.356 2.252 0.593 3.556 0.593 5.57 0 10.074-4.504 10.074-10.074s-4.504-10.074-10.074-10.074zM24.889 10.667c-2.015 0-3.556-1.541-3.556-3.556s1.541-3.556 3.556-3.556 3.556 1.541 3.556 3.556-1.541 3.556-3.556 3.556z"></path>
</svg>
