<!-- Generated by IcoMoon.io -->
<svg version="1.1" xmlns="http://www.w3.org/2000/svg" width="32" height="32" viewBox="0 0 32 32">
<title>keys</title>
<path d="M30.473 20.054l-0.002-0.001c-1.722-1.618-3.761-2.863-5.987-3.654l-6.16-2.192c-0.452-1.863-1.856-3.44-3.829-4.011-0.743-0.216-1.493-0.265-2.214-0.176-0.001-0.39-0.028-0.768-0.069-1.14h8.030c0.846 0 1.532-0.686 1.532-1.532v-5.816c0-0.846-0.686-1.532-1.532-1.532h-9.687c-1.775 0-3.295 1.049-4.006 2.555-2.938 0.184-5.204 3.399-5.204 7.483 0 2.074 0.586 3.924 1.545 5.269 0.226 0.316 0.473 0.601 0.737 0.857-1.162 2.101-0.876 4.787 0.907 6.57 1.078 1.078 2.49 1.615 3.902 1.615 0.491 0 0.982-0.065 1.459-0.195l1.606 1.425c0.182 0.161 0.413 0.244 0.646 0.244 0.161 0 0.321-0.040 0.468-0.12l0.682-0.375c0.042-0.023 0.087-0.034 0.132-0.034 0.071 0 0.14 0.027 0.193 0.079 0.086 0.085 0.105 0.217 0.048 0.325l-0.293 0.544c-0.214 0.396-0.128 0.888 0.21 1.188 0.182 0.161 0.412 0.245 0.645 0.245 0.16 0 0.321-0.040 0.468-0.121l0.531-0.293c0.042-0.023 0.087-0.034 0.132-0.034 0.071 0 0.14 0.027 0.193 0.079 0.086 0.086 0.106 0.217 0.048 0.325l-0.015 0.028c-0.331 0.613-0.197 1.373 0.325 1.835 0.281 0.25 0.638 0.379 0.997 0.379 0.248 0 0.497-0.062 0.724-0.187l0.015-0.007c0.041-0.023 0.087-0.034 0.132-0.034 0.070 0 0.14 0.027 0.193 0.079 0.086 0.085 0.105 0.217 0.048 0.325-0.114 0.211-0.128 0.462-0.038 0.685 0.088 0.222 0.272 0.394 0.5 0.468 0 0 1.791 0.581 2.392 0.775 0.218 0.071 0.471-0.030 0.579-0.139 0.151-0.151 0.204-0.375 0.139-0.578l-0.001-0.002c-0.729-2.248-1.915-4.322-3.483-6.088l-4.339-4.89c0.502-1.849 0.032-3.908-1.42-5.36-1.078-1.079-2.493-1.619-3.907-1.619-1.228 0-2.441 0.431-3.449 1.244-0.233-0.247-0.442-0.542-0.632-0.87-0.56-0.969-0.915-2.247-0.915-3.637 0-2.563 1.182-4.778 2.701-5.29 0.15 2.147 1.813 3.857 3.938 4.084 0.058 0.391 0.096 0.792 0.096 1.207 0 0.247-0.034 0.491-0.056 0.736-0.629 0.376-1.176 0.877-1.617 1.48 0.929 0.009 1.825 0.214 2.647 0.587 0.251-0.057 0.513-0.079 0.778-0.052 0.105 0.011 0.198 0.067 0.257 0.154s0.076 0.195 0.047 0.296l-0.053 0.184c0.32 0.223 0.625 0.472 0.907 0.754 1.522 1.522 2.194 3.702 1.819 5.807l0.431 0.486c0.533-0.256 1.028-0.587 1.456-1.001l2.094 0.474c0.401 0.090 0.816-0.081 1.036-0.428l0.417-0.658c0.064-0.104 0.189-0.151 0.306-0.117 0.116 0.033 0.197 0.139 0.198 0.261l0.005 0.619c0.004 0.45 0.317 0.84 0.757 0.939 0.401 0.091 0.815-0.081 1.035-0.428l0.325-0.512c0.065-0.103 0.19-0.15 0.306-0.118 0.117 0.035 0.197 0.14 0.199 0.262l-0.001 0.031c0.006 0.697 0.489 1.298 1.17 1.451 0.62 0.14 1.261-0.125 1.6-0.661l0.009-0.013c0.065-0.103 0.189-0.15 0.306-0.117s0.197 0.139 0.198 0.261c0.002 0.24 0.111 0.466 0.297 0.619 0.185 0.152 0.428 0.214 0.663 0.169l2.47-0.474c0.211-0.040 0.381-0.195 0.44-0.401s-0.001-0.427-0.157-0.574zM6.055 19.351c-0.067 0.067-0.157 0.104-0.251 0.104-0.010 0-0.021-0.001-0.031-0.001-0.105-0.009-0.199-0.065-0.259-0.151-0.428-0.618-0.527-1.39-0.311-2.084 0.747 0.384 2.286 0.506 2.866 0.118l-2.013 2.014zM7.508 4.76c0.508 0.178 0.969 0.561 1.368 1.069-0.646-0.040-1.18-0.475-1.368-1.069zM8.429 2.859c0.169-0.064 0.351-0.103 0.542-0.103 0.851 0 1.542 0.69 1.542 1.542 0 0.055-0.011 0.108-0.017 0.161-0.585-0.725-1.284-1.28-2.067-1.6z"></path>
</svg>
