<!-- Generated by IcoMoon.io -->
<svg version="1.1" xmlns="http://www.w3.org/2000/svg" width="32" height="32" viewBox="0 0 32 32">
<title>large-integration</title>
<path d="M16 22.5c-3.033 0-5.5 2.468-5.5 5.5v2.5h1.5v-4.5h1v4.5h6v-4.5h1v4.5h1.5v-2.5c0-3.032-2.468-5.5-5.5-5.5zM17.5 8v4.5h11.5c0.827 0 1.5-0.673 1.5-1.5v-8c0-0.827-0.673-1.5-1.5-1.5h-12c-0.827 0-1.5 0.673-1.5 1.5v2.55c1.139 0.232 2 1.242 2 2.45zM18.934 5h2.689l0.71-2.486h1.334l0.71 2.486h2.689l0.381 1.136-2.323 1.55 1.081 2.522-1.015 0.768-2.189-1.823-2.189 1.823-1.015-0.768 1.081-2.521-2.323-1.55zM21.28 9.281l1.72-1.433 1.72 1.433-0.843-1.967 1.972-1.314h-2.226l-0.623-2.18-0.623 2.18h-2.226l1.972 1.314zM3 17.5h9.132c0.446-1.723 2.008-3 3.868-3 0.169 0 0.336 0.014 0.5 0.034v-6.535c0-0.827-0.673-1.5-1.5-1.5h-12c-0.827 0-1.5 0.673-1.5 1.5v8c0 0.827 0.673 1.5 1.5 1.5zM4.48 8.313l2.268 2.018 2.25-2 2.251 2 2.272-2.018 1.058 1.059-2.275 6.257-0.462-0.153c-0.014-0.005-1.445-0.475-2.842-0.475s-2.828 0.47-2.842 0.475l-0.462 0.153-2.275-6.256zM9 14c1.062 0 2.108 0.232 2.691 0.388l1.671-4.597-2.114 1.877-2.251-2-2.25 2-2.11-1.877 1.671 4.595c0.582-0.155 1.629-0.388 2.691-0.388zM8.5 12h1v1h-1zM19 18.5c0 1.657-1.343 3-3 3s-3-1.343-3-3c0-1.657 1.343-3 3-3s3 1.343 3 3zM28 14.5h-2c-1.93 0-3.5 1.57-3.5 3.5v3.5h5.5c1.93 0 3.5-1.57 3.5-3.5s-1.57-3.5-3.5-3.5zM26.5 16.5h1v1h-1zM24.5 16.5h1v1h-1zM29.5 19.5h-5v-1h5zM29.5 17.5h-1v-1h1zM0.5 23c0 1.93 1.571 3.5 3.5 3.5h2c1.929 0 3.5-1.57 3.5-3.5v-3.5h-5.5c-1.929 0-3.5 1.57-3.5 3.5zM3.5 24.5h-1v-1h1zM5.5 24.5h-1v-1h1zM7.5 24.5h-1v-1h1zM7.5 22.5h-5v-1h5z"></path>
</svg>
