<!-- Generated by IcoMoon.io -->
<svg version="1.1" xmlns="http://www.w3.org/2000/svg" width="32" height="32" viewBox="0 0 32 32">
<title>library</title>
<path d="M17.456 2.998c0.637 0 1.158 0.521 1.158 1.158v19.922c0 0.637-0.521 1.158-1.158 1.158h-5.637c-0.637 0-1.158-0.521-1.158-1.158v-19.922c0-0.637 0.521-1.158 1.158-1.158h5.637zM14.637 23.449c1.238 0 2.245-1.007 2.245-2.245s-1.007-2.245-2.245-2.245c-1.238 0-2.245 1.007-2.245 2.245s1.007 2.245 2.245 2.245zM17.572 13.732v0-7.979c0-0.425-0.347-0.772-0.772-0.772h-4.324c-0.425 0-0.772 0.347-0.772 0.772v7.979c0 0.425 0.347 0.772 0.772 0.772h4.324c0.425 0 0.772-0.347 0.772-0.772zM15.101 7.404h-2.406c-0.213 0-0.386-0.173-0.386-0.386s0.173-0.386 0.386-0.386h2.406c0.213 0 0.386 0.173 0.386 0.386s-0.173 0.386-0.386 0.386zM8.081 2.998c0.637 0 1.158 0.521 1.158 1.158v19.922c0 0.637-0.521 1.158-1.158 1.158h-5.637c-0.637 0-1.158-0.521-1.158-1.158v-19.922c0-0.637 0.521-1.158 1.158-1.158h5.637zM5.263 23.449c1.238 0 2.245-1.007 2.245-2.245s-1.007-2.245-2.245-2.245c-1.238 0-2.245 1.007-2.245 2.245s1.007 2.245 2.245 2.245zM8.197 13.732v-7.979c0-0.425-0.347-0.772-0.772-0.772h-4.324c-0.425 0-0.772 0.347-0.772 0.772v7.979c0 0.425 0.347 0.772 0.772 0.772h4.324c0.425 0 0.772-0.347 0.772-0.772zM5.727 7.404h-2.406c-0.213 0-0.386-0.173-0.386-0.386s0.173-0.386 0.386-0.386h2.406c0.213 0 0.386 0.173 0.386 0.386s-0.173 0.386-0.386 0.386zM5.727 9.241h-2.406c-0.213 0-0.386-0.173-0.386-0.386s0.173-0.386 0.386-0.386h2.406c0.213 0 0.386 0.173 0.386 0.386s-0.173 0.386-0.386 0.386zM5.727 11.078h-2.406c-0.213 0-0.386-0.173-0.386-0.386s0.173-0.386 0.386-0.386h2.406c0.213 0 0.386 0.173 0.386 0.386s-0.173 0.386-0.386 0.386zM30.7 23.063c0.095 0.63-0.342 1.223-0.972 1.318l-5.573 0.843c-0.63 0.095-1.223-0.342-1.318-0.972l-2.978-19.698c-0.095-0.63 0.342-1.223 0.972-1.318l5.574-0.843c0.63-0.095 1.223 0.342 1.318 0.972zM23.199 14.513l4.275-0.646c0.42-0.063 0.712-0.459 0.648-0.879l-1.193-7.89c-0.064-0.42-0.459-0.712-0.879-0.648l-4.275 0.646c-0.42 0.064-0.712 0.459-0.648 0.879l1.193 7.889c0.064 0.42 0.459 0.712 0.879 0.648zM28.146 22.147c0.356-0.483 0.503-1.075 0.413-1.668-0.165-1.089-1.118-1.91-2.218-1.91-0.112 0-0.226 0.009-0.338 0.026-0.593 0.090-1.116 0.405-1.472 0.887s-0.503 1.075-0.413 1.668c0.165 1.089 1.118 1.91 2.218 1.91 0.112 0 0.226-0.009 0.338-0.025 0.593-0.090 1.116-0.405 1.472-0.888zM22.162 6.57c-0.188 0-0.352-0.137-0.381-0.328-0.032-0.211 0.113-0.408 0.324-0.439l2.379-0.36c0.212-0.032 0.408 0.113 0.439 0.324s-0.113 0.408-0.324 0.439l-2.379 0.36c-0.020 0.003-0.039 0.004-0.058 0.004zM22.431 8.351c-0.188 0-0.352-0.137-0.381-0.329-0.032-0.211 0.113-0.408 0.324-0.439l3.716-0.562c0.211-0.032 0.408 0.113 0.439 0.324s-0.113 0.408-0.324 0.439l-3.716 0.562c-0.020 0.003-0.039 0.004-0.058 0.004zM32 28.759c0 0.474-0.387 0.861-0.861 0.861h-30.278c-0.474 0-0.861-0.387-0.861-0.861v-0.755c0-0.474 0.387-0.861 0.861-0.861h30.278c0.474 0 0.861 0.387 0.861 0.861v0.755z"></path>
</svg>
