<!-- Generated by IcoMoon.io -->
<svg version="1.1" xmlns="http://www.w3.org/2000/svg" width="32" height="32" viewBox="0 0 32 32">
<title>lock</title>
<path d="M24.378 13.753h-0.467v-5.843c-0-4.362-3.549-7.91-7.911-7.91s-7.91 3.548-7.91 7.91v5.843h-0.467c-1.629 0-2.948 1.32-2.948 2.948v12.35c0 1.629 1.32 2.948 2.948 2.948h16.755c1.629 0 2.948-1.32 2.948-2.948v-12.35c0-1.629-1.32-2.948-2.948-2.948zM17.618 23.116v2.142c0 0.894-0.724 1.618-1.618 1.618s-1.618-0.724-1.618-1.618v-2.143c-0.705-0.506-1.169-1.328-1.169-2.262 0-1.539 1.247-2.787 2.787-2.787 1.539 0 2.786 1.248 2.786 2.787 0 0.934-0.463 1.756-1.169 2.262zM19.596 13.753h-7.192v-5.843c0-1.982 1.613-3.596 3.596-3.596s3.596 1.613 3.596 3.596v5.843z"></path>
</svg>
