<!-- Generated by IcoMoon.io -->
<svg version="1.1" xmlns="http://www.w3.org/2000/svg" width="32" height="32" viewBox="0 0 32 32">
<title>log</title>
<path d="M27.683 0h-18.189c-1.928 0-3.496 1.568-3.496 3.496v22.023h-5.239v3.040c0 1.898 1.544 3.442 3.442 3.442h18.243c2.556 0 3.442-2.197 3.553-3.358l0.004-0.045v-22.116h5.239v-2.924h0c0-1.961-1.596-3.557-3.557-3.557zM4.201 30.125v0c-0.864 0-1.567-0.703-1.567-1.567v-1.165h16.261v1.292c0 0-0.059 0.856 0.424 1.434 0.001 0.001 0.001 0.003 0.002 0.004h-15.12zM24.126 3.557v24.936h-0c-0.017 0.108-0.088 0.487-0.295 0.85-0.304 0.533-0.746 0.741-1.387 0.782-1.405 0.089-1.661-1.467-1.674-1.546v-3.060h-12.897v-22.023c0-0.894 0.727-1.621 1.621-1.621h15.055c-0.023 0.042-0.433 0.772-0.423 1.682zM29.365 4.606h-3.364v-1.049c0-0.116 0.012-0.229 0.034-0.339 0.157-0.766 0.836-1.343 1.648-1.343 0.927 0 1.682 0.755 1.682 1.682v1.049zM10.852 13.454h10.282v1.875h-10.282v-1.875zM10.852 9.536h10.282v1.875h-10.282v-1.875zM10.852 17.383h10.282v1.875h-10.282v-1.875z"></path>
</svg>
