<!-- Generated by IcoMoon.io -->
<svg version="1.1" xmlns="http://www.w3.org/2000/svg" width="32" height="32" viewBox="0 0 32 32">
<title>mail</title>
<path d="M29.143 28.571c0.719 0 1.343-0.238 1.872-0.706l-9.066-9.066c-0.218 0.156-0.428 0.307-0.628 0.451-0.678 0.5-1.229 0.89-1.652 1.169s-0.985 0.566-1.687 0.857c-0.703 0.292-1.357 0.437-1.964 0.437h-0.036c-0.607 0-1.262-0.145-1.964-0.437s-1.265-0.577-1.687-0.857c-0.423-0.279-0.973-0.67-1.652-1.169-0.189-0.139-0.399-0.291-0.626-0.454l-9.068 9.069c0.53 0.469 1.153 0.706 1.873 0.706h26.285zM1.804 13.089c-0.678-0.452-1.28-0.97-1.804-1.554v13.794l7.991-7.991c-1.599-1.116-3.658-2.531-6.187-4.249zM30.214 13.089c-2.432 1.646-4.5 3.064-6.202 4.252l7.988 7.988v-13.794c-0.512 0.572-1.107 1.089-1.786 1.554zM29.143 3.429h-26.285c-0.917 0-1.622 0.31-2.116 0.928s-0.741 1.393-0.741 2.321c0 0.75 0.327 1.562 0.982 2.438s1.351 1.562 2.089 2.062c0.405 0.286 1.625 1.134 3.661 2.545 1.099 0.762 2.055 1.425 2.876 1.998 0.7 0.488 1.304 0.91 1.802 1.261 0.057 0.040 0.147 0.105 0.267 0.19 0.129 0.092 0.292 0.21 0.492 0.355 0.387 0.28 0.708 0.506 0.964 0.679s0.565 0.366 0.929 0.58c0.363 0.214 0.705 0.375 1.027 0.482s0.619 0.161 0.893 0.161h0.036c0.274 0 0.571-0.054 0.893-0.161s0.663-0.268 1.027-0.482c0.363-0.214 0.672-0.408 0.929-0.58s0.577-0.399 0.964-0.679c0.201-0.145 0.363-0.262 0.492-0.355 0.119-0.086 0.209-0.15 0.267-0.19 0.388-0.27 0.993-0.691 1.807-1.256 1.48-1.029 3.661-2.543 6.55-4.548 0.869-0.607 1.595-1.339 2.178-2.196 0.582-0.857 0.874-1.756 0.874-2.696 0-0.786-0.283-1.458-0.848-2.018s-1.235-0.839-2.009-0.839z"></path>
</svg>
