<!-- Generated by IcoMoon.io -->
<svg version="1.1" xmlns="http://www.w3.org/2000/svg" width="32" height="32" viewBox="0 0 32 32">
<title>money</title>
<path d="M27.314 4.686c-3.022-3.022-7.040-4.686-11.314-4.686s-8.292 1.664-11.314 4.686c-3.022 3.022-4.686 7.040-4.686 11.314s1.664 8.292 4.686 11.314c3.022 3.022 7.040 4.686 11.314 4.686s8.292-1.664 11.314-4.686c3.022-3.022 4.686-7.040 4.686-11.314s-1.664-8.292-4.686-11.314zM16 30.979c-8.259 0-14.979-6.719-14.979-14.979s6.719-14.979 14.979-14.979 14.979 6.719 14.979 14.979-6.719 14.979-14.979 14.979zM26.189 10.141c0.238-0.151 0.308-0.467 0.157-0.705-2.269-3.564-6.136-5.692-10.346-5.692s-8.077 2.128-10.346 5.692c-0.152 0.238-0.081 0.554 0.157 0.705 0.085 0.054 0.18 0.080 0.274 0.080 0.169 0 0.334-0.084 0.431-0.237 2.080-3.268 5.626-5.219 9.484-5.219s7.404 1.951 9.484 5.219c0.151 0.238 0.467 0.308 0.705 0.157zM24.053 20.746c0.282 0 0.511-0.229 0.511-0.511v-8.334c0-1.489-1.212-2.701-2.701-2.701-1.315 0-2.413 0.944-2.653 2.191h-0.364v-2.54h0.48c0.282 0 0.511-0.229 0.511-0.511s-0.229-0.511-0.511-0.511h-0.932c-0.010 0-0.019 0.001-0.029 0.001-0.010-0.001-0.019-0.001-0.029-0.001h-0.759c-0.732 0-1.328 0.596-1.328 1.328v2.233h-0.496v-2.233c0-0.732-0.596-1.328-1.328-1.328h-0.759c-0.010 0-0.019 0.001-0.029 0.001-0.010-0.001-0.019-0.001-0.029-0.001h-0.932c-0.282 0-0.511 0.229-0.511 0.511s0.229 0.511 0.511 0.511h0.48v2.54h-0.364c-0.239-1.246-1.338-2.191-2.653-2.191-1.489 0-2.701 1.212-2.701 2.701v8.334c0 0.282 0.229 0.511 0.511 0.511 2.423 0 4.462-1.773 4.839-4.118h0.355c0.136 0.862 0.615 1.613 1.318 2.074l-1.712 3.457c-0.061 0.124-0.070 0.268-0.023 0.398s0.144 0.236 0.27 0.293c0.051 0.023 1.281 0.571 3.005 0.571s2.954-0.547 3.005-0.571c0.126-0.057 0.224-0.163 0.27-0.293s0.038-0.274-0.023-0.398l-1.712-3.457c0.703-0.461 1.181-1.212 1.318-2.074h0.355c0.377 2.345 2.416 4.118 4.839 4.118zM20.179 16.066c-0.008-0.076-0.072-0.456-0.566-0.459l-0.046-0c-0.004-0-0.009-0-0.013-0h-1.166c-0.282 0-0.511 0.229-0.511 0.511 0 0.835-0.486 1.597-1.209 1.895-0.131 0.054-0.233 0.16-0.283 0.292s-0.043 0.28 0.020 0.406l1.676 3.385c-0.459 0.137-1.198 0.303-2.082 0.303s-1.624-0.167-2.082-0.304l1.676-3.385c0.063-0.127 0.070-0.274 0.020-0.406s-0.152-0.238-0.283-0.292c-0.723-0.298-1.209-1.060-1.209-1.895 0-0.282-0.229-0.511-0.511-0.511h-1.166c-0.004 0-0.009 0-0.013 0l-0.046 0c-0.494 0.003-0.558 0.383-0.566 0.459-0.001 0.007-0.001 0.014-0.002 0.021-0.115 1.867-1.55 3.364-3.362 3.604v-7.79c0-0.926 0.754-1.68 1.68-1.68s1.68 0.754 1.68 1.68c0 0.282 0.229 0.511 0.511 0.511h1.336c0.282 0 0.511-0.229 0.511-0.511v-3.050h0.249c0.169 0 0.307 0.138 0.307 0.307v2.743c0 0.282 0.229 0.511 0.511 0.511h1.517c0.282 0 0.511-0.229 0.511-0.511v-2.743c0-0.169 0.138-0.307 0.307-0.307h0.249v3.050c0 0.282 0.229 0.511 0.511 0.511h1.336c0.282 0 0.511-0.229 0.511-0.511 0-0.926 0.754-1.68 1.68-1.68s1.68 0.754 1.68 1.68v7.79c-1.812-0.24-3.247-1.737-3.362-3.604-0-0.007-0.001-0.014-0.002-0.021zM14.128 26.984c-0.282 0-0.511 0.229-0.511 0.511s0.229 0.511 0.511 0.511h3.745c0.282 0 0.511-0.229 0.511-0.511s-0.229-0.511-0.511-0.511h-3.745zM20.255 25.203c0-0.282-0.229-0.511-0.511-0.511h-7.489c-0.282 0-0.511 0.229-0.511 0.511s0.229 0.511 0.511 0.511h7.489c0.282 0 0.511-0.229 0.511-0.511zM28.645 21.518c-0.254-0.123-0.559-0.016-0.682 0.238-2.207 4.569-6.903 7.521-11.963 7.521-6.917 0-12.733-5.4-13.24-12.293-0.021-0.281-0.265-0.492-0.547-0.472s-0.492 0.265-0.472 0.547c0.264 3.588 1.866 6.923 4.51 9.392 2.658 2.481 6.12 3.848 9.749 3.848 2.737 0 5.4-0.779 7.699-2.254 2.238-1.435 4.030-3.456 5.184-5.844 0.123-0.254 0.016-0.559-0.238-0.682zM16 1.702c-3.629 0-7.091 1.366-9.749 3.848-2.644 2.469-4.246 5.804-4.51 9.392-0.021 0.281 0.191 0.526 0.472 0.547s0.526-0.191 0.547-0.472c0.507-6.893 6.323-12.293 13.24-12.293 7.321 0 13.277 5.956 13.277 13.277 0 1.337-0.199 2.658-0.593 3.926-0.084 0.269 0.067 0.555 0.336 0.639 0.050 0.016 0.101 0.023 0.151 0.023 0.218 0 0.42-0.14 0.488-0.36 0.424-1.366 0.638-2.788 0.638-4.229 0-7.884-6.414-14.298-14.298-14.298z"></path>
</svg>
