<!-- Generated by IcoMoon.io -->
<svg version="1.1" xmlns="http://www.w3.org/2000/svg" width="32" height="32" viewBox="0 0 32 32">
<title>new</title>
<path d="M3.201 6.401h-3.2v22.401c0 1.757 1.44 3.197 3.2 3.197h22.399v-3.197h-22.399v-22.401zM28.801 0h-19.2c-1.76 0-3.199 1.44-3.199 3.197v19.203c0 1.757 1.44 3.197 3.197 3.197h19.2c1.76 0 3.2-1.44 3.2-3.197v-19.203c0.001-1.757-1.439-3.197-3.199-3.197zM27.201 14.401h-6.4v6.401h-3.2v-6.401h-6.4v-3.204h6.399v-6.395h3.2v6.396h6.401v3.203z"></path>
</svg>
