<!-- Generated by IcoMoon.io -->
<svg version="1.1" xmlns="http://www.w3.org/2000/svg" width="32" height="32" viewBox="0 0 32 32">
<title>newview</title>
<path d="M0 0v32h16v-2h-4v-8h2v-2h-2v-8h8v2h2v-2h6v-2h-6v-8h8v6h2v-8h-32zM10 30h-8v-8h8v8zM10 20h-8v-8h8v8zM10 10h-8v-8h8v8zM20 10h-8v-8h8v8zM24 16c-4.418 0-8 3.582-8 8s3.582 8 8 8 8-3.582 8-8c-0.005-4.416-3.584-7.995-8-8zM24 30c-3.314 0-6-2.686-6-6s2.686-6 6-6 6 2.686 6 6c-0.003 3.312-2.688 5.997-6 6zM25 21h-2v2h-2v2h2v2h2v-2h2v-2h-2zM30 14h2v2h-2v-2zM30 10h2v2h-2v-2z"></path>
</svg>
