<!-- Generated by IcoMoon.io -->
<svg version="1.1" xmlns="http://www.w3.org/2000/svg" width="32" height="32" viewBox="0 0 32 32">
<title>objects</title>
<path d="M29.161 7.751h-3.621v2.462h1.664c0.848 0 1.537 0.688 1.537 1.536v16.249c0 0.851-0.689 1.54-1.537 1.54h-15.37c-0.848 0-1.534-0.69-1.534-1.54v-1.663h-2.349v3.734c0 1.066 0.862 1.931 1.927 1.931h19.284c1.063 0 1.926-0.865 1.926-1.931v-20.39c0-1.062-0.861-1.928-1.926-1.928zM24.050 22.316v-20.388c0-1.062-0.866-1.928-1.927-1.928h-19.285c-1.065 0-1.926 0.867-1.926 1.928v20.388c0 1.068 0.861 1.931 1.926 1.931h19.285c1.063 0 1.927-0.862 1.927-1.931z"></path>
</svg>
