<!-- Generated by IcoMoon.io -->
<svg version="1.1" xmlns="http://www.w3.org/2000/svg" width="32" height="32" viewBox="0 0 32 32">
<title>pdf</title>
<path d="M8.842 13.456c-0.311 0.005-0.51 0.036-0.628 0.066v4.12c0.117 0.030 0.308 0.034 0.481 0.037 1.271 0.034 2.115-0.675 2.115-2.211 0.009-1.336-0.759-2.030-1.969-2.012zM19.519 29.237c0.042 0.002 0.084 0.006 0.127 0.006h9.688c1.133 0 2.055-0.922 2.055-2.055v-22.459c0-1.133-0.922-2.055-2.055-2.055h-9.688c-0.043 0-0.085 0.004-0.127 0.006v-2.681l-18.909 2.524v26.888l18.909 2.589v-2.763zM29.335 28.069h-9.688c-0.043 0-0.085-0.007-0.127-0.013v-8.812c2.019-0.349 4.822-0.613 7.247-0.043l0.287 0.556c1.157 2.188 2.394 2.174 2.871 2.066 0.11-0.025 0.169-0.052 0.169-0.052l0.064-0.034c0.022-0.014 0.039-0.031 0.058-0.046v5.497c0 0.485-0.395 0.881-0.881 0.881zM20.341 18.2c1.517-1.85 2.743-3.578 3.533-4.748l0.003 0.006 0.009-0.013c0.62 1.307 1.642 3.328 2.345 4.708l-0.002-0.001 0.024 0.046c-2.001-0.342-4.149-0.217-5.916 0.027l0.026-0.030-0.021 0.004zM23.91 9.566c0.061-0.107 0.15-0.136 0.309-0.129 0.003 0 0.319 0.021 0.438 0.238 0.072 0.129 0.175 0.539-0.383 1.537h-0.001c0 0-0.072 0.12-0.208 0.337-0.313-1.099-0.292-1.741-0.155-1.984zM27.95 19.562c0.574 0.221 1.089 0.493 1.541 0.814 0.13 0.184 0.249 0.449 0.228 0.574-0.001 0.006-0.002 0.012-0.006 0.018-0.185 0.034-0.922 0.057-1.763-1.407zM19.647 3.849h9.688c0.486 0 0.881 0.395 0.881 0.881v15.147c-0.027-0.039-0.051-0.072-0.065-0.089l-0.037-0.048-0.049-0.036c-0.752-0.549-1.658-0.972-2.696-1.257-0.74-1.445-2.272-4.457-2.917-5.867 0.373-0.575 0.573-0.909 0.583-0.925 0.581-1.036 0.708-1.845 0.387-2.415-0.291-0.516-0.872-0.671-1.168-0.681-0.479-0.022-0.888 0.183-1.11 0.574-0.338 0.596-0.268 1.64 0.21 3.102 0.021 0.068 0.055 0.154 0.1 0.263-0.766 1.159-2.156 3.163-3.934 5.315v-13.95c0.042-0.006 0.084-0.013 0.128-0.013zM5.454 15.818c-0.447 0.444-1.104 0.637-1.863 0.63-0.167-0.002-0.318-0.012-0.434-0.031v2.158l-1.242-0.034v-5.893c0.384-0.080 0.926-0.146 1.701-0.165 0.792-0.019 1.365 0.131 1.752 0.45 0.373 0.303 0.624 0.813 0.624 1.418s-0.191 1.119-0.538 1.466zM11.284 18.034c-0.671 0.547-1.679 0.786-2.889 0.752-0.713-0.020-1.213-0.080-1.55-0.136v-6.115c0.498-0.095 1.152-0.157 1.85-0.174 1.178-0.029 1.955 0.172 2.57 0.627 0.668 0.488 1.092 1.283 1.092 2.433 0 1.246-0.452 2.098-1.074 2.613zM13.333 12.297l4.178-0.1v1.256l-2.657 0.039v1.516l2.481-0.006v1.244l-2.481-0.017v2.669l-1.521-0.042v-6.559h0zM3.683 13.517c-0.259 0.004-0.434 0.033-0.526 0.062v1.782c0.108 0.027 0.241 0.036 0.426 0.036 0.682 0.001 1.107-0.372 1.107-0.997 0-0.563-0.366-0.893-1.007-0.883z"></path>
</svg>
