<!-- Generated by IcoMoon.io -->
<svg version="1.1" xmlns="http://www.w3.org/2000/svg" width="32" height="32" viewBox="0 0 32 32">
<title>report</title>
<path d="M26.138 0v28.74h-24.081v-28.74h24.081zM24.691 27.293v-25.844h-21.186v25.844h21.186zM6.031 6.186v-1.519h16.461v1.519h-16.461zM6.031 10.97v-1.517h16.461v1.517h-16.461zM27.129 3.257h2.814v28.743h-24.088v-2.455h1.45v1.004h21.188v-25.843h-1.364v-1.449zM6.646 20.711c-1.002 0-1.811-0.81-1.81-1.807 0-1 0.809-1.807 1.81-1.807 0.994-0.001 1.808 0.806 1.808 1.807 0 0.173-0.054 0.33-0.099 0.489 0.633 0.518 1.342 1.097 1.914 1.567 0.288-0.194 0.617-0.335 0.99-0.335 0.172 0 0.327 0.054 0.483 0.1 0.776-1.166 2.014-3.024 2.963-4.449-0.158-0.269-0.273-0.564-0.273-0.899 0-0.997 0.807-1.806 1.804-1.806s1.806 0.807 1.806 1.806c0 0.030-0.016 0.056-0.018 0.087l2.311 1.348c0.316-0.264 0.706-0.441 1.148-0.441 0.998 0 1.807 0.81 1.807 1.808s-0.809 1.808-1.807 1.808-1.808-0.809-1.808-1.808c0-0.026 0.014-0.045 0.015-0.071-0.761-0.443-1.644-0.958-2.323-1.355-0.312 0.255-0.695 0.428-1.129 0.428-0.124 0-0.233-0.047-0.35-0.071-0.761 1.141-2.028 3.044-3.021 4.533 0.118 0.242 0.2 0.503 0.2 0.79 0 0.998-0.81 1.808-1.808 1.808s-1.808-0.809-1.808-1.808c0-0.082 0.036-0.151 0.047-0.231l-2.065-1.689c-0.24 0.118-0.501 0.199-0.787 0.199z"></path>
</svg>
