<!-- Generated by IcoMoon.io -->
<svg version="1.1" xmlns="http://www.w3.org/2000/svg" width="32" height="32" viewBox="0 0 32 32">
<title>role</title>
<path d="M14.506 20.438c0 0.775-0.628 1.404-1.403 1.404-0.001 0-0.002 0-0.003 0h-7.111c-0.775 0-1.404-0.628-1.404-1.404 0-1.634 1.33-2.964 2.964-2.964h0.294c-0.718-0.526-1.187-1.373-1.187-2.329 0-1.593 1.296-2.888 2.888-2.888s2.888 1.296 2.888 2.888c0 0.956-0.469 1.803-1.187 2.329h0.294c1.593 0 2.896 1.263 2.961 2.841 0.004 0.041 0.005 0.082 0.005 0.123zM32 6.278v19.444c0 0.581-0.471 1.053-1.053 1.053h-29.895c-0.581 0-1.053-0.471-1.053-1.053v-19.444c0-0.581 0.471-1.053 1.053-1.053h29.895c0.581 0 1.053 0.471 1.053 1.053zM16.090 9.876c0-0.581-0.471-1.053-1.053-1.053h-10.987c-0.581 0-1.053 0.471-1.053 1.053v12.247c0 0.581 0.471 1.053 1.053 1.053h10.987c0.581 0 1.053-0.471 1.053-1.053v-12.247zM28.736 20.491c0-0.581-0.471-1.053-1.053-1.053h-7.519c-0.581 0-1.053 0.471-1.053 1.053s0.471 1.053 1.053 1.053h7.519c0.581 0 1.053-0.471 1.053-1.053zM28.736 16c0-0.581-0.471-1.053-1.053-1.053h-7.519c-0.581 0-1.053 0.471-1.053 1.053s0.471 1.053 1.053 1.053h7.519c0.581 0 1.053-0.471 1.053-1.053zM28.736 11.509c0-0.581-0.471-1.053-1.053-1.053h-7.519c-0.581 0-1.053 0.471-1.053 1.053s0.471 1.053 1.053 1.053h7.519c0.581 0 1.053-0.471 1.053-1.053z"></path>
</svg>
