<!-- Generated by IcoMoon.io -->
<svg version="1.1" xmlns="http://www.w3.org/2000/svg" width="32" height="32" viewBox="0 0 32 32">
<title>rss</title>
<path d="M26 0h-20c-3.314 0-6 2.686-6 6v20c0 3.314 2.686 6 6 6h20c3.314 0 6-2.686 6-6v-20c0-3.314-2.686-6-6-6zM8.63 25.954c-1.438 0-2.606-1.16-2.606-2.598 0-1.428 1.168-2.602 2.606-2.602 1.442 0 2.608 1.174 2.61 2.602 0 1.436-1.166 2.598-2.61 2.598zM15.178 25.976c0-2.458-0.954-4.762-2.682-6.486-1.728-1.732-4.026-2.688-6.468-2.688v-3.752c7.122 0 12.92 5.798 12.92 12.926h-3.77zM21.836 25.972c0-8.722-7.090-15.82-15.804-15.82v-3.752c10.788 0 19.568 8.784 19.568 19.572h-3.764z"></path>
</svg>
