<!-- Generated by IcoMoon.io -->
<svg version="1.1" xmlns="http://www.w3.org/2000/svg" width="32" height="32" viewBox="0 0 32 32">
<title>scissors</title>
<path d="M27.881 25.526c-0.408-1.954-1.93-3.533-3.879-4.024-1.333-0.335-2.673-0.166-3.848 0.475l-1.504-3.402 5.757-13.816c0.173-0.416 0.26-0.854 0.26-1.303 0-1.135-0.564-2.188-1.508-2.818l-0.789-0.526c-0.164-0.11-0.369-0.141-0.556-0.085-0.189 0.055-0.344 0.19-0.423 0.37l-5.391 12.188-5.391-12.188c-0.079-0.18-0.234-0.316-0.423-0.37-0.189-0.056-0.393-0.025-0.556 0.085l-0.789 0.526c-0.944 0.629-1.508 1.683-1.508 2.818 0 0.449 0.087 0.887 0.26 1.303l5.757 13.817-1.506 3.401c-0.775-0.423-1.63-0.644-2.512-0.644-2.941 0-5.333 2.393-5.333 5.333s2.392 5.333 5.333 5.333c2.941 0 5.333-2.393 5.333-5.333 0-1.972 0.645-3.414 1.332-4.399 0.668 0.956 1.292 2.325 1.332 4.209 0.063 2.949 2.283 5.372 5.052 5.516 0.096 0.005 0.191 0.007 0.285 0.007 1.564 0 3.027-0.671 4.051-1.865 1.086-1.267 1.509-2.948 1.161-4.609zM22.29 1.661l0.13 0.087c0.573 0.382 0.914 1.020 0.914 1.708 0 0.272-0.053 0.538-0.159 0.79l-5.27 12.646-1.176-2.659 5.56-12.572zM13.334 26.667c0 2.206-1.794 4-4 4s-4-1.794-4-4c0-2.206 1.794-4 4-4 0.862 0 1.693 0.285 2.404 0.824 0.161 0.122 0.371 0.163 0.569 0.115 0.197-0.051 0.361-0.189 0.443-0.376l1.311-2.962c0.056 0.124 0.146 0.232 0.262 0.303 0.039 0.024 0.37 0.246 0.789 0.645-0.883 1.161-1.777 2.953-1.777 5.452zM25.706 29.267c-0.814 0.952-2.016 1.46-3.253 1.394-2.077-0.107-3.741-1.958-3.789-4.213-0.089-4.229-2.71-6.365-3.46-6.891l-6.379-15.311c-0.105-0.252-0.159-0.518-0.159-0.79 0-0.688 0.341-1.327 0.914-1.708l0.13-0.087 9.539 21.568c0.082 0.186 0.245 0.325 0.443 0.376 0.194 0.052 0.406 0.008 0.569-0.114 0.993-0.752 2.207-1.003 3.414-0.697 1.435 0.361 2.6 1.568 2.9 3.004 0.262 1.254-0.055 2.518-0.87 3.469zM22.667 24c-1.47 0-2.667 1.196-2.667 2.667s1.197 2.667 2.667 2.667c1.47 0 2.667-1.196 2.667-2.667s-1.197-2.667-2.667-2.667zM22.667 28c-0.736 0-1.333-0.598-1.333-1.333s0.598-1.333 1.333-1.333 1.333 0.598 1.333 1.333c0 0.735-0.598 1.333-1.333 1.333zM9.334 24c-1.47 0-2.667 1.196-2.667 2.667s1.197 2.667 2.667 2.667c1.47 0 2.667-1.196 2.667-2.667s-1.197-2.667-2.667-2.667zM9.334 28c-0.736 0-1.333-0.598-1.333-1.333s0.598-1.333 1.333-1.333c0.736 0 1.333 0.598 1.333 1.333s-0.598 1.333-1.333 1.333zM16.667 18.667c0 0.368-0.298 0.667-0.667 0.667s-0.667-0.298-0.667-0.667c0-0.368 0.298-0.667 0.667-0.667s0.667 0.298 0.667 0.667z"></path>
</svg>
