<!-- Generated by IcoMoon.io -->
<svg version="1.1" xmlns="http://www.w3.org/2000/svg" width="32" height="32" viewBox="0 0 32 32">
<title>settings3</title>
<path d="M2.101 11.724c0.168 0.577 0.402 1.133 0.697 1.655l-0.841 1.061c-0.275 0.347-0.244 0.841 0.065 1.153l1.449 1.449c0.312 0.312 0.807 0.34 1.153 0.065l1.054-0.834c0.542 0.312 1.119 0.556 1.72 0.728l0.158 1.356c0.051 0.439 0.422 0.769 0.862 0.769h2.049c0.439 0 0.81-0.33 0.862-0.769l0.151-1.308c0.645-0.168 1.263-0.419 1.843-0.745l1.020 0.807c0.347 0.275 0.841 0.244 1.153-0.065l1.449-1.449c0.312-0.312 0.34-0.807 0.065-1.153l-0.793-1.006c0.33-0.57 0.587-1.177 0.759-1.813l1.222-0.141c0.439-0.052 0.769-0.422 0.769-0.862v-2.049c0-0.439-0.33-0.81-0.769-0.862l-1.205-0.141c-0.165-0.628-0.412-1.229-0.728-1.792l0.741-0.937c0.275-0.347 0.244-0.841-0.065-1.153l-1.445-1.445c-0.312-0.312-0.807-0.34-1.153-0.065l-0.91 0.721c-0.59-0.347-1.222-0.611-1.885-0.79l-0.137-1.177c-0.052-0.439-0.422-0.769-0.862-0.769h-2.049c-0.439 0-0.81 0.33-0.862 0.769l-0.137 1.177c-0.68 0.182-1.329 0.457-1.933 0.817l-0.944-0.748c-0.347-0.275-0.841-0.244-1.153 0.065l-1.449 1.449c-0.312 0.312-0.34 0.807-0.065 1.153l0.79 0.999c-0.316 0.57-0.556 1.177-0.714 1.809l-1.263 0.144c-0.439 0.051-0.769 0.422-0.769 0.862v2.049c0 0.439 0.33 0.81 0.769 0.862l1.332 0.155zM9.526 6.18c1.867 0 3.388 1.521 3.388 3.388s-1.521 3.388-3.388 3.388c-1.867 0-3.388-1.521-3.388-3.388s1.521-3.388 3.388-3.388zM29.787 12.229l-1.081-0.913c-0.333-0.281-0.824-0.268-1.14 0.031l-0.597 0.56c-0.505-0.244-1.040-0.415-1.593-0.515l-0.168-0.824c-0.086-0.426-0.481-0.721-0.913-0.687l-1.411 0.12c-0.433 0.038-0.772 0.391-0.786 0.827l-0.027 0.838c-0.542 0.196-1.054 0.463-1.521 0.8l-0.714-0.474c-0.364-0.24-0.848-0.172-1.129 0.161l-0.913 1.088c-0.282 0.333-0.268 0.824 0.031 1.14l0.625 0.666c-0.216 0.487-0.371 0.999-0.46 1.524l-0.893 0.182c-0.426 0.086-0.721 0.481-0.687 0.913l0.12 1.411c0.038 0.433 0.391 0.772 0.827 0.786l0.965 0.031c0.175 0.46 0.405 0.896 0.683 1.304l-0.539 0.814c-0.24 0.364-0.172 0.848 0.161 1.129l1.081 0.913c0.333 0.282 0.824 0.268 1.14-0.031l0.707-0.663c0.463 0.216 0.951 0.378 1.452 0.474l0.196 0.968c0.086 0.426 0.481 0.721 0.913 0.687l1.411-0.12c0.433-0.038 0.772-0.391 0.786-0.827l0.031-0.948c0.515-0.182 1.002-0.429 1.452-0.735l0.779 0.515c0.364 0.24 0.848 0.172 1.129-0.161l0.913-1.081c0.281-0.333 0.268-0.824-0.031-1.14l-0.628-0.666c0.23-0.487 0.398-1.002 0.494-1.531l0.858-0.175c0.426-0.086 0.721-0.481 0.687-0.913l-0.12-1.411c-0.038-0.433-0.391-0.772-0.827-0.786l-0.862-0.027c-0.179-0.501-0.419-0.975-0.717-1.414l0.47-0.707c0.247-0.364 0.179-0.851-0.154-1.133zM24.469 20.385c-1.524 0.13-2.87-1.006-2.997-2.53-0.13-1.524 1.006-2.87 2.53-2.997 1.524-0.13 2.87 1.006 2.997 2.53 0.13 1.524-1.006 2.87-2.53 2.997zM7.037 24.182c-0.433 0.045-0.766 0.408-0.769 0.844l-0.010 0.869c-0.007 0.436 0.316 0.807 0.748 0.862l0.638 0.082c0.106 0.388 0.257 0.759 0.453 1.109l-0.412 0.508c-0.275 0.34-0.254 0.827 0.051 1.14l0.608 0.621c0.306 0.312 0.793 0.347 1.14 0.079l0.511-0.395c0.36 0.213 0.742 0.381 1.14 0.498l0.069 0.659c0.045 0.433 0.409 0.766 0.844 0.769l0.869 0.010c0.436 0.007 0.807-0.316 0.862-0.748l0.079-0.625c0.433-0.106 0.845-0.268 1.236-0.481l0.481 0.388c0.34 0.275 0.827 0.254 1.14-0.052l0.621-0.608c0.312-0.305 0.347-0.793 0.079-1.14l-0.367-0.477c0.227-0.378 0.402-0.779 0.522-1.201l0.57-0.058c0.433-0.045 0.765-0.409 0.769-0.844l0.010-0.869c0.007-0.436-0.316-0.807-0.748-0.862l-0.556-0.072c-0.106-0.419-0.264-0.824-0.47-1.201l0.347-0.426c0.275-0.34 0.254-0.827-0.052-1.14l-0.608-0.621c-0.306-0.312-0.793-0.347-1.14-0.079l-0.415 0.319c-0.391-0.237-0.81-0.419-1.249-0.542l-0.055-0.539c-0.045-0.433-0.408-0.766-0.844-0.769l-0.868-0.010c-0.436-0.007-0.807 0.316-0.862 0.748l-0.069 0.536c-0.453 0.117-0.889 0.295-1.294 0.529l-0.429-0.35c-0.34-0.275-0.827-0.254-1.14 0.052l-0.625 0.611c-0.312 0.305-0.347 0.793-0.079 1.14l0.367 0.474c-0.213 0.378-0.381 0.779-0.491 1.201l-0.601 0.062zM12.643 23.2c1.246 0.014 2.245 1.040 2.231 2.286s-1.040 2.245-2.286 2.231-2.245-1.040-2.231-2.286c0.014-1.246 1.040-2.245 2.286-2.231z"></path>
</svg>
