<!-- Generated by IcoMoon.io -->
<svg version="1.1" xmlns="http://www.w3.org/2000/svg" width="32" height="32" viewBox="0 0 32 32">
<title>shield2</title>
<path d="M29.203 2.973c-0.051-0.341-0.313-0.612-0.652-0.674l-12.404-2.286c-0.097-0.018-0.196-0.018-0.293 0l-12.404 2.286c-0.339 0.062-0.601 0.333-0.652 0.674-0.053 0.35-1.267 8.667 1.173 15.861 2.469 7.28 11.23 12.812 11.602 13.044 0.131 0.082 0.279 0.122 0.428 0.122s0.297-0.041 0.428-0.122c0.372-0.232 9.133-5.763 11.602-13.044 2.44-7.194 1.226-15.51 1.173-15.861zM16 15.744h-10.31c-1.213-5.399-0.368-10.893-0.368-10.893l10.678-1.929v12.822zM25.697 17.917c-2.070 5.985-9.697 10.649-9.697 10.649v-12.822h10.31c-0.164 0.731-0.366 1.46-0.612 2.173z"></path>
</svg>
