<!-- Generated by IcoMoon.io -->
<svg version="1.1" xmlns="http://www.w3.org/2000/svg" width="32" height="32" viewBox="0 0 32 32">
<title>shield</title>
<path d="M29.203 2.973c0.053 0.351 1.267 8.667-1.173 15.861-2.469 7.28-11.23 12.812-11.602 13.044-0.131 0.082-0.279 0.122-0.428 0.122s-0.297-0.041-0.428-0.122c-0.372-0.232-9.133-5.763-11.602-13.044-2.44-7.194-1.226-15.51-1.173-15.861 0.051-0.341 0.313-0.612 0.652-0.674l12.404-2.286c0.097-0.018 0.196-0.018 0.293 0l12.404 2.286c0.339 0.062 0.601 0.333 0.652 0.674zM16 15.744v-12.822l-10.678 1.929s-0.845 5.494 0.368 10.893h10.31zM25.697 17.917c0.247-0.713 0.448-1.442 0.612-2.173h-10.31v12.822s7.627-4.665 9.697-10.649z"></path>
</svg>
