<!-- Generated by IcoMoon.io -->
<svg version="1.1" xmlns="http://www.w3.org/2000/svg" width="32" height="32" viewBox="0 0 32 32">
<title>sign</title>
<path d="M17.837 5.697h-10.909c-0.803 0-1.455 0.652-1.455 1.454s0.652 1.454 1.455 1.454h10.909c0.805 0 1.455-0.652 1.455-1.454s-0.651-1.454-1.455-1.454zM19.291 12.606c0-0.803-0.65-1.454-1.455-1.454h-10.908c-0.803 0-1.455 0.652-1.455 1.454s0.652 1.455 1.455 1.455h10.909c0.804 0 1.454-0.652 1.454-1.455zM12.383 19.515c0.803 0 1.454-0.652 1.454-1.454s-0.651-1.455-1.454-1.455h-5.455c-0.803 0-1.455 0.652-1.455 1.455s0.652 1.454 1.455 1.454h5.455zM23.363 24.463l-1.526 1.007v3.621h-18.909v-26.181h18.909v5.748l2.909-5.039v-2.164c0-0.803-0.652-1.454-1.455-1.454h-21.818c-0.803 0-1.454 0.652-1.454 1.454v29.092c0 0.803 0.651 1.454 1.454 1.454h21.818c0.804 0 1.456-0.652 1.456-1.454v-8.017l-0.695 1.202c-0.17 0.293-0.408 0.546-0.689 0.731zM31.964 6.736c-0.030-0.131-0.337-1.306-2.188-2.375s-3.022-0.747-3.151-0.707c-0.174 0.055-0.32 0.172-0.411 0.33l-9.091 15.745c-0.056 0.099-0.090 0.208-0.097 0.321l-0.34 5.682c-0.016 0.275 0.124 0.535 0.362 0.673 0.24 0.138 0.534 0.128 0.765-0.022l4.75-3.136c0.095-0.061 0.173-0.145 0.229-0.242l9.091-15.748c0.091-0.158 0.119-0.343 0.080-0.522zM19.645 23.867c-0.242-0.195-0.516-0.38-0.811-0.551-0.296-0.171-0.593-0.315-0.883-0.428l0.101-1.703c0.379 0.050 0.942 0.204 1.656 0.615s1.127 0.823 1.361 1.126l-1.424 0.941zM10.16 26.236c0.048 0.292 0.385 0.383 0.61 0.477 0.218 0.092 0.478-0.082 0.659-0.17 1.11-0.54 2.613 0.095 3.802 0.095 0.703 0 0.703-1.091 0-1.091-1.386 0-2.54-0.351-3.914-0.124 0-0.080-0.029-0.187-0.115-0.334-0.257-0.439-0.584-0.564-0.911-0.511-0.022-0.052-0.043-0.104-0.074-0.156-0.086-0.14-0.206-0.21-0.34-0.24 0.383-0.67 0.63-1.379 0.379-1.952-0.077-0.174-0.296-0.264-0.471-0.27-0.729-0.027-1.354 0.737-1.822 1.196-1.172 1.149-2.204 2.452-3.203 3.75-0.429 0.558 0.519 1.1 0.942 0.552 0.885-1.149 1.823-2.265 2.832-3.309-0.243 0.399-0.501 0.79-0.773 1.168-0.388 0.6 0.539 1.11 0.942 0.551 0.096-0.146 0.218-0.252 0.351-0.342-0.027 0.067-0.054 0.133-0.081 0.202 0.001 0 0.003 0.001 0.004 0.001-0.021 0.044-0.042 0.087-0.059 0.129-0.244 0.611 0.667 0.891 0.997 0.419 0.084-0.118 0.161-0.245 0.232-0.378-0.005 0.091-0.007 0.214 0.013 0.338z"></path>
</svg>
