<!-- Generated by IcoMoon.io -->
<svg version="1.1" xmlns="http://www.w3.org/2000/svg" width="32" height="32" viewBox="0 0 32 32">
<title>skull</title>
<path d="M27.27 4.668c-3.010-3.010-7.012-4.668-11.27-4.668s-8.259 1.658-11.27 4.668c-3.010 3.010-4.668 7.012-4.668 11.27v12.625c0 1.895 1.542 3.438 3.438 3.438h25c1.895 0 3.438-1.542 3.438-3.438v-12.625c0-4.257-1.658-8.259-4.668-11.27zM30.063 28.563c0 0.862-0.701 1.563-1.563 1.563h-25c-0.862 0-1.563-0.701-1.563-1.563v-12.625c0-7.754 6.308-14.063 14.063-14.063s14.063 6.308 14.063 14.063z"></path>
<path d="M16 3.75c-6.72 0-12.188 5.467-12.188 12.188v4.375c0 1.551 1.262 2.813 2.813 2.813h0.313v1.688c0 1.895 1.542 3.438 3.438 3.438h11.25c1.895 0 3.438-1.542 3.438-3.438v-1.688h0.313c1.551 0 2.813-1.262 2.813-2.813v-4.375c0-6.72-5.467-12.188-12.188-12.188zM26.313 20.313c0 0.517-0.421 0.938-0.938 0.938h-1.25c-0.518 0-0.938 0.42-0.938 0.938v2.625c0 0.862-0.701 1.563-1.563 1.563h-0.938v-1.563c0-0.518-0.42-0.938-0.938-0.938s-0.938 0.42-0.938 0.938v1.563h-1.875v-1.563c0-0.518-0.42-0.938-0.938-0.938s-0.938 0.42-0.938 0.938v1.563h-1.875v-1.563c0-0.518-0.42-0.938-0.938-0.938s-0.938 0.42-0.938 0.938v1.563h-0.938c-0.862 0-1.563-0.701-1.563-1.563v-2.625c0-0.518-0.42-0.938-0.938-0.938h-1.25c-0.517 0-0.938-0.421-0.938-0.938v-4.375c0-5.686 4.626-10.313 10.313-10.313s10.313 4.626 10.313 10.313z"></path>
<path d="M16.663 18.65c-0.366-0.366-0.96-0.366-1.326 0l-1.875 1.875c-0.366 0.366-0.366 0.96 0 1.326s0.96 0.366 1.326 0l1.212-1.212 1.212 1.212c0.183 0.183 0.423 0.275 0.663 0.275s0.48-0.091 0.663-0.275c0.366-0.366 0.366-0.96 0-1.326z"></path>
<path d="M17.514 14.626l-0.477 0.955c-0.127 0.254-0.132 0.553-0.013 0.811s0.349 0.449 0.624 0.518l5 1.25c0.075 0.019 0.151 0.028 0.227 0.028 0.207 0 0.41-0.069 0.577-0.199 0.228-0.178 0.361-0.45 0.361-0.739v-5c0-0.518-0.42-0.938-0.938-0.938-2.285 0-4.339 1.27-5.361 3.313zM21.938 16.049l-2.7-0.675c0.567-1.069 1.552-1.816 2.7-2.081z"></path>
<path d="M14.977 16.392c0.119-0.258 0.114-0.557-0.013-0.811l-0.477-0.955c-1.022-2.044-3.076-3.313-5.361-3.313-0.518 0-0.938 0.42-0.938 0.938v5c0 0.289 0.133 0.561 0.361 0.739 0.166 0.13 0.37 0.199 0.577 0.199 0.076 0 0.152-0.009 0.227-0.028l5-1.25c0.276-0.069 0.506-0.259 0.624-0.518zM10.063 16.049v-2.756c1.148 0.265 2.133 1.011 2.7 2.081z"></path>
</svg>
