<!-- Generated by IcoMoon.io -->
<svg version="1.1" xmlns="http://www.w3.org/2000/svg" width="32" height="32" viewBox="0 0 32 32">
<title>sortupdown</title>
<path d="M5.818 13.091h20.363c0.394 0 0.735-0.144 1.023-0.432s0.432-0.629 0.432-1.023-0.144-0.735-0.432-1.023l-10.182-10.182c-0.288-0.288-0.628-0.432-1.023-0.432s-0.735 0.144-1.023 0.432l-10.182 10.182c-0.288 0.288-0.432 0.629-0.432 1.023s0.144 0.735 0.432 1.023c0.288 0.288 0.629 0.432 1.023 0.432zM26.182 18.909h-20.363c-0.394 0-0.735 0.144-1.023 0.432s-0.432 0.629-0.432 1.023 0.144 0.735 0.432 1.023l10.182 10.182c0.288 0.288 0.629 0.432 1.023 0.432s0.735-0.144 1.023-0.432l10.182-10.182c0.288-0.288 0.432-0.629 0.432-1.023s-0.144-0.735-0.432-1.023c-0.288-0.288-0.629-0.431-1.023-0.431z"></path>
</svg>
