<!-- Generated by IcoMoon.io -->
<svg version="1.1" xmlns="http://www.w3.org/2000/svg" width="32" height="32" viewBox="0 0 32 32">
<title>sortdesc</title>
<path d="M20.957 20.822c0.116 0.154 0.116 0.366-0.003 0.519l-8.066 10.492c-0.081 0.105-0.207 0.167-0.34 0.167s-0.258-0.062-0.339-0.167l-8.066-10.493c-0.060-0.077-0.089-0.169-0.089-0.261 0-0.089 0.029-0.181 0.086-0.258 0.116-0.152 0.321-0.21 0.5-0.14l5.341 2.11v-22.364c0-0.236 0.192-0.427 0.428-0.427h4.281c0.236 0 0.428 0.191 0.428 0.427v22.363l5.341-2.11c0.179-0.069 0.383-0.012 0.499 0.14zM18.073 2.602v2.468h9.872v-2.468h-9.872z"></path>
</svg>
