<!-- Generated by IcoMoon.io -->
<svg version="1.1" xmlns="http://www.w3.org/2000/svg" width="32" height="32" viewBox="0 0 32 32">
<title>sortasc</title>
<path d="M20.458 11.318l-5.341-2.11v22.364c0 0.236-0.192 0.427-0.428 0.427h-4.281c-0.236 0-0.428-0.191-0.428-0.427v-22.364l-5.341 2.11c-0.179 0.070-0.383 0.013-0.5-0.14-0.057-0.077-0.086-0.169-0.086-0.258 0-0.091 0.030-0.184 0.089-0.261l8.066-10.492c0.081-0.105 0.207-0.167 0.339-0.167s0.259 0.062 0.34 0.167l8.066 10.492c0.118 0.153 0.119 0.364 0.003 0.519-0.116 0.153-0.32 0.21-0.499 0.14zM27.946 25.755h-3.702v-3.702h-2.468v3.702h-3.702v2.468h3.702v3.702h2.468v-3.702h3.702v-2.468z"></path>
</svg>
