<!-- Generated by IcoMoon.io -->
<svg version="1.1" xmlns="http://www.w3.org/2000/svg" width="32" height="32" viewBox="0 0 32 32">
<title>table</title>
<path d="M30.31 1.014h-28.62c-0.933 0-1.69 0.756-1.69 1.69v26.591c0 0.934 0.757 1.69 1.69 1.69h28.62c0.933 0 1.69-0.756 1.69-1.69v-26.591c0-0.934-0.757-1.69-1.69-1.69zM6.028 28.958h-4.676v-3.972h4.676v3.972zM6.028 23.972h-4.676v-5.070h4.676v5.070zM6.028 17.887h-4.676v-4.732h4.676v4.732zM6.028 12.141h-4.676v-4.141h4.676v4.141zM12.62 28.958h-5.578v-3.972h5.578v3.972zM12.62 23.972h-5.578v-5.070h5.578v5.070zM12.62 17.887h-5.578v-4.732h5.578v4.732zM12.62 12.141h-5.578v-4.141h5.578v4.141zM18.705 28.958h-5.071v-3.972h5.071v3.972zM18.705 23.972h-5.071v-5.070h5.071v5.070zM18.705 17.887h-5.071v-4.732h5.071v4.732zM18.705 12.141h-5.071v-4.141h5.071v4.141zM24.45 28.958h-4.732v-3.972h4.732v3.972zM24.45 23.972h-4.732v-5.070h4.732v5.070zM24.45 17.887h-4.732v-4.732h4.732v4.732zM24.45 12.141h-4.732v-4.141h4.732v4.141zM30.648 28.958h-5.184v-3.972h5.183v3.972h0.001zM30.648 23.972h-5.184v-5.070h5.183v5.070h0.001zM30.648 17.887h-5.184v-4.732h5.183v4.732h0.001zM30.648 12.141h-5.184v-4.141h5.183v4.141h0.001z"></path>
</svg>
