<!-- Generated by IcoMoon.io -->
<svg version="1.1" xmlns="http://www.w3.org/2000/svg" width="32" height="32" viewBox="0 0 32 32">
<title>tables</title>
<path d="M23.861 8.101h-22.53c-0.735 0-1.331 0.595-1.331 1.331v20.933c0 0.735 0.596 1.331 1.331 1.331h22.53c0.735 0 1.33-0.596 1.33-1.331v-20.933c0.001-0.735-0.595-1.331-1.33-1.331zM4.746 30.099h-3.681v-3.127h3.681v3.127zM4.746 26.172h-3.681v-3.992h3.681v3.992zM4.746 21.383h-3.681v-3.726h3.681v3.726zM4.746 16.859h-3.681v-3.259h3.681v3.259zM9.935 30.099h-4.391v-3.127h4.39v3.127h0zM9.935 26.172h-4.391v-3.992h4.39v3.992h0zM9.935 21.383h-4.391v-3.726h4.39v3.726h0zM9.935 16.859h-4.391v-3.259h4.39v3.259h0zM14.725 30.099h-3.992v-3.127h3.992v3.127zM14.725 26.172h-3.992v-3.992h3.992v3.992zM14.725 21.383h-3.992v-3.726h3.992v3.726zM14.725 16.859h-3.992v-3.259h3.992v3.259zM19.248 30.099h-3.726v-3.127h3.726v3.127zM19.248 26.172h-3.726v-3.992h3.726v3.992zM19.248 21.383h-3.726v-3.726h3.726v3.726zM19.248 16.859h-3.726v-3.259h3.726v3.259zM24.127 30.099h-4.080v-3.127h4.080v3.127zM24.127 26.172h-4.080v-3.992h4.080v3.992zM24.127 21.383h-4.080v-3.726h4.080v3.726zM24.127 16.859h-4.080v-3.259h4.080v3.259zM30.669 0.305h-22.53c-0.735 0-1.33 0.595-1.33 1.331v5.733h1.065v-1.564h3.681v1.564h0.799v-1.564h4.39v1.564h0.799v-1.564h3.992v1.564h0.798v-1.564h3.726v3.26h-0.149c0.068 0.221 0.105 0.456 0.105 0.699v0.099h0.044v3.726h-0.044v0.798h0.044v3.992h-0.044v0.798h0.044v3.127h-0.044v1.596h4.657c0.735 0 1.33-0.596 1.33-1.33v-20.933c-0.001-0.735-0.596-1.331-1.331-1.331zM30.935 22.303h-4.080v-3.127h4.080v3.127h0zM30.935 18.378h-4.080v-3.992h4.080v3.992h0zM30.935 13.588h-4.080v-3.726h4.080v3.726h0zM30.935 9.064h-4.080v-3.26h4.080v3.26h0z"></path>
</svg>
