<!-- Generated by IcoMoon.io -->
<svg version="1.1" xmlns="http://www.w3.org/2000/svg" width="32" height="32" viewBox="0 0 32 32">
<title>themes</title>
<path fill="#6e6e6e" d="M20.669 9.469l1.945 1.945c0.076 0.078 0.123 0.184 0.123 0.302s-0.047 0.224-0.123 0.302l-3.125 3.125c-0.025 0.025-0.053 0.046-0.084 0.064l-0.002 0.001 2.589 2.589c0.091 0.094 0.146 0.221 0.146 0.362s-0.056 0.268-0.146 0.362l0-0-0.521 0.521c-0.094 0.091-0.221 0.146-0.362 0.146s-0.268-0.056-0.362-0.146l0 0-7.846-7.867c-0.091-0.094-0.148-0.222-0.148-0.363s0.056-0.27 0.148-0.363l0.521-0.521c0.094-0.091 0.221-0.146 0.362-0.146s0.268 0.056 0.362 0.146l-0-0 2.732 2.75c0.020-0.033 0.042-0.061 0.068-0.086l3.125-3.125c0.078-0.076 0.184-0.123 0.302-0.123s0.224 0.047 0.302 0.123l-0-0zM19.94 19.154l-3.706 4.852-1.609-1.609 1.216-2.701-1.958 1.958-1.672-1.672 1.216-2.701-1.956 1.958-1.523-1.531 1.958-1.958-2.701 1.227-1.174-1.174 4.852-3.706 7.057 7.057zM20.547 10.495l1.042 1.042c0.054 0.054 0.087 0.129 0.087 0.211s-0.033 0.157-0.087 0.211l-0.302 0.302c-0.054 0.053-0.129 0.086-0.211 0.086s-0.157-0.033-0.211-0.086l-1.042-1.042c-0.054-0.054-0.087-0.129-0.087-0.211s0.033-0.157 0.087-0.211l0.302-0.302c0.053-0.054 0.128-0.088 0.21-0.088s0.156 0.034 0.21 0.088l0 0z"></path>
<path fill="#fb434c" d="M32 3.458v2.367c-0.001 0.414-0.336 0.75-0.75 0.753h-30.498c-0.415-0.001-0.751-0.338-0.753-0.752v-2.367c0.001-0.415 0.338-0.751 0.752-0.753h30.498c0.415 0.001 0.751 0.338 0.753 0.752v0z"></path>
<path fill="#33a867" d="M32 26.414v2.367c-0.001 0.415-0.338 0.751-0.752 0.753h-30.495c-0.415-0.001-0.751-0.338-0.753-0.752v-2.367c0.001-0.415 0.338-0.751 0.752-0.753h30.498c0.415 0.001 0.751 0.338 0.753 0.752v0z"></path>
<path fill="#47bcff" d="M3.125 0h2.37c0 0 0 0 0 0 0.416 0 0.754 0.337 0.755 0.752v30.498c-0.001 0.415-0.338 0.751-0.752 0.753h-2.373c-0.002 0-0.003 0-0.005 0-0.416 0-0.754-0.337-0.755-0.752v-30.498c0.001-0.416 0.339-0.753 0.755-0.753 0.002 0 0.004 0 0.006 0h-0z"></path>
<path fill="#fdba21" d="M26.516 0h2.37c0.415 0.001 0.751 0.338 0.753 0.752v30.498c-0.001 0.415-0.338 0.751-0.752 0.753h-2.37c-0.415-0.001-0.751-0.338-0.753-0.752v-30.498c0.001-0.415 0.338-0.751 0.752-0.753h0z"></path>
</svg>
