<!-- Generated by IcoMoon.io -->
<svg version="1.1" xmlns="http://www.w3.org/2000/svg" width="32" height="32" viewBox="0 0 32 32">
<title>tools</title>
<path d="M30.128 26.949l-10.312-10.313c-0.097-0.097-0.2-0.183-0.306-0.264l1.826-1.923c0.093-0.094 0.182-0.193 0.263-0.295 2.425 0.915 5.27 0.4 7.219-1.548 1.422-1.422 2.138-3.388 1.965-5.395-0.019-0.227-0.169-0.423-0.383-0.501s-0.455-0.025-0.616 0.136l-3.305 3.305-3.346-0.844-0.949-3.452 3.304-3.304c0.162-0.162 0.215-0.402 0.137-0.616s-0.274-0.364-0.502-0.384c-2.007-0.173-3.973 0.544-5.395 1.966-1.947 1.947-2.463 4.791-1.549 7.215-0.099 0.084-0.198 0.173-0.295 0.269l-2.688 2.582-4.936-4.936c-0.062-0.062-0.127-0.116-0.195-0.167 0.058-0.102 0.114-0.206 0.167-0.315 1.043 0.201 2.949-1.83 4.567-3.448l-4.716-4.716c-2.109 2.109-3.649 3.524-3.449 4.567-0.482 0.236-0.912 0.524-1.217 0.829l-0.664 0.664c-0.431 0.432-0.691 0.969-0.784 1.529-0.064 0.074-0.13 0.151-0.195 0.234l-0.248 0.311c-0.007 0.008-0.028 0.038-0.034 0.046l-0.224 0.314c-0.14 0.187-0.263 0.391-0.382 0.587-0.044 0.073-0.088 0.146-0.134 0.219-0.007 0.013-0.014 0.025-0.021 0.037l-0.1 0.188c-0.12 0.226-0.246 0.46-0.353 0.717l-0.017 0.041c-0.126 0.3-0.257 0.61-0.348 0.939l-0.044 0.142c-0.036 0.117-0.073 0.234-0.107 0.373l-0.092 0.454c-0.068 0.284-0.091 0.564-0.111 0.812l-0.013 0.163c-0.034 0.257-0.024 0.5-0.015 0.713 0.003 0.072 0.006 0.142 0.008 0.237 0.002 0.039 0.003 0.078 0.004 0.116 0.002 0.096 0.005 0.204 0.023 0.318l0.058 0.368c0.012 0.071 0.023 0.14 0.033 0.207 0.022 0.15 0.045 0.304 0.089 0.451l0.241 0.837c0.074 0.254 0.316 0.423 0.58 0.404 0.14-0.010 0.266-0.070 0.359-0.164 0.084-0.084 0.142-0.194 0.159-0.318l0.125-0.851c0.009-0.068 0.038-0.166 0.068-0.271 0.021-0.073 0.042-0.147 0.058-0.21l0.089-0.318c0.011-0.043 0.032-0.085 0.050-0.128 0.018-0.040 0.035-0.081 0.051-0.121 0.030-0.068 0.058-0.135 0.086-0.204 0.055-0.136 0.107-0.264 0.186-0.389 0.034-0.058 0.066-0.115 0.099-0.174 0.082-0.148 0.161-0.287 0.254-0.402 0.006-0.007 0.011-0.014 0.017-0.023l0.21-0.289c0.043-0.054 0.091-0.106 0.138-0.158 0.033-0.037 0.067-0.073 0.109-0.122 0.124-0.149 0.269-0.279 0.41-0.407l0.075-0.068c0.104-0.097 0.224-0.187 0.351-0.284 0.052-0.039 0.103-0.077 0.152-0.115 0.064-0.041 0.126-0.083 0.187-0.124 0.114-0.077 0.213-0.144 0.327-0.203l0.249-0.142 0.252-0.123c0.088-0.045 0.174-0.080 0.254-0.112 0.047-0.020 0.094-0.039 0.137-0.058 0.044-0.015 0.087-0.032 0.127-0.047 0.054-0.020 0.101-0.039 0.164-0.055l0.068-0.015c0.074 0.12 0.161 0.234 0.265 0.338l4.883 4.883-10.424 10.013c-0.004 0.004-0.008 0.008-0.012 0.012-1.297 1.297-1.508 3.197-0.211 4.495s3.076 0.965 4.373-0.332c0.006-0.006 0.011-0.011 0.016-0.017l9.196-9.683c0.054 0.064 0.107 0.128 0.167 0.188l10.311 10.312c1.155 1.156 3.030 1.156 4.185 0s1.155-3.029 0-4.184zM4.907 29.263c-0.478 0.478-1.252 0.478-1.73 0s-0.478-1.252 0-1.73c0.478-0.477 1.252-0.478 1.73 0s0.477 1.252 0 1.73z"></path>
</svg>
