<!-- Generated by IcoMoon.io -->
<svg version="1.1" xmlns="http://www.w3.org/2000/svg" width="32" height="32" viewBox="0 0 32 32">
<title>unlock</title>
<path d="M23.591 0.031c-4.359 0-7.909 3.547-7.909 7.909v5.875h-12.122c-1.628 0-2.947 1.319-2.947 2.95v12.35c0 1.628 1.319 2.95 2.947 2.95h16.756c1.628 0 2.947-1.319 2.947-2.947v-12.353c0-1.628-1.319-2.95-2.947-2.95v0h-0.319v-5.875c0-1.981 1.613-3.597 3.597-3.597 1.981 0 3.597 1.612 3.597 3.597v0.447c0 1.191 0.966 2.156 2.156 2.156s2.156-0.966 2.156-2.156v-0.447c0-4.362-3.55-7.909-7.912-7.909zM13.556 23.178v2.141c0 0.894-0.725 1.619-1.619 1.619s-1.619-0.725-1.619-1.619v-2.144c-0.706-0.506-1.169-1.328-1.169-2.262 0-1.538 1.247-2.788 2.787-2.788 1.537 0 2.787 1.247 2.787 2.788 0 0.938-0.466 1.759-1.169 2.266z"></path>
</svg>
