<!-- Generated by IcoMoon.io -->
<svg version="1.1" xmlns="http://www.w3.org/2000/svg" width="32" height="32" viewBox="0 0 32 32">
<title>upload</title>
<path d="M27.18 20.393v7.31h-22.364v-7.31h-4.295v9.459c0 1.186 0.961 2.148 2.148 2.148h26.656c1.19 0 2.152-0.961 2.152-2.148v-9.459h-4.298zM15.604 0.285l-6.151 7.432c0 0-0.934 0.882 0.079 0.882 1.015 0 3.465 0 3.465 0s0 0.599 0 1.509c0 2.621 0 7.378 0 9.318 0 0-0.14 0.525 0.659 0.525 0.801 0 4.309 0 4.878 0 0.573 0 0.556-0.442 0.556-0.442 0-1.885 0-6.805 0-9.332 0-0.822 0-1.359 0-1.359s1.971 0 3.205 0 0.304-0.919 0.304-0.919-5.235-6.947-5.965-7.681c-0.525-0.528-1.030 0.066-1.030 0.066z"></path>
</svg>
