<!-- Generated by IcoMoon.io -->
<svg version="1.1" xmlns="http://www.w3.org/2000/svg" width="32" height="32" viewBox="0 0 32 32">
<title>userman</title>
<path d="M22.487 13.785c0.848-0.181 1.631-0.883 1.758-2.438 0.105-1.273-0.221-1.928-0.703-2.263 1.338-5.453-2.352-6.521-2.352-6.521s-2.758-4.679-8.138-1.395c-0.684 0.417-1.748 1.217-2.382 2.043-1.018 1.083-1.711 2.843-1.819 5.694-0.657 0.251-1.173 0.885-1.045 2.441 0.135 1.626 0.983 2.318 1.875 2.459 1.205 2.934 3.584 5.352 6.399 5.352 2.822 0 5.205-2.429 6.408-5.373zM16.079 17.79c-3.255 0-5.876-4.42-5.876-8.080 0-0.502 0.016-0.967 0.047-1.398 4.761 0.208 7.577-1.701 9.11-3.357 1.454 1.449 2.209 3.278 2.595 4.637 0 0.039 0.001 0.078 0.001 0.118 0.001 3.661-2.62 8.081-5.876 8.081zM14.214 23.324l0.377-1.56c0.043-0.18 0.137-0.334 0.263-0.453-0.039-0.027-0.076-0.056-0.113-0.086l-3.367-2.787-2.049 0.479c-3.47 0.816-5.914 3.746-5.914 7.107v4.413c0 0.869 0.773 1.561 1.697 1.561h8.673l1.323-7.539c-0.594-0.008-1.029-0.556-0.889-1.136zM22.71 18.918l-2.021-0.479-3.363 2.787c-0.037 0.030-0.074 0.059-0.112 0.086 0.127 0.118 0.22 0.273 0.264 0.453l0.376 1.56c0.141 0.579-0.294 1.128-0.889 1.137l1.323 7.539h8.673c0.925 0 1.628-0.692 1.628-1.561v-4.413c0.001-3.362-2.409-6.292-5.879-7.108z"></path>
</svg>
