<!-- Generated by IcoMoon.io -->
<svg version="1.1" xmlns="http://www.w3.org/2000/svg" width="32" height="32" viewBox="0 0 32 32">
<title>userwoman</title>
<path d="M29.002 29.152c0.225 1.324-0.666 2.579-1.99 2.803-0.138 0.024-0.275 0.035-0.41 0.035l-21.205 0.010c-0.135 0-0.272-0.011-0.41-0.035-1.324-0.225-2.214-1.48-1.989-2.804 0.043-0.25 0.087-0.501 0.132-0.752 0.526-2.866 1.369-7.458 4.663-9.896-0.236-1.598-0.365-4.092-0.365-7.79 0-3.433 1.293-6.473 3.292-8.437 0 0 2.052-2.287 5.279-2.287 4.733 0 8.572 4.791 8.572 10.712 0 3.709-0.124 6.202-0.366 7.806 3.279 2.463 4.138 7.017 4.664 9.882 0.046 0.251 0.090 0.502 0.133 0.753zM16.002 23.593l4.5-2.302-2.339-3.704c-0.638 0.327-1.461 0.514-2.164 0.514-0.7 0-1.537-0.184-2.173-0.508l-2.345 3.696zM16 16.502c2.665 0 5.475-3.551 5.814-6.324-1.931-2.813-2.682-5.145-2.682-5.145s-4.188-0.284-8.917 3.83c-0.37 1.818 1.483 7.639 5.785 7.639z"></path>
</svg>
