<!-- Generated by IcoMoon.io -->
<svg version="1.1" xmlns="http://www.w3.org/2000/svg" width="32" height="32" viewBox="0 0 32 32">
<title>users2</title>
<path d="M8.783 5.437c0-2.265 1.837-4.102 4.102-4.102s4.102 1.837 4.102 4.102-1.837 4.102-4.102 4.102c-2.266 0-4.102-1.836-4.102-4.102zM14.856 12.333c0.041-0.893 0.349-1.72 0.843-2.403-0.347-0.073-0.706-0.111-1.074-0.111h-3.48c-0.367 0-0.725 0.038-1.071 0.11 0.526 0.73 0.841 1.622 0.846 2.587 0.64-0.352 1.374-0.552 2.154-0.552 0.633 0 1.235 0.132 1.782 0.37zM15.55 12.701c1.192 0.747 2.027 2.011 2.18 3.479 0.485 0.227 1.025 0.358 1.597 0.358 2.087 0 3.779-1.692 3.779-3.779s-1.692-3.779-3.779-3.779c-2.068 0-3.745 1.662-3.776 3.722zM13.074 20.44c2.087 0 3.779-1.693 3.779-3.779s-1.692-3.779-3.779-3.779c-2.087 0-3.78 1.692-3.78 3.779s1.693 3.779 3.78 3.779zM14.678 20.697h-3.207c-2.668 0-4.839 2.171-4.839 4.84v3.922l0.010 0.061 0.27 0.084c2.546 0.795 4.759 1.061 6.58 1.061 3.556 0 5.618-1.014 5.745-1.079l0.253-0.128h0.027v-3.922c0-2.668-2.17-4.839-4.838-4.839zM20.931 16.796h-3.183c-0.035 1.273-0.578 2.42-1.437 3.244 2.372 0.705 4.107 2.905 4.107 5.502v1.209c3.142-0.116 4.952-1.006 5.072-1.066l0.253-0.128h0.027v-3.923c0-2.668-2.171-4.838-4.838-4.838zM21.782 8.898c1.192 0.747 2.027 2.011 2.179 3.479 0.486 0.227 1.025 0.358 1.597 0.358 2.088 0 3.78-1.692 3.78-3.779s-1.692-3.779-3.78-3.779c-2.068-0-3.745 1.662-3.776 3.722zM27.161 12.993h-3.182c-0.035 1.273-0.578 2.42-1.437 3.244 2.372 0.705 4.107 2.905 4.107 5.503v1.209c3.141-0.115 4.952-1.005 5.072-1.066l0.252-0.128h0.027v-3.923c0-2.668-2.171-4.838-4.839-4.838zM6.443 16.538c0.739 0 1.427-0.216 2.010-0.584 0.185-1.208 0.833-2.264 1.758-2.983 0.004-0.071 0.010-0.141 0.010-0.213 0-2.088-1.692-3.779-3.779-3.779-2.088 0-3.78 1.692-3.78 3.779s1.692 3.779 3.78 3.779zM9.837 20.040c-0.855-0.82-1.397-1.961-1.437-3.227-0.118-0.009-0.234-0.018-0.355-0.018h-3.206c-2.668 0-4.839 2.171-4.839 4.839v3.922l0.010 0.061 0.27 0.084c2.042 0.639 3.866 0.932 5.45 1.024v-1.184c0-2.598 1.735-4.797 4.107-5.502z"></path>
</svg>
