<!-- Generated by IcoMoon.io -->
<svg version="1.1" xmlns="http://www.w3.org/2000/svg" width="32" height="32" viewBox="0 0 32 32">
<title>viewsettings</title>
<path d="M0 0v32h14v-2h-2v-18h16v-2h-6v-8h8v4h2v-6h-32zM10 30h-8v-8h8v8zM10 20h-8v-8h8v8zM10 10h-8v-8h8v8zM20 10h-8v-8h8v8zM29.3 18.053l0.377-1.9-4.348-2.51-1.46 1.277h-1.741l-1.46-1.277-4.346 2.51 0.375 1.9-0.872 1.511-1.825 0.621v5.020l1.825 0.621 0.872 1.511-0.377 1.9 4.348 2.51 1.46-1.277h1.744l1.46 1.277 4.346-2.51-0.375-1.9 0.872-1.51 1.825-0.622v-5.020l-1.825-0.622-0.875-1.51zM30 23.773l-1.181 0.4-1.619 2.815 0.244 1.235-1.872 1.077-0.948-0.829h-3.248l-0.948 0.829-1.867-1.078 0.244-1.235-1.623-2.812-1.182-0.402v-2.156l1.182-0.4 1.623-2.817-0.244-1.235 1.867-1.078 0.948 0.829h3.248l0.948-0.83 1.867 1.079-0.239 1.235 1.624 2.814 1.181 0.4-0.005 2.159zM30 12h2v2h-2v-2zM30 8h2v2h-2v-2zM23 18.7c-2.209 0-4 1.791-4 4s1.791 4 4 4c2.209 0 4-1.791 4-4s-1.791-4-4-4zM23 24.7c-1.105 0-2-0.895-2-2s0.895-2 2-2c1.105 0 2 0.895 2 2s-0.895 2-2 2z"></path>
</svg>
