<!-- Generated by IcoMoon.io -->
<svg version="1.1" xmlns="http://www.w3.org/2000/svg" width="32" height="32" viewBox="0 0 32 32">
<title>warning</title>
<path d="M31.696 27.469l-13.698-25.114c-0.202-0.369-0.482-0.66-0.839-0.874s-0.743-0.321-1.159-0.321-0.803 0.107-1.159 0.321c-0.357 0.214-0.636 0.505-0.838 0.874l-13.699 25.114c-0.416 0.75-0.404 1.499 0.036 2.248 0.202 0.345 0.479 0.618 0.83 0.82s0.728 0.304 1.133 0.304h27.397c0.405 0 0.782-0.101 1.133-0.304s0.627-0.476 0.83-0.82c0.44-0.75 0.452-1.498 0.035-2.248zM18.283 25.685c0 0.166-0.057 0.306-0.169 0.419s-0.247 0.169-0.402 0.169h-3.425c-0.155 0-0.288-0.056-0.401-0.169s-0.169-0.253-0.169-0.419v-3.389c0-0.166 0.057-0.306 0.169-0.419s0.247-0.169 0.401-0.169h3.424c0.155 0 0.289 0.056 0.402 0.169s0.169 0.253 0.169 0.419v3.389h0zM18.248 19.015c-0.012 0.119-0.075 0.217-0.188 0.294s-0.253 0.116-0.419 0.116h-3.3c-0.166 0-0.309-0.039-0.428-0.116s-0.179-0.175-0.179-0.295l-0.303-8.151c0-0.167 0.060-0.291 0.178-0.375 0.155-0.131 0.297-0.196 0.428-0.196h3.924c0.131 0 0.274 0.065 0.428 0.196 0.119 0.083 0.178 0.196 0.178 0.339l-0.321 8.187z"></path>
</svg>
