<svg width="16" height="16" viewBox="0 0 16 16" fill="none" xmlns="http://www.w3.org/2000/svg">
<path fill-rule="evenodd" clip-rule="evenodd" d="M8 15C11.866 15 15 11.866 15 8C15 4.13401 11.866 1 8 1C4.13401 1 1 4.13401 1 8C1 11.866 4.13401 15 8 15ZM7.44492 10.1688C7.60937 10.0589 7.80271 10.0002 8.00049 10.0002C8.26571 10.0002 8.52006 10.1056 8.7076 10.2931C8.89513 10.4807 9.00049 10.735 9.00049 11.0002C9.00049 11.198 8.94184 11.3914 8.83196 11.5558C8.72208 11.7203 8.5659 11.8484 8.38317 11.9241C8.20045 11.9998 7.99938 12.0196 7.8054 11.981C7.61142 11.9424 7.43323 11.8472 7.29338 11.7074C7.15353 11.5675 7.05829 11.3893 7.0197 11.1953C6.98112 11.0014 7.00092 10.8003 7.07661 10.6176C7.1523 10.4348 7.28047 10.2787 7.44492 10.1688ZM7.29338 4.29314C7.48092 4.1056 7.73527 4.00024 8.00049 4.00024C8.26571 4.00024 8.52006 4.1056 8.7076 4.29314C8.89513 4.48067 9.00049 4.73503 9.00049 5.00024V8.00024C9.00049 8.26546 8.89513 8.51981 8.7076 8.70735C8.52006 8.89489 8.26571 9.00024 8.00049 9.00024C7.73527 9.00024 7.48092 8.89489 7.29338 8.70735C7.10585 8.51981 7.00049 8.26546 7.00049 8.00024V5.00024C7.00049 4.73503 7.10585 4.48067 7.29338 4.29314Z"/>
</svg>
