<!-- Generated by IcoMoon.io -->
<svg version="1.1" xmlns="http://www.w3.org/2000/svg" width="32" height="32" viewBox="0 0 32 32">
<title>word</title>
<path d="M3.403 14.993c-0.176 0.003-0.291 0.022-0.358 0.040v2.53c0.067 0.018 0.177 0.021 0.275 0.022 0.724 0.019 1.204-0.416 1.204-1.358 0.005-0.819-0.433-1.245-1.122-1.235zM19.519 29.237c0.042 0.003 0.084 0.006 0.127 0.006h9.688c1.133 0 2.055-0.922 2.055-2.055v-22.459c0-1.133-0.922-2.055-2.055-2.055h-9.688c-0.043 0-0.085 0.004-0.127 0.006v-2.681l-18.909 2.524v26.888l18.909 2.589v-2.763zM19.519 12.996h10.214v6.948h-10.214v-6.948zM26.398 12.409h-6.879v-2.748h6.879v2.748zM29.335 28.069h-9.688c-0.043 0-0.085-0.007-0.127-0.013v-7.525h10.696v6.658c0 0.486-0.395 0.881-0.881 0.881zM19.646 3.849h9.688c0.486 0 0.881 0.395 0.881 0.881v7.679h-3.23v-3.335h-7.466v-5.212c0.042-0.006 0.084-0.013 0.127-0.013zM4.794 17.801c-0.382 0.337-0.956 0.484-1.646 0.465-0.407-0.011-0.693-0.047-0.885-0.081v-3.759c0.284-0.058 0.658-0.095 1.057-0.105 0.671-0.017 1.113 0.107 1.463 0.386 0.38 0.3 0.621 0.787 0.621 1.491 0 0.763-0.258 1.286-0.61 1.603zM7.583 18.414c-1.144-0.032-1.798-0.948-1.798-2.090 0-1.202 0.722-2.117 1.863-2.146 1.221-0.031 1.904 0.919 1.904 2.079-0 1.378-0.809 2.19-1.969 2.157zM12.358 17.73c0.3 0.006 0.637-0.054 0.836-0.128l0.153 0.779c-0.187 0.086-0.603 0.172-1.139 0.157-1.487-0.042-2.233-0.972-2.233-2.175 0-1.441 1.022-2.269 2.331-2.302 0.517-0.013 0.914 0.081 1.095 0.169l-0.207 0.792c-0.205-0.082-0.489-0.156-0.843-0.15-0.782 0.012-1.378 0.484-1.378 1.436 0 0.856 0.507 1.405 1.385 1.421zM16.518 18.592l-0.436-0.834c-0.178-0.319-0.291-0.555-0.424-0.818h-0.014c-0.099 0.26-0.218 0.493-0.364 0.804l-0.389 0.803-1.187-0.032 1.333-2.232-1.286-2.185 1.195-0.029 0.41 0.811c0.14 0.272 0.245 0.492 0.358 0.745h0.014c0.114-0.289 0.205-0.492 0.326-0.756l0.407-0.838 1.265-0.031-1.38 2.255 1.454 2.369-1.281-0.034zM7.625 14.915c-0.594 0.009-0.936 0.604-0.936 1.392 0 0.794 0.354 1.36 0.942 1.371 0.603 0.011 0.952-0.585 0.952-1.393 0-0.746-0.343-1.381-0.958-1.371zM21.128 13.852c0.216 0 0.392 0.175 0.392 0.391s-0.175 0.391-0.392 0.391-0.391-0.175-0.391-0.391c0-0.216 0.175-0.391 0.391-0.391zM22.12 14.096h5.97v0.294h-5.97v-0.294zM21.128 15.271c0.216 0 0.392 0.175 0.392 0.391s-0.175 0.391-0.392 0.391-0.391-0.175-0.391-0.391c0-0.216 0.175-0.391 0.391-0.391zM22.12 15.515h5.97v0.294h-5.97v-0.294zM21.128 16.798c0.216 0 0.392 0.175 0.392 0.391s-0.175 0.391-0.392 0.391-0.391-0.175-0.391-0.391c0-0.216 0.175-0.391 0.391-0.391zM22.12 17.042h5.97v0.294h-5.97v-0.294zM21.128 18.241c0.216 0 0.392 0.175 0.392 0.391s-0.175 0.391-0.392 0.391-0.391-0.175-0.391-0.391c0-0.216 0.175-0.391 0.391-0.391zM22.12 18.485h5.97v0.294h-5.97v-0.294z"></path>
</svg>
