<!-- Generated by IcoMoon.io -->
<svg version="1.1" xmlns="http://www.w3.org/2000/svg" width="32" height="32" viewBox="0 0 32 32">
<title>xml</title>
<path d="M22.261 11.13h-1.391v9.739h6.957v-1.391h-5.565zM9.739 11.13l-2.087 3.617-2.087-3.617h-1.391l2.783 4.87-2.783 4.87h1.391l2.087-3.617 2.087 3.617h1.391l-2.783-4.87 2.783-4.87zM18.087 11.13l-2.087 4.174-2.087-4.174h-1.391v9.739h1.391v-6.957l1.391 2.783h1.391l1.391-2.783v6.957h1.391v-9.739h-0.696zM27.826 6.957h-23.652c-2.365 0-4.174 1.809-4.174 4.174v9.739c0 2.365 1.809 4.174 4.174 4.174h23.652c2.365 0 4.174-1.809 4.174-4.174v-9.739c0-2.365-1.809-4.174-4.174-4.174zM30.609 20.87c0 1.53-1.252 2.783-2.783 2.783h-23.652c-1.53 0-2.783-1.252-2.783-2.783v-9.739c0-1.53 1.252-2.783 2.783-2.783h23.652c1.53 0 2.783 1.252 2.783 2.783v9.739z"></path>
</svg>
