<!-- Generated by IcoMoon.io -->
<svg version="1.1" xmlns="http://www.w3.org/2000/svg" width="32" height="32" viewBox="0 0 32 32">
<title>xml</title>
<path opacity="0.976" fill="#000" d="M5.219-0.031c-0.419 0.18-0.701 0.493-0.844 0.938-0.031 3.5-0.042 7-0.031 10.5-0.396-0.010-0.792 0-1.188 0.031-0.698 0.198-1.146 0.646-1.344 1.344-0.010 1.698-0.021 3.396-0.031 5.094-0.010 1.764 0.022 3.525 0.094 5.281 0.088 0.198 0.192 0.385 0.313 0.563 0.602 0.586 1.32 0.795 2.156 0.625-0.010 2.229 0 4.458 0.031 6.688 0.143 0.445 0.424 0.757 0.844 0.938 7.167 0 14.333 0 21.5 0 0.419-0.18 0.701-0.493 0.844-0.938 0.031-2.229 0.042-4.458 0.031-6.688 0.464 0.024 0.922-0.007 1.375-0.094 0.531-0.198 0.896-0.563 1.094-1.094 0.072-1.757 0.103-3.517 0.094-5.281-0.010-1.698-0.021-3.396-0.031-5.094-0.137-0.554-0.46-0.96-0.969-1.219-0.509-0.143-1.030-0.195-1.563-0.156 0.010-1.334 0-2.667-0.031-4-1.935-2.289-3.893-4.56-5.875-6.813-0.212-0.223-0.431-0.431-0.656-0.625-5.271 0-10.542 0-15.813 0zM5.656 1.281c4.813 0 9.625 0 14.438 0-0.030 2.232 0.002 4.461 0.094 6.688 0.096 0.117 0.211 0.211 0.344 0.281 1.917 0.031 3.833 0.042 5.75 0.031 0 1.042 0 2.083 0 3.125-6.875 0-13.75 0-20.625 0 0-3.375 0-6.75 0-10.125zM4.219 13.344c0.688-0.010 1.375 0 2.063 0.031 0.478 0.966 0.947 1.935 1.406 2.906 0.405-0.986 0.853-1.955 1.344-2.906 0.688-0.042 1.375-0.042 2.063 0-0.796 1.331-1.566 2.675-2.313 4.031 0.78 1.435 1.592 2.851 2.438 4.25-0.708 0.083-1.417 0.083-2.125 0-0.501-1.002-1.001-2.002-1.5-3-0.482 1.006-0.94 2.027-1.375 3.063-0.709 0.010-1.417 0-2.125-0.031 0.828-1.407 1.641-2.823 2.438-4.25-0.812-1.343-1.583-2.707-2.313-4.094zM12.719 13.344c0.833 0 1.667 0 2.5 0 0.57 1.927 1.091 3.865 1.563 5.813 0.495-1.939 1.068-3.855 1.719-5.75 0.818-0.062 1.641-0.083 2.469-0.063 0.128 2.793 0.274 5.584 0.438 8.375-0.604 0-1.208 0-1.813 0-0.070-2.23-0.153-4.459-0.25-6.688-0.627 2.153-1.283 4.299-1.969 6.438-0.245 0.041-0.495 0.061-0.75 0.063-0.266-0.002-0.516-0.044-0.75-0.125-0.611-2.111-1.163-4.236-1.656-6.375-0.136 2.229-0.261 4.459-0.375 6.688-0.563 0-1.125 0-1.688 0 0.188-2.792 0.375-5.584 0.563-8.375zM22.906 13.344c0.625 0 1.25 0 1.875 0 0 2.271 0 4.542 0 6.813 1.125 0 2.25 0 3.375 0 0 0.521 0 1.042 0 1.563-1.75 0-3.5 0-5.25 0 0-2.792 0-5.583 0-8.375zM5.656 24.344c6.875 0 13.75 0 20.625 0 0 2 0 4 0 6-6.875 0-13.75 0-20.625 0 0-2 0-4 0-6z"></path>
</svg>
