<!-- Generated by IcoMoon.io -->
<svg version="1.1" xmlns="http://www.w3.org/2000/svg" width="32" height="32" viewBox="0 0 32 32">
<title>zero</title>
<path d="M16.001 6.79c-5.283 0-6.611 4.984-6.611 9.21s1.328 9.21 6.611 9.21c5.283 0 6.611-4.984 6.611-9.21s-1.328-9.21-6.611-9.21zM13.155 16c0-1.861 0.129-5.737 2.846-5.737 0.215 0 0.41 0.033 0.594 0.079 0.38 0.328 0.566 0.78 0.201 1.411l-3.518 6.465c-0.108-0.817-0.123-1.62-0.123-2.218zM16.001 21.736c-0.214 0-0.411-0.021-0.594-0.067-0.035-0.010-0.067-0.021-0.102-0.033-0.056-0.017-0.115-0.035-0.168-0.056-0.604-0.258-0.985-0.724-0.437-1.547l3.933-6.79c0.187 0.992 0.213 2.028 0.213 2.757 0 1.861-0.13 5.736-2.846 5.736zM16 0c-8.837 0-16 7.163-16 16s7.163 16 16 16 16-7.163 16-16-7.163-16-16-16zM16 29.067c-7.216 0-13.066-5.85-13.066-13.067s5.85-13.067 13.066-13.067c7.217 0 13.067 5.85 13.067 13.067s-5.85 13.067-13.067 13.067z"></path>
</svg>
