<!-- Generated by IcoMoon.io -->
<svg version="1.1" xmlns="http://www.w3.org/2000/svg" width="32" height="32" viewBox="0 0 32 32">
<title>zip</title>
<path d="M28.376 11.446h-0.768v-3.708c0-0.023-0.004-0.046-0.007-0.070-0.001-0.147-0.048-0.292-0.149-0.406l-6.17-7.048c-0.002-0.002-0.004-0.002-0.005-0.004-0.037-0.041-0.080-0.075-0.125-0.105-0.013-0.009-0.027-0.017-0.041-0.024-0.039-0.021-0.081-0.039-0.124-0.052-0.012-0.003-0.022-0.008-0.034-0.011-0.047-0.011-0.095-0.018-0.144-0.018h-15.163c-0.692 0-1.255 0.563-1.255 1.255v10.191h-0.768c-0.99 0-1.794 0.803-1.794 1.794v9.327c0 0.99 0.803 1.794 1.794 1.794h0.768v6.385c0 0.692 0.563 1.255 1.255 1.255h20.706c0.692 0 1.255-0.563 1.255-1.255v-6.385h0.768c0.99 0 1.793-0.803 1.793-1.794v-9.327c0-0.991-0.803-1.794-1.793-1.794zM5.647 1.255h14.536v6.421c0 0.347 0.281 0.627 0.627 0.627h5.543v3.143h-20.706v-10.191zM18.869 13.052v9.37h-2.127v-9.37h2.127zM8.539 14.804v-1.752h6.798v1.224l-4.365 6.339v0.055h4.435v1.752h-7.285v-1.14l4.463-6.422v-0.056h-4.046zM26.353 30.405h-20.706v-6.045h20.706v6.045zM26.571 18.127c-0.723 0.681-1.793 0.986-3.044 0.986-0.279 0-0.528-0.013-0.723-0.041v3.35h-2.099v-9.245c0.653-0.112 1.57-0.195 2.863-0.195 1.307 0 2.238 0.25 2.864 0.751 0.597 0.473 1.001 1.251 1.001 2.169s-0.306 1.696-0.862 2.225zM23.68 14.581c-0.432 0-0.724 0.042-0.876 0.084v2.766c0.18 0.042 0.403 0.056 0.709 0.056 1.126 0 1.821-0.57 1.821-1.529 0-0.862-0.598-1.377-1.654-1.377z"></path>
</svg>
