<svg width="32" height="32" viewBox="0 0 32 32" fill="none" xmlns="http://www.w3.org/2000/svg">
<path d="M16.0002 7.99999C17.5002 7.99999 18.7002 9.19999 18.7002 10.7C18.7002 12.2 17.5002 13.4 16.0002 13.4C14.5002 13.4 13.3002 12.2 13.3002 10.7C13.3002 9.19999 14.5002 7.99999 16.0002 7.99999ZM16.0002 20C19.6002 20 22.4002 21.7 22.7002 22.7V24H9.3002V22.7C9.6002 21.7 12.4002 20 16.0002 20ZM16.0002 5.29999C13.1002 5.29999 10.7002 7.69999 10.7002 10.6C10.7002 13.5 13.1002 16 16.0002 16C18.9002 16 21.3002 13.6 21.3002 10.7C21.3002 7.79999 18.9002 5.29999 16.0002 5.29999ZM16.0002 17.3C12.4002 17.3 6.7002 19.1 6.7002 22.6V26.6H25.4002V22.6C25.3002 19.1 19.6002 17.3 16.0002 17.3Z" />
</svg>
