<!-- Generated by IcoMoon.io -->
<svg version="1.1" xmlns="http://www.w3.org/2000/svg" width="32" height="32" viewBox="0 0 32 32">
<title>settings2</title>
<path d="M31.899 14.223c-0.051-0.45-0.575-0.788-1.029-0.788-1.466 0-2.767-0.861-3.313-2.192-0.557-1.364-0.198-2.954 0.895-3.957 0.344-0.314 0.386-0.841 0.097-1.206-0.75-0.953-1.603-1.814-2.535-2.56-0.365-0.293-0.9-0.252-1.216 0.098-0.954 1.056-2.667 1.449-3.991 0.896-1.378-0.579-2.246-1.975-2.161-3.474 0.028-0.471-0.316-0.88-0.785-0.935-1.195-0.138-2.401-0.143-3.6-0.010-0.464 0.051-0.808 0.451-0.792 0.915 0.052 1.484-0.827 2.855-2.191 3.414-1.308 0.534-3.009 0.145-3.961-0.902-0.315-0.345-0.841-0.387-1.207-0.102-0.959 0.752-1.831 1.614-2.588 2.559-0.295 0.367-0.252 0.9 0.095 1.216 1.114 1.008 1.473 2.613 0.895 3.992-0.552 1.315-1.918 2.163-3.481 2.163-0.507-0.016-0.869 0.324-0.924 0.785-0.141 1.202-0.142 2.427-0.007 3.639 0.050 0.452 0.591 0.787 1.049 0.787 1.393-0.036 2.731 0.827 3.292 2.193 0.559 1.364 0.2 2.953-0.895 3.956-0.342 0.314-0.386 0.84-0.097 1.206 0.743 0.947 1.597 1.809 2.531 2.561 0.367 0.295 0.9 0.254 1.218-0.096 0.957-1.059 2.67-1.451 3.989-0.897 1.381 0.578 2.25 1.973 2.165 3.473-0.028 0.471 0.318 0.881 0.785 0.935 0.611 0.071 1.226 0.107 1.843 0.107 0.585 0 1.171-0.032 1.756-0.097 0.464-0.051 0.808-0.451 0.792-0.916-0.054-1.483 0.827-2.854 2.189-3.412 1.317-0.538 3.011-0.144 3.963 0.902 0.316 0.344 0.839 0.386 1.208 0.101 0.957-0.751 1.828-1.611 2.588-2.559 0.295-0.367 0.254-0.9-0.096-1.216-1.114-1.008-1.475-2.613-0.896-3.991 0.544-1.298 1.859-2.169 3.273-2.169l0.198 0.005c0.459 0.037 0.881-0.316 0.936-0.784 0.141-1.203 0.143-2.427 0.007-3.639zM16.025 21.371c-2.943 0-5.337-2.394-5.337-5.337s2.394-5.337 5.337-5.337c2.943 0 5.337 2.394 5.337 5.337s-2.394 5.337-5.337 5.337z"></path>
</svg>
