<?xml version="1.0" standalone="no"?>
<!DOCTYPE svg PUBLIC "-//W3C//DTD SVG 1.1//EN" "http://www.w3.org/Graphics/SVG/1.1/DTD/svg11.dtd" >
<svg xmlns="http://www.w3.org/2000/svg">
<metadata>Generated by IcoMoon</metadata>
<defs>
<font id="icomoon" horiz-adv-x="1024">
<font-face units-per-em="1024" ascent="896" descent="-128" />
<missing-glyph horiz-adv-x="1024" />
<glyph unicode="&#x20;" d="" />
<glyph unicode="&#xe900;" glyph-name="xml" d="M712.348 539.826h-44.522v-311.652h222.609v44.522h-178.087zM311.652 539.826l-66.781-115.757-66.784 115.757h-44.522l89.043-155.827-89.043-155.825h44.522l66.784 115.757 66.781-115.757h44.522l-89.043 155.825 89.043 155.827zM578.783 539.826l-66.781-133.565-66.784 133.565h-44.522v-311.652h44.522v222.609l44.522-89.043h44.522l44.522 89.043v-222.609h44.522v311.652h-22.26zM890.435 673.391h-756.87c-75.688 0-133.565-57.877-133.565-133.565v-311.652c0-75.688 57.877-133.565 133.565-133.565h756.87c75.688 0 133.565 57.877 133.565 133.565v311.652c0 75.688-57.877 133.565-133.565 133.565zM979.478 228.174c0-48.973-40.071-89.043-89.043-89.043h-756.87c-48.975 0-89.043 40.071-89.043 89.043v311.652c0 48.975 40.068 89.043 89.043 89.043h756.87c48.973 0 89.043-40.068 89.043-89.043v-311.652z" />
<glyph unicode="&#xe901;" glyph-name="minus-box" d="M725.333 341.333h-426.667v85.333h426.667zM810.667 768h-597.333c-47.36 0-85.333-37.973-85.333-85.333v-597.333c0-47.128 38.205-85.333 85.333-85.333v0h597.333c47.128 0 85.333 38.205 85.333 85.333v0 597.333c0 47.36-38.4 85.333-85.333 85.333z" />
<glyph unicode="&#xe902;" glyph-name="approval" d="M526.005 20.108h-146.709l21.361-21.334c13.607-13.603 22.223-30.145 26.657-47.53h140.931l-13.685 13.685c-15.604 15.602-25.018 34.97-28.556 55.18zM224.045 244.209v580.85h572.618v-674.433l68.862 68.898v639.969c0 19.016-15.397 34.434-34.43 34.434h-641.487c-19.029 0-34.43-15.418-34.43-34.434v-615.269l34.43-34.451 34.436 34.436zM340.767 681.798h201.447c19.035 0 34.432 15.418 34.432 34.432 0 19.016-15.397 34.43-34.432 34.43h-201.447c-19.033 0-34.432-15.414-34.432-34.43 0-19.014 15.399-34.432 34.432-34.432zM679.951 612.931h-339.184c-19.033 0-34.432-15.418-34.432-34.43 0-19.016 15.399-34.434 34.432-34.434h339.184c19.035 0 34.432 15.418 34.432 34.434 0 19.010-15.397 34.43-34.432 34.43zM679.951 475.201h-339.184c-19.033 0-34.432-15.418-34.432-34.434 0-19.012 15.399-34.43 34.432-34.43h339.184c19.035 0 34.432 15.418 34.432 34.43 0 19.014-15.397 34.434-34.432 34.434zM679.951 337.468h-201.458c-19.033 0-34.43-15.416-34.43-34.432 0-19.014 15.397-34.43 34.43-34.43h201.458c19.035 0 34.432 15.416 34.432 34.43s-15.397 34.432-34.432 34.432zM1008.869 216.801c-20.174 20.141-52.858 20.161-73.024-0.017l-206.97-207.018-64.767 64.73c-20.174 20.176-52.862 20.176-73.036 0-20.178-20.174-20.178-52.877 0-73.034l101.276-101.264c9.688-9.686 22.839-15.131 36.526-15.131 13.72 0 26.827 5.447 36.513 15.131l243.483 243.552c20.176 20.174 20.176 52.877 0 73.051zM262.648 63.705c46.069 46.084 23.982 23.99 101.452 101.448 20.174 20.174 20.174 52.875 0 73.036-20.176 20.176-52.86 20.176-73.036 0-77.914-77.893-55.753-55.751-101.456-101.448l-101.44 101.448c-20.174 20.176-52.858 20.176-73.036 0-20.178-20.178-20.178-52.877 0-73.036l101.454-101.448c-46.21-46.222-24.020-24.045-101.454-101.469-20.178-20.174-20.178-52.875 0-73.036 20.178-20.174 52.862-20.174 73.036 0 77.435 77.426 55.274 55.282 101.44 101.469l101.486-101.469c20.178-20.174 52.864-20.174 73.041 0 20.178 20.178 20.178 52.879 0 73.036l-101.486 101.469z" />
<glyph unicode="&#xe903;" glyph-name="external-link" d="M146.286 896v-877.714h877.714v877.714h-877.714zM950.856 91.428h-731.427v731.43h731.427v-731.43zM73.142-54.856v731.427l-73.142 73.142v-877.714h877.714l-73.144 73.142h-731.427zM417.434 185.995l219.428 219.428 167.709-167.709v438.857h-438.857l167.709-167.709-219.428-219.428 103.439-103.439z" />
<glyph unicode="&#xe904;" glyph-name="a-three" d="M626.779 351.981c-18.306 0-35.171-9.985-43.908-26.018l-103.37-190.066c-8.097-14.881-8.097-32.803 0-47.716l103.37-190.034c8.737-16.066 25.602-26.082 43.908-26.082h201.619c18.306 0 35.203 10.017 43.908 26.082l103.402 190.034c8.097 14.945 8.097 32.867 0 47.78l-103.402 190.034c-8.705 16.066-25.602 26.050-43.908 26.050l-201.619-0.064zM818.829-11.829c-7.201-12.513-20.546-20.226-34.947-20.226h-112.587c-14.369 0-27.715 7.713-34.947 20.194l-59.782 103.658c-7.233 12.513-7.233 27.843 0 40.356l59.782 103.658c7.233 12.481 20.578 20.162 34.947 20.162h112.587c14.401 0 27.747-7.681 34.947-20.194l59.782-103.658c7.201-12.481 7.201-27.811 0-40.292l-59.782-103.658zM441.161 613.926c-8.737 16.066-25.602 26.082-43.908 26.082h-201.683c-18.306 0-35.171-9.985-43.908-26.082l-103.37-190.066c-8.097-14.881-8.097-32.835 0-47.716l103.37-190.066c8.737-16.066 25.602-26.050 43.908-26.050h201.683c18.306 0 35.171 10.049 43.908 26.050l103.37 190.066c8.097 14.881 8.097 32.835 0 47.716l-103.37 190.066zM828.398 415.987c18.306 0 35.203 10.017 43.908 26.082l103.402 190.066c8.097 14.913 8.097 32.867 0 47.78l-103.402 190.034c-8.705 16.066-25.57 26.050-43.908 26.050h-201.619c-18.306 0-35.171-9.985-43.908-26.050l-103.37-190.066c-8.097-14.881-8.097-32.835 0-47.716l103.37-190.098c8.737-16.066 25.602-26.082 43.908-26.082h201.619z" />
<glyph unicode="&#xe905;" glyph-name="back" d="M398.222 583.111v227.556l-398.222-398.222 398.222-398.222v233.244c284.444 0 483.556-91.022 625.778-290.133-56.889 284.444-227.556 568.889-625.778 625.778z" />
<glyph unicode="&#xe906;" glyph-name="calc" d="M861.1 896h-698.179c-25.708 0-46.537-20.85-46.537-46.558v-930.883c0-25.708 20.85-46.558 46.537-46.558h698.179c25.708 0 46.537 20.85 46.537 46.558v930.883c0 25.708-20.828 46.558-46.537 46.558zM814.542 802.927v-139.631h-605.084v139.631h605.084zM209.458-34.927v605.128h605.084v-605.062l-605.084-0.065zM375.887 529.024h-96.624c-12.854 0-23.268-10.436-23.268-23.268v-96.69c0-12.854 10.436-23.268 23.268-23.268h96.624c12.854 0 23.268 10.436 23.268 23.268v96.69c0.022 12.876-10.371 23.268-23.268 23.268zM560.29 529.024h-96.603c-12.854 0-23.268-10.436-23.268-23.268v-96.69c0-12.854 10.414-23.268 23.268-23.268h96.603c12.854 0 23.268 10.436 23.268 23.268v96.69c0.022 12.876-10.414 23.268-23.268 23.268zM744.715 529.024h-96.624c-12.854 0-23.246-10.436-23.246-23.268v-96.69c0-12.854 10.414-23.268 23.246-23.268h96.624c12.854 0 23.268 10.436 23.268 23.268v96.69c0 12.876-10.414 23.268-23.268 23.268zM375.887 339.239h-96.624c-12.854 0-23.268-10.414-23.268-23.246v-96.69c0-12.854 10.436-23.246 23.268-23.246h96.624c12.854 0 23.268 10.414 23.268 23.246v96.69c0.022 12.876-10.371 23.246-23.268 23.246zM560.29 339.239h-96.603c-12.854 0-23.268-10.414-23.268-23.246v-96.69c0-12.854 10.414-23.246 23.268-23.246h96.603c12.854 0 23.268 10.414 23.268 23.246v96.69c0.022 12.876-10.414 23.246-23.268 23.246zM375.887 149.455h-96.624c-12.854 0-23.268-10.414-23.268-23.225v-96.69c0-12.898 10.436-23.268 23.268-23.268h96.624c12.854 0 23.268 10.436 23.268 23.268v96.69c0.022 12.854-10.371 23.225-23.268 23.225zM560.29 149.455h-96.603c-12.854 0-23.268-10.414-23.268-23.225v-96.69c0-12.898 10.414-23.268 23.268-23.268h96.603c12.854 0 23.268 10.436 23.268 23.268v96.69c0.022 12.854-10.414 23.225-23.268 23.225zM744.715 339.239h-96.624c-12.854 0-23.246-10.414-23.246-23.246v-286.452c0-12.898 10.414-23.268 23.246-23.268h96.624c12.854 0 23.268 10.436 23.268 23.268v286.452c0 12.876-10.414 23.246-23.268 23.246z" />
<glyph unicode="&#xe907;" glyph-name="changehistory" d="M112.549 516.865c0 209.058 170.072 379.135 379.135 379.135 173.066 0 319.052-116.671 364.351-275.412-8.282-8.965-14.079-20.334-15.702-33.207l-4.142-33.083-7.025-37.471-38.744 0.040c0 164.737-134.034 298.755-298.738 298.755-164.748 0-298.775-134.020-298.775-298.755 0-111.744 61.779-209.189 152.862-260.437l-58.424-58.417c-104.963 67.514-174.798 185.069-174.798 318.852zM491.683 754.994c-22.21 0-40.179-18.002-40.179-40.185v-197.944c0-22.184 17.971-40.179 40.179-40.179h227.355c22.204 0 40.185 17.995 40.185 40.179 0 22.204-17.982 40.199-40.185 40.199h-187.167v157.745c0 22.184-18.010 40.185-40.188 40.185zM910.19 577.853c-0.275 10.511-8.611 19.030-19.081 19.569-10.039 0.577-19.634-7.098-20.957-17.569l-4.289-34.276-7.511-40.021c-3.104-13.881-6.304-28.226-12.267-43.824l-9.005-26.346-12.766-28.082c-4.564-11.513-11.482-23.106-18.822-35.389-3.723-6.213-7.484-12.491-11.010-18.913-3.697-4.994-7.315-10.065-10.906-15.179-9.464-13.329-18.376-25.925-30.344-38.469-10.396-12.977-22.871-24.576-36.030-36.844-3.881-3.619-7.735-7.209-11.549-10.855-4.273-3.251-8.506-6.539-12.688-9.804-13.997-10.906-27.171-21.181-42.873-30.198-12.11-8.442-25.951-15.272-39.309-21.838-5.584-2.752-11.127-5.479-16.5-8.282-6.814-2.45-13.447-5.087-19.988-7.708-12.243-4.89-23.791-9.489-36.032-12.19l-26.568-7.366-26.115-4.457c-13.292-2.856-24.982-3.512-36.307-4.193l-21.286-1.625-3.007 0.078v93.755c0 8.112-4.89 15.454-12.407 18.571-7.537 3.096-16.141 1.39-21.915-4.351l-172.878-172.878c-3.761-3.774-5.879-8.888-5.879-14.207 0-5.322 2.118-10.433 5.879-14.207l172.882-172.884c3.854-3.827 8.992-5.87 14.214-5.87 2.588 0 5.211 0.499 7.701 1.521 7.517 3.12 12.407 10.46 12.407 18.587v97.975l37.001 6.777c17.11 3.539 38.416 7.97 58.817 15.533l23.783 7.983 39.427 16.673c16.62 6.553 32.362 15.753 47.578 24.652 6.502 3.816 13.079 7.655 19.791 11.338 0.734 0.408 1.417 0.854 2.124 1.339 5.242 3.774 10.564 7.497 15.926 11.229 16.239 11.274 33.003 22.953 47.354 36.44 17.72 14.117 33.2 30.473 48.168 46.308l10.866 11.429c0.459 0.499 0.918 1.009 1.362 1.559l9.832 12.438c13.383 16.829 27.262 34.287 37.722 52.191 11.744 16.778 20.578 34.262 29.124 51.197 2.936 5.848 5.872 11.64 8.861 17.303 0.392 0.785 0.774 1.572 1.073 2.384 2.674 7.182 5.53 14.194 8.362 21.077 6.238 15.256 12.675 31.009 16.305 46.476l9.28 32.965 5.271 28.994c4.204 19.11 5.424 36.602 6.502 52.022l1.94 26.226-1.264 53.233z" />
<glyph unicode="&#xe908;" glyph-name="delete" d="M846.89 775.425h-136.723v88.846c0 17.883-14.425 31.729-32.307 31.729-1.735 0-2.892-0.579-3.457-1.157-0.579 0.578-1.736 1.157-2.314 1.157h-325.95c-17.882 0-31.728-13.846-31.728-31.729v-88.847h-137.301c-39.236 0-69.808-30.572-69.808-69.808v-114.225h60.576v-650.162c0-39.237 29.994-69.23 69.23-69.23h549.785c39.236 0 69.806 29.993 69.806 69.23v650.162h59.998v114.225c0 39.236-30.584 69.809-69.808 69.809zM377.868 832.543h268.265v-57.118h-268.265v57.118zM792.665-58.773c0-4.048-1.735-5.77-5.772-5.77h-549.785c-4.036 0-5.772 1.723-5.772 5.77v650.165h561.328v-650.165zM852.663 654.849h-681.326v50.768c0 4.038 1.735 6.351 5.772 6.351h669.782c4.038 0 5.773-2.313 5.773-6.351v-50.768zM628.249 516.968h64.035v-524.973h-64.035v524.973zM480.561 516.968h64.035v-524.973h-64.035v524.973zM332.871 516.968h64.035v-524.973h-64.035v524.973z" />
<glyph unicode="&#xe909;" glyph-name="documents" d="M896 768h-63.999v64.001c-0.002 35.327-28.674 63.999-64.001 63.999h-640c-35.329 0-64.001-28.672-64.001-63.999v-768c0-35.329 28.672-63.999 63.999-63.999h63.999v-63.999c0-35.329 28.672-63.999 63.999-63.999h640c35.329 0 63.999 28.672 63.999 63.999v767.998c0.004 35.327-28.668 63.999-63.995 63.999zM128 64.001v768h640v-768h-640zM896-63.999h-640v63.999h512c35.329 0 63.999 28.672 63.999 63.999v640.002h63.999v-768zM671.998 704.001h-319.999c-17.663 0-32.001-14.335-32.001-32.001s14.335-32.001 32.001-32.001h319.999c17.6 0 32.001 14.335 32.001 32.001s-14.4 32.001-32.001 32.001zM671.998 512h-447.999c-17.663 0-32.001-14.335-32.001-32.001s14.335-32.001 32.001-32.001h447.999c17.6 0 32.001 14.335 32.001 32.001s-14.4 32.001-32.001 32.001zM671.998 384h-447.999c-17.663 0-32.001-14.335-32.001-32.001 0-17.6 14.335-32.001 32.001-32.001h447.999c17.6 0 32.001 14.4 32.001 32.001 0 17.666-14.4 32.001-32.001 32.001zM671.998 256h-447.999c-17.663 0-32.001-14.4-32.001-32.001s14.335-32.001 32.001-32.001h447.999c17.6 0 32.001 14.4 32.001 32.001s-14.4 32.001-32.001 32.001z" />
<glyph unicode="&#xe90a;" glyph-name="docx" d="M908.039 529.72h-24.589v118.641c0 0.745-0.116 1.485-0.215 2.241-0.039 4.71-1.541 9.338-4.766 12.999l-197.428 225.536c-0.062 0.058-0.12 0.078-0.159 0.136-1.177 1.315-2.547 2.413-4.002 3.354-0.428 0.293-0.861 0.534-1.311 0.783-1.255 0.682-2.59 1.255-3.961 1.668-0.374 0.097-0.708 0.25-1.078 0.351-1.492 0.351-3.040 0.571-4.607 0.571h-485.217c-22.156 0-40.156-18.021-40.156-40.158v-326.111h-24.585c-31.695 0-57.396-25.691-57.396-57.392v-298.465c0-31.686 25.7-57.403 57.396-57.403h24.585v-204.316c0-22.139 18-40.156 40.156-40.156h662.587c22.137 0 40.156 18.017 40.156 40.156v204.314h24.589c31.686 0 57.39 25.706 57.39 57.394v298.465c0.002 31.701-25.702 57.392-57.388 57.392zM180.705 855.833h465.139v-205.45c0-11.094 8.996-20.079 20.079-20.079h177.372v-100.592h-662.589v326.12zM686.439 268.765c14.648 0 30.904 3.177 40.464 7.020l7.314-37.915c-8.905-4.437-28.965-9.243-55.082-9.243-74.234 0-112.438 46.186-112.438 107.336 0 73.259 52.236 114.028 117.216 114.028 25.148 0 44.272-5.112 52.872-9.56l-9.87-38.548c-9.874 4.157-23.56 7.962-40.774 7.962-38.55 0-68.473-23.241-68.473-71.020-0.011-42.961 25.471-70.060 68.771-70.060zM544.686 341.372c0-70.381-42.683-113.060-105.416-113.060-63.71 0-100.975 48.108-100.975 109.247 0 64.334 41.078 112.442 104.475 112.442 65.951 0 101.916-49.384 101.916-108.628zM126.475 232.763v210.86c17.84 2.861 41.086 4.436 65.61 4.436 40.77 0 67.199-7.314 87.881-22.927 22.309-16.553 36.335-42.995 36.335-80.889 0-41.076-14.973-69.44-35.681-86.949-22.619-18.785-57.015-27.717-99.068-27.717-25.14 0.009-42.978 1.61-55.076 3.186zM843.295-76.971h-662.589v193.441h662.587v-193.441zM880.107 231.823l-19.44 38.854c-7.962 14.963-13.058 26.128-19.108 38.54h-0.639c-4.46-12.431-9.861-23.577-16.549-38.54l-17.84-38.854h-55.422l62.106 108.617-59.865 106.055h55.747l18.785-39.19c6.374-13.034 11.137-23.558 16.237-35.657h0.626c5.097 13.693 9.254 23.244 14.648 35.657l18.155 39.19h55.437l-60.522-104.779 63.695-109.893h-56.051zM264.696 342.667c0.308 44.578-25.799 68.157-67.515 68.157-10.845 0-17.84-0.96-21.986-1.918v-140.445c4.157-0.951 10.843-0.951 16.896-0.951 43.953-0.334 72.604 23.861 72.604 75.157zM389.593 338.528c0-42.049 19.75-71.664 52.236-71.664 32.809 0 51.578 31.195 51.578 72.921 0 38.55-18.461 71.674-51.922 71.674-32.799-0.009-51.892-31.225-51.892-72.931z" />
<glyph unicode="&#xe90b;" glyph-name="done" d="M133.338 56.756v727.345h587.427v-610.849l111.921 92.443v574.355c0 30.894-25.034 55.95-55.928 55.95h-699.37c-30.894 0-55.928-25.055-55.928-55.95v-839.222c0-30.894 25.034-55.95 55.928-55.95h488.208l-79.088 111.877h-353.171zM993.781 294.476c-10.305 9.717-26.145 10.175-36.995 1.242l-256.61-212.077-171.008 102.596c-11.351 6.798-25.883 4.771-34.925-4.989-8.976-9.674-9.957-24.336-2.309-35.143l185.322-262.253c5.185-7.342 13.617-11.743 22.593-11.83 0.087 0 0.174 0 0.261 0 8.889 0 17.277 4.205 22.55 11.438l274.519 374.152c8.279 11.351 6.863 27.147-3.399 36.864zM594.922 700.176h-335.719c-30.894 0-55.928-25.055-55.928-55.95s25.034-55.95 55.928-55.95h335.698c30.894 0 55.906 25.055 55.906 55.95s-24.99 55.95-55.884 55.95zM594.922 532.349h-335.719c-30.894 0-55.928-25.055-55.928-55.95s25.034-55.95 55.928-55.95h335.698c30.894 0 55.906 25.034 55.906 55.95 0.065 30.894-24.99 55.95-55.884 55.95zM594.922 364.5h-335.719c-30.894 0-55.928-25.055-55.928-55.95s25.034-55.95 55.928-55.95h335.698c30.894 0 55.906 25.055 55.906 55.95 0.065 30.894-24.99 55.95-55.884 55.95z" />
<glyph unicode="&#xe90c;" glyph-name="download" d="M869.741 243.404v-233.917h-715.516v233.917h-137.522v-302.677c0-37.95 30.743-68.727 68.863-68.727h852.832c38.087 0 68.863 30.743 68.863 68.727v302.677h-137.522zM499.396 266.598l-196.889 237.913c0 0-29.957 28.283 2.528 28.283s110.946 0 110.946 0 0 19.026 0 48.368c0 83.654 0 235.898 0 297.964 0 0-4.406 16.874 21.007 16.874 25.619 0 137.829 0 156.172 0 18.309 0 17.899-14.21 17.899-14.21 0-60.187 0-217.691 0-298.613 0-26.234 0-43.245 0-43.245s62.92 0 102.407 0c39.419 0 9.735-29.615 9.735-29.615s-167.513-222.371-190.877-245.701c-16.806-16.908-32.929 1.981-32.929 1.981z" />
<glyph unicode="&#xe90d;" glyph-name="downloadzip" d="M995.556 770.844l-79.644 96.711c-11.378 17.067-34.133 28.444-62.578 28.444h-682.667c-28.444 0-51.2-11.378-68.267-28.444l-73.956-96.711c-17.067-22.756-28.444-45.511-28.444-73.956v-711.111c0-62.578 51.2-113.778 113.778-113.778h796.444c62.578 0 113.778 51.2 113.778 113.778v711.111c0 28.444-11.378 51.2-28.444 73.956zM512 71.111l-312.889 312.889h199.111v113.778h227.556v-113.778h199.111l-312.889-312.889zM119.467 782.222l45.511 56.889h682.667l51.2-56.889h-779.378z" />
<glyph unicode="&#xe90e;" glyph-name="egg1" d="M787.3 671.306c-76 144.895-173.769 224.694-275.304 224.694s-199.304-79.799-275.3-224.694c-65.908-125.663-105.254-281.727-105.254-417.468 0-210.544 170.716-381.838 380.555-381.838s380.563 171.294 380.563 381.838c-0.002 135.741-39.352 291.805-105.259 417.468zM208.999 359.008c8.579 0.407 16.88 4.014 22.968 10.102 6.462 6.462 10.182 15.43 10.182 24.566 0 9.177-3.72 18.108-10.182 24.573-3.069 3.086-6.709 5.51-10.66 7.23 5.507 24.517 12.046 49.007 19.546 73.11l88.506-52.627c10.937-6.506 24.573-6.503 35.515 0l99.129 58.94 99.107-58.937c10.944-6.513 24.573-6.509 35.522 0l99.114 58.937 100.145-59.199c6.367-25.675 11.609-51.489 15.636-77.041-3.026 0.849-6.161 1.317-9.329 1.317-9.17 0-18.104-3.682-24.57-10.143-6.499-6.499-10.182-15.433-10.182-24.603 0-9.14 3.682-18.104 10.182-24.57 6.465-6.465 15.397-10.182 24.57-10.182 5.899 0 11.705 1.569 16.836 4.399 1.32-17.36 2.024-34.427 2.024-51.041 0-9.034-0.407-17.971-1.158-26.81l-104.465 56.624c-10.33 5.6-22.794 5.593-33.116 0l-111.671-60.53-111.664 60.53c-10.33 5.6-22.786 5.6-33.116 0l-111.681-60.53-114.354 64.246c1.205 23.347 3.622 47.34 7.165 71.638zM511.997 826.499c73.355 0 151.266-68.329 213.753-187.474 15.58-29.703 29.613-61.657 41.874-94.821l-52.113 30.993c-10.947 6.519-24.576 6.516-35.525 0l-99.11-58.937-99.103 58.937c-10.951 6.513-24.58 6.519-35.522 0.003l-99.129-58.944-82.602 49.121c10.225 25.592 21.494 50.321 33.73 73.645 62.486 119.145 140.399 187.478 213.748 187.478zM511.997-58.499c-154.769 0-283.482 114.092-307.149 262.909l94.777-51.366c10.33-5.6 22.782-5.6 33.113 0l111.684 60.53 111.66-60.53c10.334-5.6 22.794-5.593 33.116 0l111.674 60.53 106.485-57.72c-41.024-124.371-157.917-214.353-295.361-214.353zM351.336 310.662c6.465 6.499 10.182 15.43 10.182 24.57 0 9.17-3.716 18.104-10.182 24.603-6.462 6.462-15.43 10.143-24.57 10.143s-18.108-3.682-24.57-10.143c-6.465-6.465-10.178-15.433-10.178-24.603 0-9.14 3.713-18.104 10.178-24.57 6.462-6.465 15.43-10.182 24.57-10.182 9.143-0.003 18.108 3.718 24.57 10.182zM446.133 358.925c9.137 0 18.104 3.716 24.57 10.182 6.462 6.503 10.182 15.43 10.182 24.566 0 9.143-3.72 18.108-10.182 24.573-6.499 6.499-15.433 10.178-24.57 10.178s-18.104-3.679-24.57-10.178c-6.499-6.465-10.182-15.43-10.182-24.573 0-9.137 3.682-18.104 10.182-24.566 6.465-6.462 15.399-10.182 24.57-10.182zM565.466 300.477c9.174 0 18.104 3.716 24.57 10.182 6.462 6.499 10.182 15.43 10.182 24.57 0 9.17-3.72 18.104-10.182 24.603-6.465 6.462-15.43 10.143-24.57 10.143-9.137 0-18.104-3.682-24.57-10.143-6.462-6.499-10.182-15.433-10.182-24.603 0-9.14 3.72-18.070 10.182-24.57 6.464-6.46 15.43-10.182 24.57-10.182zM684.832 358.925c9.14 0 18.108 3.716 24.57 10.182 6.465 6.503 10.182 15.43 10.182 24.566 0 9.143-3.716 18.108-10.182 24.573-6.462 6.465-15.43 10.178-24.57 10.178s-18.104-3.713-24.566-10.178c-6.465-6.465-10.185-15.43-10.185-24.573 0-9.137 3.72-18.064 10.185-24.566 6.46-6.462 15.424-10.182 24.566-10.182z" />
<glyph unicode="&#xe90f;" glyph-name="egg2" d="M726.233 186.796l-129.272-70.208c-11.947-6.478-26.369-6.485-38.319 0l-129.258 70.208-129.286-70.211c-11.964-6.485-26.365-6.485-38.336 0l-104.369 56.689c28.548-170.749 176.5-301.273 354.183-301.273 158.148 0 292.726 103.331 340.582 246.408l-125.924 68.387zM870.796 233.393c0 19.228-0.803 38.974-2.334 59.051-5.916-3.269-12.619-5.089-19.442-5.089-10.599 0-20.904 4.299-28.369 11.785-7.506 7.478-11.76 17.839-11.76 28.431 0 10.612 4.255 20.945 11.76 28.458 7.465 7.485 17.767 11.754 28.369 11.754 3.658 0 7.275-0.541 10.771-1.527-4.761 30.327-11.005 60.985-18.618 91.443l-111.064 66.184-114.454-68.187c-12.647-7.533-28.393-7.533-41.022 0l-114.436 68.187-114.478-68.194c-12.636-7.523-28.389-7.53-41.019 0l-105.589 62.912c-8.923-28.544-16.687-57.554-23.193-86.616 4.555-1.986 8.757-4.796 12.309-8.361 7.458-7.482 11.75-17.811 11.75-28.427 0-10.564-4.293-20.942-11.75-28.434-7.040-7.040-16.618-11.212-26.524-11.674-4.351-29.844-7.213-59.285-8.502-87.85l127.721-69.377 129.293 70.215c11.95 6.489 26.369 6.489 38.326 0l129.252-70.215 129.262 70.215c11.957 6.482 26.372 6.489 38.343 0l123.911-67.305c0.965 10.743 1.489 21.642 1.489 32.623zM326.066 299.142c-7.451-7.485-17.818-11.785-28.369-11.785-10.557 0-20.921 4.299-28.379 11.785-7.451 7.478-11.757 17.839-11.757 28.431 0 10.612 4.306 20.983 11.757 28.458 7.458 7.485 17.825 11.754 28.379 11.754 10.55 0 20.914-4.268 28.369-11.754 7.461-7.513 11.757-17.846 11.757-28.458 0-10.595-4.296-20.911-11.757-28.431zM463.903 366.761c-7.451-7.468-17.808-11.774-28.358-11.774-10.595 0-20.908 4.306-28.382 11.774-7.492 7.492-11.74 17.87-11.74 28.434 0 10.574 4.248 20.945 11.74 28.427 7.475 7.52 17.829 11.778 28.382 11.778 10.55 0 20.863-4.258 28.358-11.778 7.468-7.482 11.774-17.853 11.774-28.427 0-10.564-4.306-20.901-11.774-28.434zM601.709 299.142c-7.471-7.485-17.777-11.785-28.369-11.785-10.55 0-20.908 4.299-28.372 11.785-7.468 7.523-11.754 17.839-11.754 28.431 0 10.612 4.286 20.945 11.754 28.458 7.465 7.485 17.822 11.754 28.372 11.754 10.554 0 20.897-4.268 28.369-11.754 7.465-7.513 11.76-17.846 11.76-28.458 0.003-10.595-4.293-20.911-11.76-28.431zM739.559 366.761c-7.475-7.468-17.818-11.774-28.372-11.774-10.568 0-20.914 4.306-28.372 11.774-7.465 7.533-11.76 17.87-11.76 28.434 0 10.574 4.296 20.945 11.76 28.427 7.458 7.485 17.804 11.778 28.372 11.778 10.554 0 20.897-4.293 28.372-11.778 7.454-7.482 11.75-17.853 11.75-28.427 0-10.564-4.296-20.901-11.75-28.434zM226.583 595.799l98.621-58.771 114.478 68.205c12.636 7.527 28.375 7.52 41.015-0.007l114.45-68.194 114.45 68.194c12.643 7.53 28.375 7.533 41.022 0l55.051-32.802c-13.895 37.281-29.72 73.194-47.232 106.651-72.166 137.864-162.137 216.926-246.863 216.926-84.689 0-174.652-79.062-246.805-216.926-13.826-26.4-26.593-54.362-38.188-83.275z" />
<glyph unicode="&#xe910;" glyph-name="excel" d="M990.996 777.846h-360.842v-117.524h119.375v-79.99h-119.375v-78.178h118.154v-78.769h-118.154v-78.769h118.154v-78.769h-118.154v-78.769h118.154v-78.769h-118.154v-118.154h360.842c18.156 0 33.004 15.399 33.004 34.265v719.163c0 18.865-14.848 34.265-33.004 34.265zM945.231 108.308h-157.538v78.769h157.538v-78.769zM945.231 265.846h-157.538v78.769h157.538v-78.769zM945.231 423.385h-157.538v78.769h157.538v-78.769zM945.231 580.923h-157.538v78.769h157.538v-78.769zM0 782.218v-796.475l590.769-113.743v1024l-590.769-113.782zM373.681 183.926l-68.726 129.93c-2.599 4.844-5.278 13.745-8.074 26.703h-1.063c-1.3-6.105-4.372-15.399-9.216-27.845l-68.962-128.788h-107.087l127.134 199.444-116.303 199.483h109.332l57.029-119.611c4.45-9.452 8.428-20.677 11.973-33.634h1.103c2.245 7.798 6.42 19.377 12.524 34.777l63.409 118.508h100.116l-119.611-197.79 122.959-201.137-106.535-0.039z" />
<glyph unicode="&#xe911;" glyph-name="filter" d="M999.372 746.818c0 50.573-52.23 88.212-159.685 115.076-87.974 21.994-204.348 34.106-327.687 34.106-123.334 0-239.713-12.112-327.687-34.106-107.455-26.864-159.69-64.503-159.69-115.076 0-18.713 7.174-35.651 21.629-50.933l331.702-402.334v-385.094c0-12.613 6.518-24.327 17.235-30.976 5.867-3.64 12.53-5.478 19.218-5.478 5.531 0 11.072 1.259 16.19 3.791l194.783 96.543c12.394 6.144 20.244 18.776 20.263 32.614l0.374 288.575 331.745 402.382c14.445 15.276 21.61 32.2 21.61 50.908zM218.429 795.063c80.329 18.076 184.585 28.030 293.571 28.030s213.247-9.954 293.566-28.030c88.703-19.962 113.637-41.416 119.601-48.245-5.969-6.829-30.898-28.283-119.601-48.245-80.319-18.076-184.585-28.030-293.566-28.030s-213.243 9.954-293.571 28.025c-88.698 19.962-113.637 41.416-119.601 48.245 5.964 6.834 30.903 28.288 119.601 48.25zM581.461 329.825c-5.371-6.518-8.316-14.693-8.326-23.141l-0.365-279.053-121.905-60.425v339.43c0 8.462-2.941 16.662-8.326 23.189l-246.634 299.151c86.487-20.229 198.073-31.345 316.095-31.345 118.026 0 229.608 11.116 316.095 31.345l-246.634-299.151z" />
<glyph unicode="&#xe912;" glyph-name="hie" d="M764.958 681.775h172.653c11.474 0 20.781 9.307 20.781 20.77v172.686c0 11.466-9.307 20.768-20.781 20.768h-172.653c-11.486 0-20.785-9.305-20.785-20.768v-52.067h-235.649c-18.944 0-34.279-15.347-34.279-34.274v-370.612h-121.437v81.472c0 15.38-12.454 27.848-27.85 27.848h-231.497c-15.403 0-27.856-12.468-27.856-27.848v-231.516c0-15.38 12.451-27.848 27.856-27.848h231.499c15.394 0 27.85 12.468 27.85 27.848v81.491h121.437v-370.612c0-18.926 15.332-34.274 34.279-34.274h235.651v-52.067c0-11.464 9.299-20.77 20.785-20.77h172.653c11.474 0 20.781 9.309 20.781 20.77v172.686c0 11.464-9.307 20.77-20.781 20.77h-172.653c-11.486 0-20.785-9.309-20.785-20.77v-52.069h-201.374v336.334h201.374v-52.069c0-11.464 9.299-20.766 20.785-20.766h172.653c11.474 0 20.781 9.303 20.781 20.766v172.686c0 11.464-9.307 20.77-20.781 20.77h-172.653c-11.486 0-20.785-9.307-20.785-20.77v-52.067h-201.374v336.336h201.374v-52.065c-0.004-11.464 9.294-20.77 20.781-20.77z" />
<glyph unicode="&#xe913;" glyph-name="home" d="M1013.036 424.183l-479.986 415.986c-12.031 10.431-29.888 10.431-41.919 0l-171.131-148.219v60.031c0 35.328-28.671 63.997-63.997 63.997s-63.999-28.671-63.999-63.997v-170.939l-180.987-156.859c-13.311-11.583-14.783-31.808-3.2-45.183 11.648-13.311 31.808-14.72 45.183-3.2l458.996 397.812 458.931-397.812c6.143-5.248 13.503-7.808 20.991-7.808 9.023 0 17.791 3.777 24.128 11.008 11.772 13.375 10.238 33.471-3.010 45.183zM552.505 609.393c-11.711 9.663-26.111 14.591-40.511 14.591s-28.8-4.863-40.574-14.591l-319.99-262.327c-14.848-12.16-23.423-30.271-23.423-49.534v-313.527c0-35.328 28.671-63.997 63.997-63.997h191.993v319.988h255.993v-319.99h191.993c35.263 0 63.997 28.671 63.997 63.997v313.527c0 19.328-8.64 37.374-23.488 49.471l-319.988 262.393z" />
<glyph unicode="&#xe914;" glyph-name="warning" d="M1014.276 16.993l-438.343 803.662c-6.471 11.793-15.414 21.119-26.847 27.965-11.405 6.851-23.776 10.28-37.093 10.28s-25.69-3.435-37.101-10.28c-11.411-6.845-20.36-16.171-26.825-27.965l-438.353-803.662c-13.321-23.986-12.941-47.958 1.14-71.931 6.475-11.029 15.322-19.786 26.545-26.245 11.231-6.471 23.31-9.714 36.249-9.714h876.7c12.953 0 25.028 3.243 36.253 9.714 11.235 6.457 20.068 15.216 26.545 26.245 14.080 23.986 14.464 47.944 1.13 71.931zM585.071 74.072c0-5.322-1.819-9.79-5.418-13.403-3.613-3.621-7.895-5.418-12.849-5.418h-109.587c-4.946 0-9.228 1.797-12.841 5.418-3.617 3.613-5.424 8.081-5.424 13.403v108.452c0 5.322 1.809 9.79 5.424 13.403 3.613 3.621 7.889 5.418 12.841 5.418h109.579c4.956 0 9.236-1.797 12.851-5.418 3.605-3.613 5.418-8.081 5.418-13.403v-108.452h0.006zM583.938 287.534c-0.396-3.802-2.395-6.937-6-9.414-3.621-2.475-8.089-3.706-13.417-3.706h-105.597c-5.324 0-9.89 1.239-13.692 3.706-3.814 2.485-5.714 5.612-5.714 9.428l-9.702 260.834c0 5.332 1.905 9.326 5.71 11.987 4.946 4.184 9.512 6.277 13.702 6.277h125.567c4.194 0 8.756-2.085 13.702-6.277 3.802-2.661 5.7-6.277 5.7-10.844l-10.26-261.991z" />
<glyph unicode="&#xe915;" glyph-name="information" d="M512 896c-282.77 0-512-229.23-512-512s229.23-512 512-512 512 229.23 512 512-229.23 512-512 512zM448 704h128v-128h-128v128zM640 64h-256v64h64v256h-64v64h192v-320h64v-64z" />
<glyph unicode="&#xe916;" glyph-name="help" d="M505.166 895.955c-282.746-3.784-508.872-236.088-505.11-518.845 3.784-282.635 236.065-508.828 518.801-505.066 282.691 3.807 508.861 236.11 505.099 518.845-3.784 282.657-236.077 508.839-518.79 505.066zM503.652 72.348l-2.827 0.045c-43.542 1.291-74.24 33.369-73.005 76.266 1.213 42.162 32.657 72.771 74.763 72.771l2.527-0.045c44.755-1.325 75.108-33.080 73.85-77.212-1.247-42.285-32.2-71.825-75.309-71.825zM686.803 435.857c-10.24-14.547-32.757-32.612-61.128-54.717l-31.243-21.571c-17.152-13.334-27.503-25.878-31.388-38.222-3.061-9.717-4.563-12.288-4.831-32.056l-0.045-5.020h-119.296l0.345 10.095c1.458 41.494 2.482 65.903 19.679 86.072 26.98 31.677 86.495 69.999 89.021 71.624 8.526 6.422 15.716 13.735 21.070 21.549 12.522 17.263 18.065 30.854 18.065 44.21 0 18.532-5.498 35.673-16.373 50.933-10.451 14.726-30.308 22.183-59.025 22.183-28.483 0-47.983-9.038-59.648-27.581-11.999-19.066-18.065-39.090-18.065-59.548v-5.087h-123.002l0.223 5.309c3.172 75.342 30.063 129.592 79.894 161.247 31.31 20.157 70.266 30.375 115.723 30.375 59.503 0 109.735-14.458 149.281-42.975 40.070-28.895 60.394-72.17 60.394-128.623 0-31.577-9.973-61.24-29.651-88.198z" />
<glyph unicode="&#xe917;" glyph-name="error" d="M512.013 896c-282.779 0-512.013-229.169-512.013-512 0-282.676 229.234-512 512.013-512 282.792 0 512 229.324 512 512-0.013 282.831-229.221 512-512 512zM705.146 94.397l-193.133 193.069-193.081-193.069-96.534 96.534 193.069 193.133-193.069 193.069 96.534 96.534 193.069-193.069 193.056 192.991 96.534-96.534-193.056-192.991 193.12-193.133-96.509-96.534z" />
<glyph unicode="&#xe918;" glyph-name="import" d="M512.010 819.2l-266.24-249.836h168.96v-262.164h194.56v262.164h168.96l-266.24 249.836zM990.188 228.239l-163 109.681h-100.516l174.1-133.56h-181.484c-5.202 0-9.923-2.642-12.257-6.799l-41.841-114.442h-306.401l-41.841 114.442c-2.324 4.157-7.055 6.799-12.257 6.799h-181.484l174.121 133.56h-100.536l-162.98-109.681c-24.259-14.49-38.758-47.882-32.256-74.199l28.744-157.379c6.513-26.317 35.348-47.862 64.072-47.862h835.256c28.723 0 57.559 21.545 64.082 47.862l28.723 157.379c6.533 26.317-7.987 59.709-32.246 74.199z" />
<glyph unicode="&#xe919;" glyph-name="key" d="M701.629 896c-178.251 0-322.369-144.119-322.369-322.369 0-37.926 7.585-75.852 18.962-113.778l-398.221-398.223v-189.63h189.63v113.778h113.778v113.778h113.778l170.666 170.666c34.134-11.377 72.060-18.962 113.778-18.962 178.253 0 322.369 144.119 322.369 322.369s-144.117 322.371-322.369 322.371zM796.444 554.667c-64.475 0-113.778 49.303-113.778 113.778s49.303 113.778 113.778 113.778 113.778-49.303 113.778-113.778-49.303-113.778-113.778-113.778z" />
<glyph unicode="&#xe91a;" glyph-name="keys" d="M975.145 254.283l-0.049 0.017c-55.112 51.781-120.36 91.603-191.594 116.944l-197.106 70.137c-14.449 59.604-59.389 110.076-122.523 128.365-23.766 6.906-47.78 8.496-70.859 5.644-0.034 12.465-0.9 24.586-2.196 36.476h256.972c27.078 0 49.027 21.947 49.027 49.027v186.096c0 27.065-21.949 49.010-49.027 49.010h-309.97c-56.799 0-105.447-33.559-128.18-81.749-94.002-5.889-166.516-108.78-166.516-239.471 0-66.364 18.748-125.577 49.436-168.613 7.217-10.105 15.124-19.225 23.571-27.425-37.168-67.217-28.017-153.197 29.032-210.227 34.495-34.495 79.68-51.683 124.87-51.683 15.713 0 31.426 2.084 46.696 6.232l51.387-45.598c5.838-5.15 13.221-7.824 20.666-7.824 5.136 0 10.286 1.264 14.975 3.854l21.832 12.010c1.33 0.736 2.775 1.098 4.216 1.098 2.264 0 4.495-0.868 6.168-2.541 2.758-2.724 3.363-6.955 1.526-10.384l-9.381-17.418c-6.838-12.682-4.082-28.425 6.725-38.005 5.825-5.167 13.189-7.843 20.636-7.843 5.116 0 10.282 1.264 14.977 3.859l17.007 9.364c1.33 0.721 2.775 1.081 4.214 1.081 2.264 0 4.495-0.868 6.168-2.524 2.754-2.754 3.38-6.955 1.543-10.384l-0.49-0.883c-10.599-19.618-6.3-43.928 10.397-58.721 9.007-7.99 20.406-12.121 31.903-12.121 7.926 0 15.896 1.971 23.162 5.97l0.477 0.228c1.328 0.741 2.771 1.102 4.212 1.102 2.247 0 4.465-0.868 6.168-2.541 2.758-2.724 3.363-6.94 1.528-10.384-3.641-6.742-4.101-14.779-1.232-21.915 2.822-7.119 8.711-12.61 15.994-14.975 0 0 57.317-18.601 76.548-24.814 6.985-2.258 15.060 0.966 18.535 4.444 4.838 4.835 6.544 11.989 4.461 18.486l-0.034 0.049c-23.322 71.94-61.279 138.289-111.47 194.824l-138.857 156.494c16.073 59.179 1.030 125.066-45.454 171.515-34.508 34.542-79.78 51.815-125.034 51.815-39.284 0-78.108-13.795-110.37-39.809-7.464 7.892-14.155 17.337-20.223 27.834-17.929 31.020-29.296 71.893-29.296 116.376 0 82.028 37.824 152.902 86.44 169.289 4.789-68.694 58.015-123.429 126.017-130.678 1.871-12.512 3.084-25.341 3.084-38.611 0-7.909-1.1-15.698-1.788-23.554-20.112-12.023-37.628-28.063-51.734-47.352 29.721-0.296 58.391-6.842 84.718-18.782 8.038 1.837 16.403 2.526 24.897 1.656 3.346-0.347 6.349-2.15 8.234-4.938 1.871-2.771 2.428-6.249 1.496-9.479l-1.707-5.889c10.252-7.136 20.010-15.106 29.017-24.113 48.714-48.699 70.199-118.47 58.21-185.82l13.793-15.551c17.041 8.202 32.903 18.799 46.599 32.035l67.004-15.158c12.842-2.884 26.127 2.577 33.148 13.698l13.334 21.042c2.052 3.316 6.053 4.825 9.792 3.739 3.724-1.047 6.298-4.461 6.349-8.347l0.164-19.797c0.132-14.404 10.139-26.865 24.226-30.051 12.825-2.918 26.095 2.577 33.114 13.685l10.384 16.398c2.084 3.282 6.070 4.808 9.792 3.761 3.739-1.105 6.317-4.478 6.366-8.371l-0.017-1c0.179-22.304 15.664-41.531 37.428-46.433 19.85-4.495 40.35 3.986 51.208 21.157l0.296 0.428c2.071 3.295 6.036 4.806 9.792 3.737 3.742-1.047 6.3-4.461 6.349-8.347 0.068-7.677 3.546-14.926 9.496-19.799 5.906-4.872 13.712-6.857 21.227-5.412l79.025 15.175c6.742 1.292 12.189 6.232 14.089 12.825 1.915 6.576-0.036 13.661-5.008 18.354zM193.762 276.768c-2.147-2.135-5.035-3.314-8.021-3.314-0.328 0-0.67 0.017-1 0.047-3.346 0.296-6.381 2.069-8.298 4.825-13.712 19.782-16.879 44.466-9.956 66.692 23.918-12.293 73.157-16.179 91.703-3.788l-64.427-64.461zM240.246 743.673c16.254-5.708 30.998-17.958 43.776-34.214-20.683 1.281-37.758 15.204-43.776 34.214zM269.737 804.527c5.412 2.033 11.22 3.295 17.337 3.295 27.242 0 49.34-22.094 49.34-49.34 0-1.771-0.347-3.444-0.528-5.167-18.714 23.196-41.103 40.944-66.149 51.213z" />
<glyph unicode="&#xe91b;" glyph-name="begin" d="M462.633-78.633l131.242 131.247-331.386 331.386 331.386 331.386-131.242 131.247-462.633-462.633zM892.758 846.633l-462.638-462.633 462.638-462.633 131.242 131.247-331.391 331.386 331.391 331.386z" />
<glyph unicode="&#xe91c;" glyph-name="left" d="M827.733 776.533l-119.467 119.467-512-512 512-512 119.467 119.467-392.533 392.533z" />
<glyph unicode="&#xe91d;" glyph-name="right" d="M315.733 896l-119.467-119.467 392.533-392.533-392.533-392.533 119.467-119.467 512 512z" />
<glyph unicode="&#xe91e;" glyph-name="end" d="M430.12 715.386l331.391-331.386-331.391-331.386 131.242-131.247 462.638 462.633-462.638 462.633zM131.242-78.633l462.633 462.633-462.633 462.633-131.242-131.247 331.386-331.386-331.386-331.386z" />
<glyph unicode="&#xe91f;" glyph-name="lock" d="M780.087 455.9h-14.949v186.965c-0.002 139.59-113.552 253.135-253.137 253.135s-253.135-113.545-253.135-253.135v-186.965h-14.949c-52.114 0-94.35-42.238-94.35-94.352v-395.2c0-52.114 42.238-94.35 94.35-94.35h536.169c52.114 0 94.35 42.235 94.35 94.35v395.202c0 52.112-42.233 94.35-94.348 94.35zM563.777 156.279v-68.546c0-28.599-23.175-51.774-51.777-51.774s-51.777 23.175-51.777 51.774v68.562c-22.567 16.184-37.399 42.492-37.399 72.373 0 49.249 39.913 89.196 89.194 89.196 49.247 0 89.158-39.945 89.158-89.196 0-29.897-14.832-56.189-37.399-72.389zM627.065 455.9h-230.129v186.965c0 63.44 51.623 115.063 115.063 115.063s115.065-51.623 115.065-115.063v-186.965z" />
<glyph unicode="&#xe920;" glyph-name="mail" d="M932.564-18.287c23.018 0 42.963 7.6 59.918 22.607l-290.116 290.127c-6.961-4.984-13.707-9.831-20.080-14.44-21.711-15.996-39.332-28.478-52.863-37.422-13.529-8.965-31.529-18.102-53.998-27.431-22.484-9.34-43.431-13.996-62.863-13.996h-1.138c-19.433 0-40.38 4.653-62.863 13.996-22.482 9.329-40.483 18.467-53.998 27.431-13.529 8.944-31.14 21.425-52.863 37.422-6.053 4.438-12.767 9.307-20.025 14.518l-290.171-290.205c16.953-15.007 36.911-22.607 59.927-22.607h841.132zM57.72 477.14c-21.709 14.473-40.96 31.049-57.72 49.721v-441.404l255.707 255.707c-51.156 35.714-117.068 80.987-197.986 135.977zM966.858 477.14c-77.833-52.68-143.984-98.032-198.462-136.079l255.604-255.616v441.415c-16.388-18.296-35.433-34.861-57.142-49.721zM932.564 786.287h-841.13c-29.345 0-51.905-9.909-67.71-29.707-15.817-19.807-23.713-44.578-23.713-74.285 0-23.996 10.478-49.996 31.425-78.007 20.947-28 43.236-49.994 66.856-65.992 12.949-9.149 51.998-36.296 117.148-81.432 35.169-24.371 65.754-45.614 92.036-63.945 22.403-15.609 41.723-29.127 57.674-40.345 1.831-1.285 4.711-3.345 8.533-6.077 4.118-2.958 9.329-6.711 15.758-11.354 12.38-8.954 22.665-16.191 30.856-21.72 8.18-5.531 18.091-11.709 29.718-18.569 11.618-6.851 22.575-12.003 32.86-15.429 10.287-3.425 19.809-5.142 28.569-5.142h1.138c8.758 0 18.283 1.718 28.571 5.142 10.283 3.426 21.231 8.567 32.858 15.429 11.616 6.86 21.514 13.051 29.72 18.569 8.191 5.529 18.476 12.765 30.858 21.72 6.416 4.642 11.627 8.398 15.745 11.344 3.824 2.744 6.702 4.791 8.545 6.087 12.426 8.647 31.791 22.109 57.826 40.187 47.374 32.916 117.144 81.363 209.602 145.535 27.807 19.422 51.039 42.86 69.71 70.281 18.638 27.42 27.982 56.183 27.982 86.279 0 25.145-9.060 46.66-27.14 64.581-18.1 17.898-39.534 26.851-64.296 26.851z" />
<glyph unicode="&#xe921;" glyph-name="new" d="M102.421 691.158h-102.399v-716.843c0-56.235 46.080-102.314 102.399-102.314h716.757v102.314h-716.757v716.843zM921.62 896h-614.398c-56.319 0-102.357-46.080-102.357-102.314v-614.484c0-56.235 46.080-102.314 102.314-102.314h614.398c56.319 0 102.399 46.080 102.399 102.314v614.484c0.043 56.233-46.035 102.314-102.357 102.314zM870.421 435.157h-204.801v-204.842h-102.399v204.844h-204.801v102.526h204.758v204.629h102.399v-204.672h204.842v-102.485z" />
<glyph unicode="&#xe922;" glyph-name="new2" d="M740.651 867.897h-521.288l-219.363-196.199v-768.972h521.637v69.056h-443.971v624.741h225.045v202.405h360.273v-213.725h77.666zM631.035 267.85v213.157h165.473v-213.157h227.492v-154.59h-227.492v-213.157h-165.473v213.157h-227.099v154.59z" />
<glyph unicode="&#xe923;" glyph-name="objects" d="M933.138 647.965h-115.871v-78.796h53.254c27.141 0 49.181-22.002 49.181-49.143v-519.975c0-27.217-22.040-49.295-49.181-49.295h-491.844c-27.141 0-49.104 22.078-49.104 49.295v53.216h-75.179v-119.488c0-34.107 27.597-61.78 61.666-61.78h617.080c34.031 0 61.628 27.674 61.628 61.78v652.481c0 33.992-27.559 61.704-61.628 61.704zM769.608 181.891v652.405c0 33.992-27.712 61.704-61.666 61.704h-617.118c-34.069 0-61.628-27.75-61.628-61.704v-652.405c0-34.183 27.559-61.78 61.628-61.78h617.118c34.031 0 61.666 27.597 61.666 61.78z" />
<glyph unicode="&#xe924;" glyph-name="print" d="M256 96v-192h512v320h-512v-128zM320 160h384v-64h-384v64zM320 32h384v-64h-384v64zM768 672v192h-512v-320h512zM896 672h-64v-192h-640v192h-64c-64 0-128-64-128-128v-320c0-64 64-128 128-128h64v192h640v-192h64c64 0 128 64 128 128v320c0 64-64 128-128 128z" />
<glyph unicode="&#xe925;" glyph-name="role" d="M464.182 241.996c0-24.801-20.107-44.912-44.912-44.912-0.022 0-0.058 0-0.090 0h-227.553c-24.801 0-44.912 20.112-44.912 44.912 0 52.3 42.545 94.841 94.837 94.841h9.4c-22.973 16.833-37.982 43.929-37.982 74.527 0 50.966 41.463 92.429 92.429 92.429s92.429-41.463 92.429-92.429c0-30.599-15.005-57.694-37.982-74.527h9.396c50.975 0 92.685-40.426 94.765-90.898 0.117-1.298 0.175-2.614 0.175-3.943zM1024 695.098v-622.192c0-18.607-15.077-33.684-33.684-33.684h-956.632c-18.607 0-33.684 15.077-33.684 33.684v622.192c0 18.607 15.077 33.684 33.684 33.684h956.632c18.607 0 33.684-15.082 33.684-33.684zM514.874 579.957c0 18.607-15.077 33.684-33.684 33.684h-351.573c-18.607 0-33.684-15.077-33.684-33.684v-391.914c0-18.607 15.077-33.684 33.684-33.684h351.569c18.607 0 33.684 15.077 33.684 33.684v391.914zM919.539 240.281c0 18.607-15.077 33.684-33.684 33.684h-240.613c-18.607 0-33.684-15.077-33.684-33.684s15.077-33.684 33.684-33.684h240.613c18.607 0 33.684 15.077 33.684 33.684zM919.539 384c0 18.607-15.077 33.684-33.684 33.684h-240.613c-18.607 0-33.684-15.077-33.684-33.684s15.077-33.684 33.684-33.684h240.613c18.607 0 33.684 15.077 33.684 33.684zM919.539 527.719c0 18.607-15.077 33.684-33.684 33.684h-240.613c-18.607 0-33.684-15.077-33.684-33.684s15.077-33.684 33.684-33.684h240.613c18.607 0 33.684 15.077 33.684 33.684z" />
<glyph unicode="&#xe926;" glyph-name="rss" d="M831.999 896h-640c-106.047 0-191.999-85.952-191.999-191.999v-640c0-106.049 85.952-191.999 191.999-191.999h640c106.049 0 191.999 85.952 191.999 191.999v640c0.002 106.047-85.95 191.999-191.999 191.999zM276.159 65.473c-46.017 0-83.393 37.12-83.393 83.135 0 45.697 37.376 83.264 83.393 83.264 46.144 0 83.455-37.567 83.52-83.264 0.002-45.952-37.312-83.135-83.52-83.135zM485.695 64.768c0 78.657-30.527 152.384-85.823 207.553-55.296 55.425-128.832 86.017-206.977 86.017v120.064c227.903 0 413.44-185.535 413.44-413.631h-120.64zM698.751 64.897c0 279.103-226.88 506.239-505.727 506.239v120.064c345.216 0 626.176-281.089 626.176-626.303h-120.449z" />
<glyph unicode="&#xe927;" glyph-name="save" d="M832 896h-64v-416h-512v416h-256v-1024h1024v832l-192 192zM896-64h-768v448h768v-448zM192 320h640v-64h-640v64zM192 192h640v-64h-640v64zM192 64h640v-64h-640v64zM576 832h128v-288h-128v288z" />
<glyph unicode="&#xe928;" glyph-name="search" d="M995.866 35.865l-234.921 234.94c-35.003-54.438-81.327-100.738-135.765-135.744l234.94-234.94c37.506-37.498 98.318-37.498 135.744 0 37.508 37.437 37.508 98.248 0.002 135.744zM767.998 512c0 212.059-171.933 384-383.996 384-212.059 0-384-171.942-384-384s171.942-383.992 384-383.992c212.063 0 383.996 171.933 383.996 383.992zM384.002 224.011c-158.813 0-287.998 129.174-287.998 287.987s129.185 287.998 287.998 287.998c158.809 0 288.004-129.185 288.004-287.998s-129.195-287.987-288.004-287.987zM160.005 512h63.992c0 88.222 71.784 159.999 160.003 159.999v63.998c-123.495 0-223.995-100.5-223.995-223.997z" />
<glyph unicode="&#xe929;" glyph-name="tools" d="M964.105 33.642l-329.992 330.005c-3.091 3.103-6.396 5.856-9.799 8.432l58.446 61.542c2.988 3.010 5.815 6.175 8.417 9.429 77.592-29.268 168.639-12.815 231.006 49.544 45.491 45.505 68.431 108.429 62.879 172.648-0.602 7.267-5.416 13.55-12.262 16.031-6.861 2.506-14.549 0.797-19.712-4.347l-105.76-105.753-107.078 26.992-30.367 110.457 105.734 105.741c5.188 5.171 6.885 12.866 4.385 19.719-2.489 6.872-8.77 11.646-16.058 12.286-64.212 5.535-127.14-17.393-172.648-62.899-62.314-62.314-78.81-153.312-49.574-230.873-3.18-2.689-6.345-5.548-9.448-8.606l-86.022-82.617-157.967 157.952c-1.972 1.979-4.077 3.72-6.245 5.354 1.853 3.252 3.656 6.6 5.339 10.075 33.362-6.421 94.352 58.546 146.151 110.325l-150.904 150.921c-67.479-67.49-116.753-112.783-110.357-146.145-15.427-7.537-29.179-16.753-38.952-26.539l-21.257-21.251c-13.801-13.82-22.125-31.007-25.096-48.917-2.062-2.355-4.16-4.836-6.245-7.488l-7.922-9.956c-0.221-0.244-0.903-1.224-1.093-1.475l-7.18-10.052c-4.491-5.992-8.417-12.5-12.213-18.781-1.401-2.332-2.827-4.668-4.283-6.997-0.232-0.402-0.459-0.797-0.665-1.195l-3.19-6.011c-3.856-7.231-7.858-14.717-11.282-22.954l-0.553-1.311c-4.039-9.593-8.224-19.525-11.144-30.053l-1.413-4.555c-1.156-3.745-2.332-7.482-3.411-11.948l-2.933-14.524c-2.187-9.082-2.923-18.041-3.562-25.976l-0.427-5.214c-1.080-8.228-0.765-15.986-0.472-22.832 0.1-2.293 0.189-4.542 0.257-7.575 0.077-1.263 0.089-2.493 0.128-3.707 0.074-3.059 0.157-6.534 0.748-10.188l1.841-11.786c0.395-2.279 0.729-4.491 1.044-6.613 0.704-4.787 1.426-9.737 2.852-14.437l7.72-26.786c2.381-8.141 10.113-13.531 18.575-12.94 4.478 0.312 8.504 2.249 11.501 5.252 2.676 2.676 4.529 6.194 5.095 10.162l4.002 27.232c0.295 2.162 1.224 5.327 2.185 8.676 0.684 2.323 1.35 4.693 1.864 6.715l2.846 10.164c0.346 1.375 1.018 2.714 1.609 4.090 0.565 1.275 1.131 2.589 1.635 3.883 0.954 2.162 1.853 4.321 2.738 6.538 1.754 4.347 3.411 8.436 5.943 12.451 1.101 1.853 2.123 3.694 3.167 5.573 2.638 4.723 5.144 9.182 8.122 12.879 0.187 0.219 0.357 0.463 0.553 0.723l6.715 9.259c1.375 1.741 2.92 3.386 4.423 5.044 1.067 1.169 2.136 2.344 3.486 3.89 3.964 4.768 8.619 8.925 13.11 13.017l2.406 2.162c3.329 3.091 7.18 5.998 11.231 9.072 1.658 1.239 3.28 2.47 4.874 3.681 2.047 1.326 4.028 2.651 5.979 3.964 3.656 2.47 6.821 4.606 10.479 6.508l7.96 4.529 8.054 3.949c2.808 1.452 5.573 2.57 8.122 3.599 1.513 0.629 3.010 1.239 4.398 1.841 1.413 0.489 2.776 1.018 4.064 1.494 1.726 0.629 3.216 1.233 5.239 1.76l2.172 0.489c2.368-3.832 5.144-7.475 8.474-10.804l156.258-156.264-333.576-320.402c-0.132-0.125-0.257-0.264-0.378-0.378-41.509-41.509-48.269-102.304-6.753-143.826 41.516-41.509 98.446-30.867 139.945 10.628 0.183 0.176 0.34 0.34 0.502 0.529l294.275 309.863c1.726-2.034 3.435-4.081 5.352-6.002l329.967-329.994c36.976-36.986 96.952-36.986 133.927 0 36.965 36.963 36.965 96.941 0.002 133.902zM157.015-40.43c-15.285-15.302-40.077-15.302-55.374 0-15.283 15.289-15.283 40.066 0 55.355 15.283 15.278 40.077 15.289 55.374 0 15.27-15.291 15.27-40.066 0-55.355z" />
<glyph unicode="&#xe92a;" glyph-name="settings2" d="M1020.781 440.851c-1.619 14.394-18.402 25.211-32.915 25.211-46.92 0-88.556 27.55-106.018 70.158-17.839 43.64-6.336 94.534 28.632 126.611 11.007 10.062 12.344 26.906 3.113 38.607-24.015 30.495-51.31 58.042-81.112 81.915-11.67 9.365-28.792 8.062-38.912-3.143-30.518-33.799-85.337-46.36-127.697-28.686-44.082 18.543-71.88 63.212-69.159 111.161 0.895 15.061-10.112 28.156-25.127 29.905-38.245 4.423-76.825 4.561-115.185 0.305-14.844-1.638-25.851-14.425-25.352-29.295 1.669-47.477-26.464-91.364-70.108-109.241-41.853-17.096-96.287-4.641-126.744 28.857-10.066 11.034-26.91 12.39-38.637 3.25-30.686-24.076-58.594-51.645-82.83-81.889-9.453-11.758-8.062-28.8 3.056-38.916 35.635-32.271 47.141-83.607 28.628-127.75-17.675-42.085-61.376-69.209-111.405-69.209-16.234 0.522-27.798-10.375-29.573-25.135-4.503-38.466-4.557-77.66-0.221-116.438 1.608-14.455 18.902-25.177 33.574-25.177 44.585 1.139 87.39-26.464 105.347-70.162 17.899-43.64 6.393-94.504-28.628-126.607-10.954-10.062-12.344-26.88-3.113-38.58 23.79-30.301 51.089-57.874 80.997-81.946 11.731-9.453 28.8-8.119 38.969 3.086 30.633 33.883 85.447 46.421 127.639 28.712 44.192-18.486 71.99-63.151 69.27-111.127-0.888-15.069 10.173-28.187 25.127-29.909 19.564-2.282 39.247-3.421 58.983-3.421 18.734 0 37.472 1.029 56.205 3.113 14.848 1.638 25.847 14.425 25.348 29.322-1.718 47.45 26.464 91.338 70.051 109.184 42.135 17.21 96.34 4.614 126.801-28.849 10.123-11.011 26.849-12.341 38.641-3.231 30.629 24.018 58.48 51.565 82.83 81.893 9.449 11.731 8.115 28.8-3.059 38.912-35.635 32.271-47.199 83.615-28.686 127.727 17.404 41.525 59.482 69.407 104.741 69.407l6.332-0.164c14.68-1.193 28.187 10.116 29.966 25.1 4.511 38.5 4.564 77.66 0.229 116.438zM512.81 212.136c-94.176 0-170.78 76.604-170.78 170.78 0 94.172 76.604 170.78 170.78 170.78 94.172 0 170.777-76.608 170.777-170.78 0-94.176-76.604-170.78-170.777-170.78z" />
<glyph unicode="&#xe92b;" glyph-name="settings3" d="M67.228 520.82c5.383-18.455 12.852-36.251 22.3-52.948l-26.913-33.944c-8.788-11.095-7.799-26.913 2.087-36.91l46.357-46.357c9.996-9.996 25.815-10.874 36.91-2.086l33.724 26.694c17.356-9.997 35.811-17.796 55.035-23.288l5.053-43.391c1.648-14.061 13.512-24.606 27.572-24.606h65.581c14.061 0 25.925 10.547 27.572 24.606l4.833 41.853c20.652 5.383 40.425 13.402 58.99 23.837l32.625-25.815c11.095-8.788 26.913-7.799 36.91 2.087l46.357 46.357c9.996 9.996 10.875 25.815 2.087 36.91l-25.375 32.186c10.546 18.236 18.784 37.679 24.277 58.001l39.107 4.504c14.062 1.648 24.606 13.512 24.606 27.572v65.581c0 14.061-10.546 25.925-24.606 27.572l-38.557 4.504c-5.274 20.103-13.182 39.326-23.287 57.342l23.728 29.989c8.788 11.095 7.799 26.913-2.087 36.91l-46.247 46.247c-9.996 9.996-25.815 10.875-36.91 2.087l-29.11-23.069c-18.894 11.095-39.108 19.553-60.308 25.266l-4.394 37.679c-1.648 14.061-13.512 24.606-27.572 24.606h-65.581c-14.061 0-25.925-10.546-27.572-24.606l-4.394-37.679c-21.75-5.822-42.512-14.61-61.846-26.144l-30.209 23.947c-11.095 8.788-26.913 7.799-36.91-2.087l-46.357-46.357c-9.996-9.996-10.875-25.815-2.087-36.91l25.266-31.966c-10.106-18.235-17.796-37.679-22.849-57.891l-40.425-4.614c-14.061-1.648-24.606-13.512-24.606-27.572v-65.581c0-14.061 10.546-25.925 24.606-27.572l42.621-4.944zM304.834 698.228c59.758 0 108.422-48.664 108.422-108.422s-48.664-108.422-108.422-108.422c-59.757 0-108.422 48.664-108.422 108.422s48.664 108.422 108.422 108.422zM953.169 504.672l-34.603 29.22c-10.654 9.008-26.364 8.568-36.469-0.989l-19.114-17.906c-16.147 7.799-33.283 13.292-50.97 16.478l-5.38 26.364c-2.746 13.621-15.379 23.069-29.222 21.97l-45.148-3.845c-13.841-1.208-24.716-12.523-25.156-26.474l-0.878-26.803c-17.357-6.261-33.725-14.83-48.665-25.595l-22.848 15.159c-11.646 7.69-27.134 5.493-36.141-5.163l-29.22-34.822c-9.009-10.655-8.569-26.364 0.986-36.47l19.994-21.31c-6.922-15.599-11.865-31.967-14.72-48.773l-28.561-5.822c-13.621-2.746-23.069-15.379-21.97-29.221l3.845-45.148c1.208-13.841 12.523-24.716 26.474-25.156l30.868-0.988c5.605-14.72 12.963-28.672 21.86-41.743l-17.245-26.034c-7.69-11.644-5.493-27.133 5.162-36.141l34.603-29.22c10.657-9.008 26.364-8.568 36.471 0.989l22.629 21.201c14.83-6.921 30.427-12.084 46.466-15.159l6.263-30.978c2.746-13.621 15.379-23.069 29.22-21.97l45.148 3.845c13.841 1.208 24.716 12.522 25.156 26.474l0.989 30.32c16.478 5.822 32.075 13.731 46.466 23.507l24.937-16.478c11.644-7.69 27.132-5.493 36.141 5.163l29.22 34.603c9.007 10.655 8.567 26.364-0.989 36.47l-20.104 21.31c7.361 15.599 12.745 32.076 15.818 48.994l27.463 5.602c13.621 2.746 23.069 15.379 21.97 29.221l-3.845 45.148c-1.208 13.841-12.523 24.716-26.474 25.156l-27.572 0.879c-5.713 16.038-13.403 31.196-22.959 45.258l15.048 22.629c7.91 11.642 5.713 27.241-4.943 36.248zM783.013 243.669c-48.773-4.175-91.837 32.186-95.9 80.958-4.175 48.773 32.187 91.836 80.958 95.9 48.773 4.174 91.837-32.187 95.9-80.96 4.175-48.775-32.187-91.836-80.958-95.899zM225.193 122.174c-13.841-1.428-24.497-13.071-24.606-27.023l-0.33-27.792c-0.22-13.951 10.106-25.815 23.947-27.573l20.432-2.635c3.405-12.414 8.239-24.278 14.5-35.483l-13.182-16.258c-8.788-10.874-8.129-26.474 1.648-36.47l19.443-19.883c9.777-9.996 25.375-11.095 36.47-2.527l16.367 12.633c11.534-6.811 23.729-12.194 36.47-15.928l2.197-21.091c1.428-13.841 13.072-24.497 27.023-24.606l27.793-0.33c13.95-0.22 25.815 10.106 27.572 23.947l2.527 19.993c13.842 3.406 27.024 8.568 39.546 15.379l15.379-12.413c10.875-8.788 26.475-8.129 36.471 1.648l19.883 19.443c9.996 9.776 11.095 25.375 2.528 36.47l-11.756 15.27c7.25 12.084 12.854 24.936 16.698 38.448l18.235 1.867c13.841 1.428 24.495 13.072 24.606 27.023l0.328 27.793c0.221 13.95-10.105 25.815-23.946 27.572l-17.797 2.307c-3.405 13.402-8.457 26.364-15.048 38.448l11.095 13.621c8.788 10.875 8.129 26.474-1.648 36.47l-19.442 19.883c-9.777 9.997-25.378 11.096-36.471 2.527l-13.293-10.216c-12.522 7.58-25.925 13.402-39.984 17.356l-1.759 17.246c-1.428 13.842-13.071 24.497-27.023 24.606l-27.792 0.33c-13.951 0.22-25.815-10.106-27.573-23.947l-2.197-17.138c-14.499-3.734-28.45-9.447-41.412-16.916l-13.731 11.205c-10.875 8.788-26.475 8.128-36.471-1.648l-19.993-19.554c-9.996-9.776-11.095-25.375-2.527-36.469l11.754-15.16c-6.811-12.084-12.193-24.935-15.709-38.448l-19.223-1.977zM404.578 153.592c39.876-0.439 71.841-33.286 71.403-73.161-0.439-39.876-33.286-71.841-73.161-71.403s-71.841 33.285-71.403 73.161c0.44 39.875 33.286 71.841 73.161 71.403z" />
<glyph unicode="&#xe92c;" glyph-name="shield2" d="M934.48 800.854c-1.644 10.905-10.031 19.571-20.879 21.567l-396.916 73.15c-3.102 0.569-6.272 0.569-9.374 0l-396.916-73.15c-10.848-1.996-19.235-10.662-20.879-21.567-1.696-11.215-40.543-277.329 37.529-507.538 79.008-232.97 359.367-409.977 371.265-417.397 4.188-2.611 8.94-3.919 13.682-3.919s9.499 1.303 13.682 3.919c11.898 7.42 292.257 184.428 371.275 417.397 78.082 230.209 39.23 496.323 37.534 507.538zM512 392.206h-329.915c-38.821 172.773-11.784 348.571-11.784 348.571l341.699 61.738v-410.308zM822.318 322.671c-66.247-191.506-310.318-340.778-310.318-340.778v410.314h329.915c-5.253-23.382-11.701-46.707-19.597-69.535z" />
<glyph unicode="&#xe92d;" glyph-name="sign" d="M570.782 713.684h-349.075c-25.709 0-46.559-20.85-46.559-46.538s20.85-46.538 46.559-46.538h349.075c25.753 0 46.559 20.85 46.559 46.538-0.022 25.687-20.829 46.538-46.559 46.538zM617.319 492.609c0 25.709-20.807 46.538-46.559 46.538h-349.053c-25.709 0-46.559-20.85-46.559-46.538 0-25.709 20.85-46.559 46.559-46.559h349.075c25.731 0 46.538 20.85 46.538 46.559zM396.266 271.513c25.709 0 46.538 20.85 46.538 46.538 0 25.709-20.829 46.559-46.538 46.559h-174.559c-25.709 0-46.559-20.85-46.559-46.559s20.85-46.538 46.559-46.538h174.559zM747.607 113.185l-48.825-32.223v-115.865h-605.075v837.806h605.075v-183.928l93.097 161.247v69.24c0 25.709-20.85 46.538-46.559 46.538h-698.172c-25.709 0-46.538-20.85-46.538-46.538v-930.947c0-25.709 20.829-46.538 46.538-46.538h698.172c25.731 0 46.581 20.85 46.581 46.538v256.545l-22.245-38.476c-5.425-9.39-13.051-17.473-22.049-23.399zM1022.845 680.437c-0.959 4.183-10.785 41.788-70.002 75.994-59.218 34.184-96.692 23.901-100.831 22.615-5.556-1.765-10.24-5.512-13.159-10.567l-290.903-503.852c-1.808-3.159-2.876-6.667-3.094-10.284l-10.894-181.814c-0.523-8.802 3.965-17.125 11.569-21.548 7.669-4.401 17.103-4.096 24.467 0.719l152.010 100.352c3.028 1.961 5.534 4.641 7.342 7.756l290.925 503.939c2.919 5.055 3.813 10.981 2.571 16.689zM628.649 132.249c-7.734 6.253-16.515 12.157-25.949 17.626-9.477 5.469-18.977 10.066-28.258 13.682l3.246 54.512c12.135-1.59 30.132-6.514 52.987-19.674 22.833-13.181 36.058-26.341 43.553-36.036l-45.579-30.11zM325.109 56.451c1.525-9.347 12.31-12.244 19.521-15.251 6.972-2.941 15.295 2.636 21.090 5.447 35.513 17.277 83.619-3.028 121.66-3.028 22.506 0 22.506 34.903 0 34.903-44.359 0-81.266 11.22-125.233 3.965 0 2.549-0.937 5.991-3.682 10.676-8.214 14.053-18.672 18.040-29.151 16.34-0.697 1.656-1.373 3.312-2.353 4.989-2.745 4.488-6.58 6.732-10.894 7.669 12.266 21.439 20.175 44.119 12.135 62.464-2.462 5.578-9.456 8.432-15.077 8.65-23.312 0.871-43.313-23.596-58.303-38.28-37.496-36.755-70.525-78.478-102.487-120.004-13.726-17.844 16.624-35.186 30.132-17.648 28.323 36.777 58.324 72.486 90.613 105.886-7.778-12.767-16.035-25.295-24.729-37.365-12.419-19.195 17.234-35.535 30.132-17.626 3.072 4.684 6.972 8.061 11.242 10.959-0.85-2.157-1.721-4.27-2.593-6.449 0.044 0 0.087-0.022 0.131-0.044-0.675-1.394-1.351-2.789-1.895-4.118-7.8-19.543 21.33-28.498 31.918-13.421 2.68 3.791 5.164 7.843 7.408 12.092-0.153-2.919-0.218-6.841 0.414-10.806z" />
<glyph unicode="&#xe92e;" glyph-name="sortasc" d="M654.669 533.811l-170.92 67.516v-715.65c0-7.561-6.143-13.677-13.69-13.677h-136.978c-7.55 0-13.69 6.113-13.69 13.677v715.65l-170.902-67.516c-5.729-2.239-12.259-0.403-15.991 4.481-1.836 2.467-2.755 5.394-2.755 8.267 0 2.916 0.95 5.874 2.843 8.345l258.116 335.752c2.599 3.369 6.615 5.346 10.863 5.346 4.242 0 8.275-1.989 10.874-5.346l258.103-335.754c3.786-4.884 3.802-11.658 0.086-16.611-3.705-4.884-10.229-6.718-15.959-4.478zM894.26 71.834h-118.466v118.474h-78.988v-118.474h-118.466v-78.98h118.466v-118.472h78.988v118.472h118.466v78.98z" />
<glyph unicode="&#xe92f;" glyph-name="sortdesc" d="M670.624 229.706c3.716-4.937 3.7-11.708-0.086-16.616l-258.1-335.739c-2.599-3.372-6.618-5.351-10.874-5.351-4.231 0-8.264 1.979-10.863 5.351l-258.113 335.769c-1.909 2.467-2.843 5.405-2.843 8.342 0 2.851 0.918 5.788 2.755 8.256 3.716 4.876 10.261 6.731 15.991 4.476l170.899-67.504v715.633c0 7.568 6.143 13.679 13.69 13.679h136.977c7.55 0 13.69-6.111 13.69-13.679v-715.63l170.918 67.504c5.732 2.223 12.254 0.4 15.959-4.489zM578.336 812.744v-78.979h315.917v78.979h-315.917z" />
<glyph unicode="&#xe930;" glyph-name="star" d="M717.037 266.075l110.222-368.592-315.26 220.442-316.444-220.44 111.408 368.592-306.963 233.481 385.185 7.111 126.814 363.851 126.82-363.849 385.181-8.299-306.963-232.297z" />
<glyph unicode="&#xe931;" glyph-name="table" d="M969.919 863.54h-915.836c-29.87 0-54.083-24.208-54.083-54.083v-850.917c0-29.89 24.213-54.083 54.083-54.083h915.836c29.868 0 54.083 24.19 54.083 54.083v850.904c0 29.873-24.215 54.095-54.083 54.095zM192.895-30.646h-149.634v127.113h149.634v-127.113zM192.895 128.899h-149.634v162.237h149.634v-162.237zM192.895 323.611h-149.634v151.437h149.634v-151.437zM192.895 507.503h-149.634v132.498h149.634v-132.498zM403.844-30.646h-178.489v127.113h178.489v-127.113zM403.844 128.899h-178.489v162.237h178.489v-162.237zM403.844 323.611h-178.489v151.437h178.489v-151.437zM403.844 507.503h-178.489v132.498h178.489v-132.498zM598.545-30.646h-162.264v127.113h162.264v-127.113zM598.545 128.899h-162.264v162.237h162.264v-162.237zM598.545 323.611h-162.264v151.437h162.264v-151.437zM598.545 507.503h-162.264v132.498h162.264v-132.498zM782.415-30.646h-151.432v127.113h151.432v-127.113zM782.415 128.899h-151.432v162.237h151.432v-162.237zM782.415 323.611h-151.432v151.437h151.432v-151.437zM782.415 507.503h-151.432v132.498h151.432v-132.498zM980.749-30.646h-165.884v127.113h165.864v-127.113h0.020zM980.749 128.899h-165.884v162.237h165.864v-162.237h0.020zM980.749 323.611h-165.884v151.437h165.864v-151.437h0.020zM980.749 507.503h-165.884v132.498h165.864v-132.498h0.020z" />
<glyph unicode="&#xe932;" glyph-name="tables" d="M763.55 636.782h-720.964c-23.516 0-42.585-19.048-42.585-42.577v-669.859c0-23.516 19.057-42.583 42.585-42.583h720.956c23.508 0 42.564 19.067 42.564 42.583v669.859c0.023 23.528-19.038 42.577-42.556 42.577zM151.868-67.153h-117.792v100.079h117.792v-100.079zM151.868 58.48h-117.792v127.741h117.792v-127.741zM151.868 211.741h-117.792v119.219h117.792v-119.219zM151.868 356.501h-117.792v104.29h117.792v-104.29zM317.927-67.153h-140.51v100.079h140.495v-100.079h0.015zM317.927 58.48h-140.51v127.741h140.495v-127.741h0.015zM317.927 211.741h-140.51v119.219h140.495v-119.219h0.015zM317.927 356.501h-140.51v104.29h140.495v-104.29h0.015zM471.191-67.153h-127.733v100.079h127.733v-100.079zM471.191 58.48h-127.733v127.741h127.733v-127.741zM471.191 211.741h-127.733v119.219h127.733v-119.219zM471.191 356.501h-127.733v104.29h127.733v-104.29zM615.947-67.153h-119.217v100.079h119.217v-100.079zM615.947 58.48h-119.217v127.741h119.217v-127.741zM615.947 211.741h-119.217v119.219h119.217v-119.219zM615.947 356.501h-119.217v104.29h119.217v-104.29zM772.074-67.153h-130.563v100.079h130.563v-100.079zM772.074 58.48h-130.563v127.741h130.563v-127.741zM772.074 211.741h-130.563v119.219h130.563v-119.219zM772.074 356.501h-130.563v104.29h130.563v-104.29zM981.406 886.237h-720.969c-23.514 0-42.575-19.053-42.575-42.585v-183.451h34.067v50.056h117.79v-50.056h25.562v50.056h140.478v-50.056h25.564v50.056h127.731v-50.056h25.541v50.056h119.223v-104.313h-4.77c2.173-7.077 3.35-14.587 3.35-22.371v-3.168h1.42v-119.217h-1.42v-25.549h1.42v-127.737h-1.42v-25.541h1.42v-100.068h-1.42v-51.086h149.032c23.51 0 42.566 19.065 42.566 42.575v669.872c-0.023 23.533-19.084 42.585-42.591 42.585zM989.92 182.315h-130.573v100.060h130.563v-100.060h0.010zM989.92 307.905h-130.573v127.737h130.563v-127.737h0.010zM989.92 461.179h-130.573v119.229h130.563v-119.229h0.010zM989.92 605.946h-130.573v104.311h130.563v-104.313h0.010z" />
<glyph unicode="&#xe933;" glyph-name="unlock" d="M780.084 455.9h-14.949v186.965c0 139.59-113.563 253.135-253.135 253.135s-253.135-113.545-253.135-253.135v-14.325c0-38.125 30.91-69.035 69.035-69.035s69.035 30.912 69.035 69.035v14.325c0 63.44 51.626 115.063 115.065 115.063s115.063-51.623 115.063-115.063v-186.965h-383.147c-52.114 0-94.35-42.238-94.35-94.352v-395.2c0-52.114 42.235-94.35 94.35-94.35h536.169c52.114 0 94.35 42.235 94.35 94.35v395.202c0.002 52.112-42.235 94.35-94.35 94.35zM563.777 156.279v-68.546c0-28.599-23.175-51.774-51.777-51.774s-51.777 23.175-51.777 51.774v68.562c-22.567 16.184-37.399 42.492-37.399 72.373 0 49.249 39.913 89.196 89.194 89.196 49.247 0 89.158-39.945 89.158-89.196 0-29.897-14.832-56.189-37.399-72.389z" />
<glyph unicode="&#xe934;" glyph-name="upload" d="M869.77 243.416v-233.924h-715.642v233.924h-137.424v-302.688c0-37.951 30.744-68.729 68.729-68.729h852.997c38.088 0 68.866 30.744 68.866 68.729v302.688h-137.526zM499.344 886.879l-196.827-237.819c0 0-29.89-28.216 2.528-28.216 32.486 0 110.882 0 110.882 0s0-19.163 0-48.302c0-83.862 0-236.111 0-298.178 0 0-4.475-16.806 21.076-16.806 25.62 0 137.902 0 156.109 0 18.344 0 17.797 14.142 17.797 14.142 0 60.326 0 217.767 0 298.623 0 26.303 0 43.485 0 43.485s63.058 0 102.547 0 9.735 29.411 9.735 29.411-167.518 222.31-190.883 245.778c-16.806 16.909-32.964-2.118-32.964-2.118z" />
<glyph unicode="&#xe935;" glyph-name="user" d="M512 395.197c113.851 0 206.155 112.108 206.155 250.4 0 138.296-30.305 250.403-206.155 250.403s-206.16-112.108-206.16-250.403c0-138.293 92.303-250.4 206.16-250.4zM122.614 12.864c-0.035 8.432-0.070 2.376 0 0v0zM901.369 6.279c0.111 2.308 0.038 16.015 0 0v0zM900.93 22.976c-3.818 240.909-35.281 309.555-276.047 353.008 0 0-33.891-43.186-112.886-43.186s-112.892 43.186-112.892 43.186c-238.139-42.979-271.515-110.607-275.904-345.182-0.36-19.155-0.527-20.161-0.591-17.938 0.015-4.166 0.032-11.873 0.032-25.31 0 0 57.321-115.554 389.354-115.554 332.028 0 389.354 115.554 389.354 115.554 0 8.634 0.006 14.637 0.015 18.722-0.064-1.375-0.193 1.29-0.436 16.7z" />
<glyph unicode="&#xe936;" glyph-name="userman" d="M719.593 454.879c27.146 5.806 52.184 28.244 56.264 78.007 3.362 40.73-7.083 61.711-22.505 72.403 42.814 174.507-75.272 208.669-75.272 208.669s-88.251 149.715-260.427 44.652c-21.9-13.36-55.95-38.959-76.236-65.387-32.57-34.655-54.739-90.986-58.214-182.218-21.026-8.025-37.547-28.334-33.444-78.097 4.304-52.027 31.449-74.174 60.007-78.702 38.555-93.9 114.679-171.279 204.769-171.279 90.291 0 166.572 77.738 205.060 171.952zM514.533 326.705c-104.166 0-188.046 141.444-188.046 258.567 0 16.050 0.516 30.934 1.502 44.742 152.36-6.658 242.472 54.426 291.518 107.417 46.513-46.356 70.677-104.906 83.028-148.37 0-1.255 0.022-2.488 0.022-3.766 0.022-117.145-83.835-258.589-188.024-258.589zM454.862 149.62l12.060 49.92c1.39 5.761 4.371 10.692 8.406 14.481-1.233 0.874-2.443 1.793-3.631 2.757l-107.73 89.193-65.566-15.332c-111.026-26.114-189.257-119.88-189.257-227.431v-141.22c0-27.796 24.725-49.965 54.314-49.965h277.53l42.321 241.239c-19.009 0.247-32.929 17.798-28.446 36.358zM726.721 290.638l-64.67 15.332-107.618-89.193c-1.188-0.964-2.354-1.883-3.587-2.757 4.057-3.788 7.039-8.72 8.451-14.481l12.037-49.92c4.506-18.538-9.415-36.112-28.446-36.381l42.321-241.239h277.53c29.589 0 52.094 22.147 52.094 49.965v141.22c0.045 107.574-77.088 201.339-188.114 227.453z" />
<glyph unicode="&#xe937;" glyph-name="users" d="M617.94 666.971c47.347-29.686 80.548-79.921 86.592-138.233 19.309-9.022 40.74-14.211 63.462-14.211 82.95 0 150.182 67.232 150.182 150.169 0 82.95-67.232 150.182-150.182 150.182-82.158-0.026-148.801-66.056-150.054-147.907zM519.553 359.477c82.95 0 150.182 67.244 150.182 150.182s-67.244 150.169-150.182 150.169c-82.937 0-150.207-67.244-150.207-150.182s67.27-150.169 150.207-150.169zM583.257 349.24h-127.435c-106.029 0-192.289-86.273-192.289-192.302v-155.843l0.396-2.441 10.735-3.361c101.186-31.616 189.094-42.159 261.45-42.159 141.326 0 223.24 40.293 228.288 42.862l10.032 5.073h1.073v155.868c0.038 106.029-86.221 192.302-192.251 192.302zM831.724 504.278h-126.451c-1.367-50.593-22.964-96.151-57.123-128.917 94.247-28.025 163.204-115.422 163.204-218.653v-48.024c124.853 4.575 196.8 39.961 201.541 42.338l10.032 5.086h1.073v155.894c0 106.017-86.26 192.276-192.276 192.276zM256.032 514.502c29.379 0 56.714 8.575 79.87 23.182 7.361 48.012 33.098 89.966 69.864 118.54 0.153 2.811 0.422 5.597 0.422 8.434 0 82.95-67.244 150.182-150.156 150.182-82.963 0-150.182-67.232-150.182-150.182 0-82.912 67.219-150.156 150.182-150.156zM390.904 375.361c-33.993 32.6-55.513 77.915-57.085 128.201-4.69 0.345-9.329 0.716-14.108 0.716h-127.422c-106.029 0-192.289-86.26-192.289-192.276v-155.868l0.396-2.402 10.735-3.386c81.174-25.341 153.619-37.021 216.544-40.702v47.066c0.026 103.231 68.957 190.602 163.229 218.653z" />
<glyph unicode="&#xe938;" glyph-name="users2" d="M281.044 722.027c0 72.492 58.769 131.261 131.271 131.261 72.492 0 131.267-58.769 131.267-131.261s-58.775-131.259-131.267-131.259c-72.502-0.002-131.271 58.767-131.271 131.259zM475.397 501.34c1.316 28.582 11.156 55.037 26.985 76.906-11.11 2.327-22.592 3.563-34.374 3.563h-111.372c-11.748 0-23.215-1.226-34.267-3.524 16.846-23.366 26.922-51.902 27.087-82.794 20.477 11.263 43.973 17.675 68.93 17.675 20.244 0 39.516-4.218 57.012-11.826zM497.616 489.558c38.128-23.91 64.865-64.351 69.755-111.315 15.536-7.261 32.8-11.45 51.090-11.45 66.796 0 120.937 54.146 120.937 120.94 0 66.802-54.141 120.937-120.937 120.937-66.185-0.002-119.84-53.176-120.845-119.112zM418.383 241.927c66.784 0 120.929 54.162 120.929 120.937 0 66.784-54.145 120.937-120.929 120.937-66.79 0-120.958-54.15-120.958-120.937 0.002-66.775 54.167-120.937 120.958-120.937zM469.683 233.696h-102.61c-85.38 0-154.858-69.472-154.858-154.864v-125.506l0.327-1.966 8.638-2.686c81.485-25.45 152.277-33.961 210.55-33.961 113.792 0 179.776 32.449 183.841 34.525l8.082 4.090h0.858v125.506c0.002 85.39-69.436 154.862-154.827 154.862zM669.788 358.539h-101.84c-1.106-40.748-18.496-77.443-45.999-103.819 75.896-22.569 131.425-92.945 131.425-176.078v-38.672c100.532 3.702 158.476 32.179 162.292 34.099l8.084 4.111h0.858v125.529c0.011 85.369-69.461 154.831-154.82 154.831zM697.010 611.249c38.129-23.914 64.865-64.356 69.743-111.321 15.538-7.261 32.8-11.442 51.090-11.442 66.809 0 120.946 54.139 120.946 120.923 0 66.803-54.139 120.937-120.946 120.937-66.175 0.008-119.827-53.178-120.833-119.097zM869.159 480.23h-101.819c-1.106-40.748-18.495-77.443-45.998-103.817 75.894-22.561 131.424-92.946 131.424-176.080v-38.672c100.522 3.694 158.478 32.168 162.294 34.101l8.072 4.097h0.869v125.544c0.011 85.361-69.461 154.827-154.843 154.827zM206.181 366.791c23.66 0 45.659 6.911 64.316 18.676 5.933 38.664 26.663 72.458 56.263 95.462 0.124 2.269 0.332 4.51 0.332 6.802 0 66.802-54.156 120.937-120.912 120.937-66.813 0-120.946-54.133-120.946-120.937s54.131-120.94 120.946-120.94zM314.791 254.72c-27.375 26.25-44.706 62.744-45.982 103.256-3.765 0.281-7.503 0.564-11.352 0.564h-102.599c-85.392 0-154.858-69.462-154.858-154.843v-125.517l0.317-1.954 8.649-2.697c65.356-20.437 123.706-29.83 174.386-32.766v37.893c0.010 83.12 55.526 153.507 131.439 176.065z" />
<glyph unicode="&#xe939;" glyph-name="zip" d="M908.039 529.72h-24.589v118.641c0 0.74-0.116 1.485-0.215 2.234-0.039 4.712-1.541 9.338-4.766 13.006l-197.428 225.532c-0.062 0.058-0.12 0.078-0.159 0.14-1.177 1.315-2.547 2.409-4.002 3.354-0.428 0.288-0.861 0.529-1.311 0.781-1.255 0.684-2.59 1.253-3.961 1.666-0.374 0.103-0.708 0.254-1.078 0.351-1.492 0.355-3.040 0.575-4.607 0.575h-485.217c-22.156 0-40.156-18.021-40.156-40.158v-326.111h-24.585c-31.695 0-57.396-25.691-57.396-57.398v-298.468c0-31.69 25.7-57.394 57.396-57.394h24.585v-204.316c0-22.139 18-40.156 40.156-40.156h662.587c22.137 0 40.156 18.017 40.156 40.156v204.314h24.589c31.686 0 57.39 25.706 57.39 57.394v298.459c0.002 31.707-25.702 57.398-57.388 57.398zM180.705 855.833h465.139v-205.457c0-11.092 8.996-20.077 20.079-20.077h177.372v-100.592h-662.589v326.126zM603.823 478.329v-299.837h-68.069v299.837h68.069zM273.25 422.28v56.049h217.529v-39.158l-139.678-202.857v-1.763h141.911v-56.059h-233.105v36.488l142.808 205.511v1.789h-129.465zM843.295-76.971h-662.589v193.441h662.587v-193.441zM850.283 315.943c-23.129-21.797-57.381-31.568-97.423-31.568-8.918 0-16.902 0.43-23.136 1.324v-107.205h-67.167v295.831c20.902 3.575 50.256 6.23 91.627 6.23 41.833 0 71.621-8.001 91.657-24.019 19.117-15.122 32.020-40.038 32.020-69.403 0.007-29.359-9.784-54.269-27.579-71.19zM757.765 429.397c-13.822 0-23.168-1.339-28.040-2.682v-88.52c5.763-1.333 12.902-1.785 22.695-1.785 36.019 0 58.275 18.256 58.275 48.934 0.002 27.587-19.128 44.053-52.93 44.053z" />
<glyph unicode="&#xe93a;" glyph-name="exportexcel" d="M743.028 512h-135.292l-95.73-141.032-95.744 141.032h-135.288l162.162-242.464-182.974-269.536h262.24v91.576h-60.556l50.156 74.994 111.396-166.57h140.442l-182.976 269.536 162.164 242.464zM903.434 696.57l-142.868 142.862c-31.108 31.112-92.566 56.568-136.566 56.568h-480c-44 0-80-36-80-80v-864c0-44 36-80 80-80h736c44 0 80 36 80 80v608c0 44-25.458 105.458-56.566 136.57zM858.18 651.314c3.128-3.13 6.25-6.974 9.278-11.314h-163.458v163.456c4.34-3.030 8.184-6.15 11.312-9.28l142.868-142.862zM896-48c0-8.672-7.328-16-16-16h-736c-8.672 0-16 7.328-16 16v864c0 8.672 7.328 16 16 16h480c4.832 0 10.254-0.61 16-1.704v-254.296h254.296c1.094-5.746 1.704-11.166 1.704-16v-608z" />
<glyph unicode="&#xe93b;" glyph-name="exportexcel2" d="M739.728 21.088v-149.088l171.68 208.473-115.697-3.303c-30.914 0.033-55.982-25.134-55.982-56.082zM855.26 896h-686.586c-31.079 0-56.082-25.167-56.082-55.982v-912.002c0-30.98 25.002-55.982 56.082-55.982h515.336v198.762c0 30.98 25.101 56.049 56.082 56.049h171.349v713.174c0 30.815-25.101 55.982-56.181 55.982zM546.812 768.413c0 8.852 4.294 15.986 9.611 15.986h257.321c5.318 0 9.71-7.167 9.71-15.986v-26.654c0-8.785-4.393-15.919-9.71-15.919h-257.321c-5.318 0-9.611 7.167-9.611 15.919 0 0 0 26.654 0 26.654zM824.478 669.131v-26.72c0-8.785-4.294-15.919-9.611-15.919h-257.387c-5.284 0-9.611 7.167-9.611 15.919v26.72c0 8.785 4.327 15.919 9.611 15.919h257.387c5.318 0 9.611-7.167 9.611-15.919zM209.001 514.428c15.787 0 30.287 4.393 43.333 13.079 13.079 8.653 32.169 31.476 57.271 68.302l26.786 39.667-56.049 103.708c-18.331 33.854-32.037 54.628-41.054 62.258-9.050 7.662-19.123 11.923-30.287 12.815v12.914h180.267v-12.914l-9.413-0.33-18.099-6.242c-1.85-1.618-2.774-4.327-2.774-7.993 0-3.468 0.528-7.035 1.75-10.833 0.628-1.552 3.864-7.795 9.71-18.76l25.432-47.23 13.244 18.76c18.529 25.465 27.81 43.333 27.81 53.538 0 4.822-1.982 8.951-6.077 12.319s-11.329 5.681-21.732 6.771v12.914h115.103v-12.914c-14.169-0.396-27.446-4.789-39.601-12.98-12.352-8.29-26.125-24.176-41.45-47.825l-34.052-52.184 56.247-107.143c19.52-37.289 34.977-61.036 46.239-70.944 6.242-5.284 14.896-8.191 25.762-8.719v-12.518h-181.192v12.518c14.070 1.156 22.822 3.039 26.257 5.549 3.369 2.642 5.020 6.077 5.020 10.503 0 6.374-3.732 16.646-11.163 30.584l-28.173 52.845-24.044-35.175c-10.833-15.919-16.976-25.465-18.364-28.371-1.916-4.525-2.774-8.389-2.774-11.857 0-5.417 1.057-9.809 3.369-13.409 2.18-3.666 5.152-6.242 8.951-7.993 3.864-1.75 10.866-2.642 21.105-2.642v-12.518h-127.356v12.452zM523.097 68.484c0-8.852-5.086-15.919-11.461-15.919h-305.080c-6.341 0-11.494 7.101-11.494 15.919v26.72c0 8.785 5.119 15.986 11.494 15.986h305.080c6.341 0 11.461-7.233 11.461-15.986 0 0 0-26.72 0-26.72zM817.641 184.544c0-8.785-9.71-15.986-21.666-15.986h-579.245c-11.923 0-21.666 7.233-21.666 15.986v26.786c0 8.785 9.743 15.853 21.666 15.853h579.212c11.956 0 21.666-7.101 21.666-15.853l0.033-26.786zM817.641 301.826c0-8.918-9.71-15.919-21.666-15.919h-579.245c-11.923 0-21.666 7.035-21.666 15.919v26.654c0 8.785 9.743 15.919 21.666 15.919h579.212c11.956 0 21.666-7.167 21.666-15.919l0.033-26.654zM817.641 416.764c0-8.852-9.71-16.052-21.666-16.052h-579.245c-11.923 0-21.666 7.233-21.666 16.052v26.588c0 8.918 9.743 15.986 21.666 15.986h579.212c11.956 0 21.666-7.101 21.666-15.986l0.033-26.588zM825.601 543.856c0-8.785-4.327-15.919-9.71-15.919h-257.387c-5.384 0-9.611 7.167-9.611 15.919v26.687c0 8.785 4.228 15.919 9.611 15.919h257.354c5.384 0 9.71-7.167 9.71-15.919v-26.687z" />
<glyph unicode="&#xe93c;" glyph-name="exportword" d="M639.778 420.108h44.21l-51.012-226.178-66.324 318.010h-106.55l-77.114-318.010-57.816 318.010h-111.394l113.092-511.88h108.838l76.294 302.708 68.256-302.708h100.336l129.628 511.88h-170.446v-91.832h0.002zM903.434 696.57l-142.868 142.862c-31.108 31.112-92.566 56.568-136.566 56.568h-480c-44 0-80-36-80-80v-864c0-44 36-80 80-80h736c44 0 80 36 80 80v608c0 44-25.458 105.458-56.566 136.57zM858.18 651.314c3.128-3.13 6.25-6.974 9.278-11.314h-163.458v163.456c4.34-3.030 8.184-6.15 11.312-9.28l142.868-142.862zM896-48c0-8.672-7.328-16-16-16h-736c-8.672 0-16 7.328-16 16v864c0 8.672 7.328 16 16 16h480c4.832 0 10.254-0.61 16-1.704v-254.296h254.296c1.094-5.746 1.704-11.166 1.704-16v-608z" />
<glyph unicode="&#xe93d;" glyph-name="exportword2" d="M739.794-128v149.088c0 30.98 25.035 56.115 56.049 56.115l115.532 3.303-171.58-208.506zM855.359 896h-686.619c-31.079 0-56.115-25.101-56.115-55.982v-911.936c0-30.98 25.068-56.049 56.115-56.049h515.303v198.829c0 30.914 25.167 56.049 56.115 56.049h171.25v713.107c-0.033 30.881-25.035 55.982-56.049 55.982zM817.674 416.764c0-8.785-9.677-15.986-21.666-15.986h-579.146c-11.989 0-21.732 7.233-21.732 15.986v26.654c0 8.852 9.743 15.986 21.732 15.986h579.146c11.989 0 21.666-7.167 21.666-15.986v-26.654zM817.674 301.892c0-8.918-9.677-15.986-21.666-15.986h-579.146c-11.989 0-21.732 7.101-21.732 15.986v26.588c0 8.852 9.743 16.052 21.732 16.052h579.146c11.989 0 21.666-7.233 21.666-16.052v-26.588zM817.674 184.61c0-8.852-9.677-15.986-21.666-15.986h-579.146c-11.989 0-21.732 7.167-21.732 15.986v26.654c0 8.852 9.743 16.052 21.732 16.052h579.146c11.989 0 21.666-7.233 21.666-16.052v-26.654zM523.163 68.484c0-8.785-5.119-15.853-11.461-15.853h-305.113c-6.341 0-11.494 7.101-11.494 15.853v26.72c0 8.785 5.119 15.986 11.494 15.986h305.113c6.308 0 11.461-7.233 11.461-15.986v-26.72zM408.358 519.778l-55.619 197.342-62.951-197.342h-22.69c0 0-84.254 251.706-91.124 260.987-4.426 6.407-11.163 10.932-20.114 13.641v11.031h124.945v-11.031c-8.488 0-14.334-1.354-17.472-4.128s-4.756-5.945-4.756-9.479c0-3.369 44.72-138.486 44.72-138.486l34.944 108.299c0 0-12.518 31.278-16.481 35.406-3.996 3.996-10.173 6.837-18.496 8.389v11.031h126.828v-11.031c-9.941-0.595-16.151-2.147-18.793-4.525-2.642-2.51-3.963-6.011-3.963-10.569 0-4.327 42.639-137 42.639-137s38.676 123.525 38.676 128.677c0 7.729-1.684 13.343-5.053 16.976-3.336 3.534-9.875 5.681-19.553 6.44v11.031h73.322v-11.031c-8.092-1.156-14.598-4.393-19.321-9.611-4.822-5.218-87.921-264.984-87.921-264.984h-21.798v-0.033zM823.487 741.759c0-8.785-4.327-15.919-9.677-15.919h-257.288c-5.351 0-9.677 7.167-9.677 15.919v26.72c0 8.785 4.327 15.919 9.677 15.919h257.288c5.351 0 9.677-7.167 9.677-15.919v-26.72zM825.601 543.856c0-8.852-4.327-15.853-9.644-15.853h-257.321c-5.417 0-9.677 7.035-9.677 15.853v26.687c0 8.785 4.261 15.986 9.677 15.986h257.321c5.318 0 9.644-7.233 9.644-15.986v-26.687zM824.544 642.477c0-8.852-4.261-15.919-9.677-15.919h-257.288c-5.351 0-9.677 7.101-9.677 15.919v26.654c0 8.852 4.327 15.986 9.677 15.986h257.288c5.417 0 9.677-7.167 9.677-15.986v-26.654z" />
<glyph unicode="&#xe93e;" glyph-name="word" d="M108.895 416.224c-5.638-0.098-9.303-0.696-11.454-1.288v-80.972c2.151-0.589 5.657-0.661 8.812-0.715 23.18-0.606 38.536 13.319 38.536 43.465 0.17 26.208-13.843 39.845-35.894 39.51zM624.616-39.588c1.356-0.082 2.695-0.19 4.070-0.19h310.022c36.264 0 65.76 29.506 65.76 65.76v718.674c0 36.252-29.496 65.762-65.76 65.762h-310.022c-1.365 0-2.714-0.135-4.070-0.197v85.78l-605.083-80.754v-860.404l605.083-82.842v88.412zM624.616 480.133h326.833v-222.335h-326.833v222.335zM844.743 498.923h-220.128v87.923h220.128v-87.923zM938.708-2.221h-310.022c-1.384 0-2.732 0.222-4.070 0.425v240.805h342.274v-213.045c0-15.542-12.639-28.185-28.181-28.185zM628.688 772.83h310.022c15.542 0 28.181-12.646 28.181-28.183v-245.724h-103.358v106.712h-238.917v166.785c1.339 0.196 2.679 0.411 4.072 0.411zM153.422 326.36c-12.239-10.771-30.605-15.486-52.656-14.873-13.029 0.348-22.162 1.505-28.33 2.585v120.304c9.1 1.849 21.060 3.051 33.816 3.352 21.469 0.542 35.616-3.413 46.808-12.367 12.166-9.593 19.868-25.195 19.868-47.719 0-24.429-8.24-41.149-19.506-51.282zM242.671 306.752c-36.602 1.010-57.541 30.349-57.541 66.882 0 38.449 23.099 67.758 59.619 68.67 39.064 0.977 60.931-29.394 60.931-66.515-0.002-44.084-25.892-70.091-63.009-69.037zM395.454 328.642c9.611-0.182 20.385 1.714 26.757 4.102l4.894-24.927c-5.968-2.753-19.289-5.503-36.441-5.028-47.577 1.34-71.444 31.093-71.444 69.595 0 46.121 32.711 72.606 74.582 73.649 16.551 0.412 29.261-2.601 35.031-5.404l-6.624-25.354c-6.57 2.611-15.652 4.977-26.972 4.797-25.011-0.386-44.089-15.49-44.089-45.945 0.003-27.404 16.238-44.95 44.306-45.485zM528.579 301.065l-13.947 26.678c-5.682 10.203-9.301 17.763-13.573 26.182h-0.463c-3.156-8.321-6.966-15.762-11.647-25.724l-12.459-25.698-37.982 1.038 42.644 71.421-41.139 69.906 38.252 0.921 13.132-25.967c4.481-8.707 7.835-15.733 11.454-23.852h0.44c3.639 9.25 6.568 15.738 10.418 24.181l13.032 26.811 40.476 0.979-44.148-72.16 46.513-75.818-41.004 1.103zM243.986 418.713c-19.006-0.299-29.959-19.331-29.959-44.557 0-25.394 11.322-43.512 30.148-43.872 19.307-0.367 30.476 18.726 30.476 44.561 0 23.858-10.989 44.18-30.665 43.869zM676.101 452.738c6.917 0 12.531-5.605 12.531-12.522 0-6.912-5.614-12.522-12.531-12.522s-12.513 5.61-12.513 12.522c0 6.917 5.596 12.522 12.513 12.522zM707.846 444.914h191.029v-9.394h-191.029v9.394zM676.101 407.325c6.917 0 12.531-5.605 12.531-12.522 0-6.912-5.614-12.527-12.531-12.527s-12.513 5.615-12.513 12.527c0 6.917 5.596 12.522 12.513 12.522zM707.846 399.509h191.029v-9.394h-191.029v9.394zM676.101 358.479c6.917 0 12.531-5.614 12.531-12.522 0-6.917-5.614-12.526-12.531-12.526s-12.513 5.608-12.513 12.526c0 6.909 5.596 12.522 12.513 12.522zM707.846 350.652h191.029v-9.394h-191.029v9.394zM676.101 312.286c6.917 0 12.531-5.607 12.531-12.522 0-6.917-5.614-12.524-12.531-12.524s-12.513 5.607-12.513 12.524c0 6.916 5.596 12.522 12.513 12.522zM707.846 304.468h191.029v-9.394h-191.029v9.394z" />
<glyph unicode="&#xe93f;" glyph-name="pdf" d="M282.954 465.414c-9.949-0.146-16.326-1.138-20.092-2.11v-131.826c3.758-0.964 9.871-1.073 15.395-1.183 40.678-1.084 67.689 21.595 67.689 70.748 0.292 42.747-24.295 64.961-62.992 64.371zM624.623-39.587c1.341-0.073 2.698-0.193 4.074-0.193h310.018c36.256 0 65.761 29.506 65.761 65.763v718.672c0 36.252-29.506 65.761-65.761 65.761h-310.018c-1.367 0-2.733-0.134-4.074-0.197v85.78l-605.099-80.753v-860.404l605.099-82.844v88.413zM938.715-2.22h-310.018c-1.387 0-2.733 0.221-4.074 0.421v281.974c64.598 11.164 154.303 19.614 231.891 1.385l9.182-17.806c37.037-70.029 76.596-69.57 91.88-66.12 3.506 0.788 5.395 1.668 5.395 1.668l2.056 1.093c0.696 0.44 1.239 1 1.87 1.477v-175.907c0-15.534-12.641-28.185-28.182-28.185zM650.917 313.597c48.549 59.21 87.779 114.486 113.045 151.921l0.092-0.207 0.275 0.423c19.835-41.816 52.533-106.495 75.046-150.642l-0.073 0.019 0.771-1.479c-64.018 10.936-132.762 6.945-189.303-0.872l0.826 0.964-0.68-0.127zM765.119 589.882c1.945 3.431 4.789 4.339 9.89 4.114 0.092-0.009 10.221-0.673 14-7.611 2.293-4.132 5.616-17.237-12.256-49.196h-0.019c0 0-2.312-3.845-6.66-10.785-10.019 35.182-9.358 55.727-4.955 63.477zM894.403 270.027c18.366-7.065 34.862-15.771 49.302-26.063 4.147-5.891 7.982-14.368 7.286-18.368-0.037-0.193-0.073-0.386-0.183-0.578-5.929-1.093-29.507-1.827-56.405 45.008zM628.697 772.831h310.018c15.541 0 28.182-12.648 28.182-28.183v-484.711c-0.88 1.258-1.641 2.293-2.091 2.853l-1.193 1.543-1.559 1.155c-24.055 17.561-53.046 31.092-86.257 40.238-23.678 46.238-72.715 142.612-93.329 187.744 11.936 18.385 18.349 29.102 18.643 29.593 18.596 33.152 22.66 59.032 12.376 77.289-9.321 16.524-27.889 21.487-37.376 21.802-15.339 0.698-28.422-5.863-35.523-18.358-10.826-19.078-8.587-52.496 6.715-99.262 0.68-2.161 1.771-4.93 3.212-8.417-24.514-37.077-68.99-101.207-125.898-170.087v446.386c1.348 0.198 2.686 0.414 4.081 0.414zM174.513 389.816c-14.307-14.193-35.339-20.386-59.615-20.165-5.339 0.054-10.165 0.384-13.893 0.99v-69.063l-39.739 1.101v188.56c12.275 2.556 29.647 4.678 54.439 5.28 25.334 0.619 43.683-4.179 56.056-14.4 11.931-9.706 19.981-26.023 19.981-45.384 0-19.38-6.124-35.812-17.228-46.919zM361.077 318.908c-21.463-17.512-53.724-25.146-92.44-24.064-22.808 0.652-38.808 2.57-49.592 4.349v195.691c15.922 3.032 36.861 5.024 59.211 5.569 37.71 0.922 62.552-5.496 82.238-20.073 21.376-15.623 34.941-41.056 34.941-77.844 0-39.876-14.476-67.132-34.358-83.628zM426.665 502.485l133.684 3.192v-40.198l-85.032-1.233v-48.523l79.38 0.197v-39.812l-79.38 0.55v-85.413l-48.665 1.341v209.897h0.014zM117.857 463.467c-8.298-0.129-13.904-1.068-16.846-1.982v-57.023c3.445-0.866 7.721-1.157 13.629-1.157 21.835-0.017 35.426 11.894 35.426 31.913 0.002 18.011-11.7 28.578-32.209 28.248z" />
<glyph unicode="&#xe940;" glyph-name="exportpdf" d="M298.166 371.312c0 27.574-19.147 44.031-52.936 44.031-13.783 0-23.122-1.329-28.019-2.662v-88.544c5.789-1.314 12.906-1.764 22.666-1.764 36.050 0 58.289 18.236 58.289 48.939zM507.305 414.455c-15.142 0-24.907-1.333-30.711-2.668v-196.179c5.793-1.355 15.137-1.355 23.592-1.355 61.382-0.429 101.422 33.364 101.422 104.991 0.45 62.304-36.039 95.211-94.303 95.211zM908.038 529.72h-24.589v118.641c0 0.74-0.117 1.485-0.216 2.235-0.039 4.711-1.537 9.338-4.763 13.004l-197.432 225.532c-0.059 0.058-0.117 0.078-0.158 0.141-1.177 1.314-2.549 2.408-3.999 3.354-0.429 0.288-0.863 0.53-1.313 0.779-1.257 0.686-2.59 1.255-3.962 1.666-0.372 0.104-0.706 0.257-1.078 0.353-1.491 0.353-3.040 0.574-4.609 0.574h-485.215c-22.157 0-40.157-18.020-40.157-40.159v-326.112h-24.583c-31.696 0-57.396-25.689-57.396-57.396v-298.471c0-31.685 25.7-57.391 57.396-57.391h24.585v-204.313c0-22.136 18-40.159 40.157-40.159h662.587c22.136 0 40.157 18.020 40.157 40.159v204.313h24.589c31.687 0 57.393 25.706 57.393 57.391v298.462c-0.002 31.705-25.708 57.396-57.394 57.396zM180.706 855.834h465.136v-205.456c0-11.093 9-20.078 20.078-20.078h177.372v-100.593h-662.587v326.127zM673.665 321.492c0-57.402-20.902-96.981-49.861-121.461-31.551-26.245-79.607-38.696-138.31-38.696-35.137 0-60.044 2.225-76.969 4.441v294.513c24.91 3.995 57.406 6.221 91.662 6.221 56.911 0 93.844-10.24 122.774-32.025 31.127-23.137 50.705-60.053 50.705-112.993zM150.030 164.442v295.848c20.898 3.54 50.274 6.221 91.647 6.221 41.813 0 71.626-8.009 91.637-24.035 19.134-15.116 32.005-40.034 32.005-69.397 0-29.372-9.76-54.282-27.569-71.176-23.131-21.804-57.381-31.597-97.43-31.597-8.883 0-16.918 0.452-23.118 1.344v-107.215l-67.172 0.007zM843.294-76.971h-662.589v193.442h662.587v-193.442zM901.479 408.677h-115.244v-68.51h107.667v-55.167h-107.667v-120.56h-68.030v299.845h183.275v-55.608z" />
<glyph unicode="&#xe941;" glyph-name="doc" d="M908.037 529.715h-24.585v118.657c0 0.74-0.12 1.485-0.217 2.234-0.039 4.712-1.539 9.338-4.764 13.004l-197.432 225.523c-0.058 0.058-0.12 0.078-0.159 0.14-1.175 1.315-2.547 2.409-3.999 3.354-0.431 0.288-0.863 0.529-1.315 0.781-1.255 0.684-2.589 1.253-3.961 1.666-0.372 0.103-0.704 0.25-1.076 0.351-1.494 0.355-3.042 0.575-4.607 0.575h-485.217c-22.157 0-40.156-18.021-40.156-40.158v-326.117h-24.584c-31.697 0-57.398-25.685-57.398-57.392v-298.468c0-31.677 25.7-57.394 57.398-57.394h24.584v-204.316c0-22.139 17.998-40.156 40.156-40.156h662.589c22.137 0 40.158 18.017 40.158 40.156v204.314h24.585c31.686 0 57.39 25.706 57.39 57.394v298.459c0.002 31.716-25.704 57.392-57.39 57.392zM180.705 855.842h465.137v-205.45c0-11.099 8.998-20.079 20.079-20.079h177.374v-100.598h-662.589v326.126zM662.518 339.411c0-91.284-55.345-146.618-136.725-146.618-82.603 0-130.931 62.364-130.931 141.657 0 83.44 53.28 145.803 135.472 145.803 85.489 0 132.185-64.009 132.185-140.843zM120.172 198.57v273.41c23.129 3.726 53.274 5.793 85.093 5.793 52.863 0 87.138-9.504 113.987-29.734 28.911-21.483 47.094-55.769 47.094-104.912 0-53.283-19.408-90.038-46.25-112.754-29.329-24.372-73.941-35.929-128.466-35.929-32.648-0.002-55.767 2.064-71.457 4.126zM843.295-76.96h-662.589v193.43h662.589v-193.43zM846.331 245.233c19.001 0 40.070 4.152 52.452 9.090l9.512-49.146c-11.572-5.805-37.59-11.97-71.451-11.97-96.235 0-145.803 59.882-145.803 139.186 0 94.974 67.733 147.861 151.978 147.861 32.627 0 57.431-6.608 68.59-12.397l-12.814-49.966c-12.795 5.364-30.558 10.33-52.87 10.33-49.974 0-88.805-30.156-88.805-92.104-0.009-55.763 33.038-90.884 89.213-90.884zM299.421 341.061c0.413 57.836-33.462 88.396-87.554 88.396-14.045 0-23.151-1.234-28.509-2.482v-182.153c5.356-1.242 14.045-1.242 21.896-1.242 56.992-0.403 94.167 30.989 94.167 97.48zM461.362 335.706c0-54.538 25.613-92.942 67.737-92.942 42.548 0 66.911 40.49 66.911 94.588 0 49.992-23.95 92.929-67.324 92.929-42.524-0.011-67.324-40.486-67.324-94.574z" />
<glyph unicode="&#xe942;" glyph-name="xlsx" d="M908.049 529.72h-24.589v118.641c0 0.74-0.116 1.485-0.204 2.241-0.039 4.706-1.548 9.333-4.774 12.999l-197.441 225.532c-0.062 0.058-0.12 0.078-0.159 0.14-1.177 1.315-2.547 2.409-4.002 3.354-0.428 0.288-0.861 0.529-1.311 0.783-1.255 0.682-2.59 1.255-3.961 1.668-0.374 0.097-0.708 0.25-1.078 0.347-1.492 0.355-3.040 0.575-4.607 0.575h-485.217c-22.156 0-40.156-18.021-40.156-40.158v-326.111h-24.585c-31.695 0-57.396-25.691-57.396-57.398v-298.468c0-31.677 25.7-57.394 57.396-57.394h24.585v-204.316c0-22.139 18-40.156 40.156-40.156h662.587c22.137 0 40.156 18.017 40.156 40.156v204.314h24.589c31.686 0 57.39 25.706 57.39 57.394v298.459c0.002 31.716-25.685 57.398-57.379 57.398zM180.705 855.842h465.139v-205.45c0-11.094 8.996-20.079 20.079-20.079h177.372v-100.592h-662.589v326.12zM587.509 308.332c-39.452 13.744-65.195 35.569-65.195 70.118 0 40.524 33.823 71.524 89.862 71.524 26.765 0 46.509-5.629 60.589-11.977l-11.973-43.329c-9.508 4.568-26.419 11.275-49.675 11.275s-34.529-10.574-34.529-22.908c0-15.156 13.393-21.844 44.039-33.47 41.921-15.511 61.656-37.352 61.656-70.822 0-39.823-30.657-73.65-95.843-73.65-27.125 0-53.901 7.039-67.292 14.45l10.913 44.393c14.452-7.392 36.656-14.805 59.549-14.805 24.686 0 37.704 10.216 37.704 25.725 0.009 14.788-11.264 23.261-39.805 33.475zM496.632 253.725v-45.116h-148.362v237.515h53.931v-192.399h94.431zM175.999 208.609h-61.307l68.706 120.187-66.25 117.337h61.671l20.777-43.347c7.048-14.448 12.338-26.061 17.981-39.472h0.685c5.653 15.156 10.229 25.726 16.202 39.472l20.088 43.347h61.308l-66.95-115.916 70.484-121.588h-62.009l-21.506 42.996c-8.795 16.538-14.437 28.883-21.134 42.627h-0.7c-4.94-13.744-10.916-26.089-18.323-42.627l-19.724-43.017zM843.295-76.971h-662.589v193.441h662.587v-193.441zM843.657 208.609l-21.5 42.996c-8.806 16.553-14.442 28.883-21.14 42.628h-0.684c-4.942-13.746-10.941-26.076-18.353-42.628l-19.705-42.996h-61.325l68.706 120.187-66.246 117.337h61.669l20.803-43.347c7.041-14.448 12.313-26.061 17.963-39.472h0.704c5.627 15.156 10.195 25.726 16.194 39.472l20.081 43.347h61.323l-66.952-115.916 70.471-121.588-62.009-0.021z" />
<glyph unicode="&#xe943;" glyph-name="money" d="M874.038 746.038c-96.703 96.705-225.278 149.962-362.038 149.962s-265.336-53.257-362.038-149.962c-96.705-96.703-149.962-225.278-149.962-362.038s53.257-265.336 149.962-362.038c96.703-96.705 225.278-149.962 362.038-149.962s265.336 53.257 362.038 149.962c96.705 96.703 149.962 225.278 149.962 362.038s-53.257 265.336-149.962 362.038zM512-95.319c-264.299 0-479.319 215.020-479.319 479.319s215.020 479.319 479.319 479.319 479.319-215.020 479.319-479.319-215.020-479.319-479.319-479.319zM838.052 571.479c7.615 4.845 9.857 14.946 5.009 22.559-72.597 114.047-196.36 182.133-331.061 182.133s-258.464-68.087-331.064-182.133c-4.848-7.612-2.604-17.713 5.009-22.559 2.719-1.732 5.758-2.558 8.758-2.558 5.401 0 10.687 2.675 13.8 7.569 66.569 104.568 180.026 166.999 303.496 166.999s236.927-62.429 303.494-166.999c4.848-7.615 14.946-9.859 22.559-5.011zM769.693 232.139c9.024 0 16.34 7.316 16.34 16.34v266.682c0 47.66-38.775 86.436-86.436 86.436-42.076 0-77.227-30.221-84.887-70.096h-11.634v81.264h15.364c9.024 0 16.34 7.316 16.34 16.34s-7.316 16.34-16.34 16.34h-29.835c-0.316 0-0.623-0.028-0.935-0.046-0.312 0.017-0.619 0.046-0.935 0.046h-24.297c-23.437 0-42.503-19.066-42.503-42.503v-71.443h-15.87v71.443c0 23.437-19.066 42.503-42.503 42.503h-24.295c-0.316 0-0.623-0.028-0.935-0.046-0.312 0.017-0.619 0.046-0.935 0.046h-29.835c-9.024 0-16.34-7.316-16.34-16.34s7.316-16.34 16.34-16.34h15.364v-81.264h-11.634c-7.66 39.875-42.812 70.096-84.887 70.096-47.66 0-86.436-38.775-86.436-86.436v-266.682c0-9.024 7.316-16.34 16.34-16.34 77.521 0 142.785 56.749 154.84 131.776h11.373c4.368-27.572 19.676-51.623 42.174-66.368l-54.777-110.629c-1.967-3.974-2.235-8.575-0.745-12.75 1.492-4.174 4.615-7.565 8.654-9.39 1.647-0.745 40.999-18.258 96.173-18.258s94.526 17.513 96.173 18.258c4.039 1.826 7.164 5.216 8.654 9.39s1.222 8.776-0.745 12.75l-54.777 110.629c22.497 14.748 37.807 38.797 42.174 66.368h11.373c12.057-75.027 77.321-131.776 154.842-131.776zM645.721 381.9c-0.251 2.436-2.305 14.593-18.101 14.68l-1.475 0.009c-0.137 0.002-0.275 0.004-0.414 0.004h-37.311c-9.024 0-16.34-7.316-16.34-16.34 0-26.731-15.545-51.104-38.683-60.651-4.185-1.728-7.466-5.113-9.061-9.351s-1.36-8.948 0.649-13.005l53.642-108.335c-14.682-4.379-38.352-9.711-66.628-9.711-28.278 0-51.954 5.334-66.628 9.713l53.642 108.335c2.009 4.057 2.244 8.767 0.649 13.005-1.593 4.238-4.876 7.623-9.061 9.351-23.138 9.547-38.683 33.921-38.683 60.651 0 9.024-7.316 16.34-16.34 16.34h-37.311c-0.139 0-0.277-0.002-0.414-0.004l-1.475-0.009c-15.796-0.087-17.848-12.244-18.101-14.68-0.024-0.224-0.041-0.449-0.054-0.673-3.671-59.758-49.603-107.662-107.574-115.335v249.268c0 29.639 24.114 53.756 53.756 53.756s53.756-24.114 53.756-53.756c0-9.024 7.316-16.34 16.34-16.34h42.766c9.024 0 16.34 7.316 16.34 16.34v97.605h7.955c5.416 0 9.822-4.405 9.822-9.822v-87.783c0-9.024 7.316-16.34 16.34-16.34h48.551c9.024 0 16.34 7.316 16.34 16.34v87.783c0 5.416 4.405 9.822 9.822 9.822h7.955v-97.605c0-9.024 7.316-16.34 16.34-16.34h42.766c9.024 0 16.34 7.316 16.34 16.34 0 29.639 24.114 53.756 53.756 53.756s53.756-24.114 53.756-53.756v-249.268c-57.974 7.671-103.903 55.577-107.574 115.335-0.013 0.222-0.031 0.447-0.054 0.671zM452.085 32.5c-9.024 0-16.34-7.316-16.34-16.34s7.316-16.34 16.34-16.34h119.83c9.024 0 16.34 7.316 16.34 16.34s-7.316 16.34-16.34 16.34h-119.83zM648.17 89.508c0 9.024-7.316 16.34-16.34 16.34h-239.66c-9.024 0-16.34-7.316-16.34-16.34s7.316-16.34 16.34-16.34h239.66c9.024 0 16.34 7.316 16.34 16.34zM916.641 207.434c-8.127 3.924-17.896 0.521-21.822-7.606-70.634-146.208-220.901-240.679-382.819-240.679-221.352 0-407.454 172.788-423.683 393.369-0.662 8.998-8.488 15.748-17.495 15.099-9-0.662-15.759-8.495-15.099-17.495 8.447-114.803 59.701-221.533 144.323-300.529 85.053-79.397 195.841-123.124 311.954-123.124 87.6 0 172.79 24.944 246.366 72.138 71.604 45.927 128.963 110.594 165.881 187.006 3.924 8.127 0.519 17.896-7.606 21.822zM512 841.532c-116.113 0-226.901-43.727-311.954-123.124-84.622-78.994-135.876-185.725-144.323-300.529-0.662-9 6.098-16.833 15.099-17.495 9-0.654 16.835 6.096 17.495 15.099 16.229 220.58 202.332 393.369 423.683 393.369 234.263 0 424.851-190.588 424.851-424.851 0-42.799-6.379-85.064-18.961-125.63-2.673-8.619 2.146-17.774 10.767-20.447 1.612-0.499 3.242-0.739 4.845-0.739 6.97 0 13.427 4.495 15.602 11.504 13.554 43.703 20.428 89.23 20.428 135.312 0 252.283-205.249 457.532-457.532 457.532z" />
<glyph unicode="&#xe944;" glyph-name="dropdownarrow" d="M0 640l512-512 512 512z" />
<glyph unicode="&#xe945;" glyph-name="collapsed" d="M878.052 896h-732.102c-80.476 0-145.95-65.474-145.95-145.95v-732.1c0-80.478 65.474-145.95 145.95-145.95h732.1c80.478 0 145.95 65.472 145.95 145.948v732.102c0 80.476-65.472 145.95-145.948 145.95zM941.272 17.95c0-34.86-28.362-63.222-63.22-63.222h-732.102c-34.86 0-63.222 28.362-63.222 63.22v732.102c0 34.86 28.362 63.222 63.222 63.222h732.1c34.86 0 63.222-28.362 63.222-63.222v-732.1zM512 634.536c-22.844 0-41.364-18.52-41.364-41.364v-418.342c0-22.846 18.52-41.364 41.364-41.364 22.846 0 41.364 18.518 41.364 41.364v418.342c0 22.844-18.518 41.364-41.364 41.364zM721.17 425.364h-418.342c-22.844 0-41.364-18.52-41.364-41.364 0-22.846 18.52-41.364 41.364-41.364h418.342c22.846 0 41.364 18.518 41.364 41.364 0 22.844-18.518 41.364-41.364 41.364z" />
<glyph unicode="&#xe946;" glyph-name="expanded" d="M878.052 896h-732.102c-80.476 0-145.95-65.474-145.95-145.95v-732.1c0-80.478 65.474-145.95 145.95-145.95h732.1c80.478 0 145.95 65.472 145.95 145.948v732.102c0 80.476-65.472 145.95-145.948 145.95zM941.272 17.95c0-34.86-28.362-63.222-63.22-63.222h-732.102c-34.86 0-63.222 28.362-63.222 63.22v732.102c0 34.86 28.362 63.222 63.222 63.222h732.1c34.86 0 63.222-28.362 63.222-63.222v-732.1zM721.17 425.364h-418.342c-22.844 0-41.364-18.52-41.364-41.364 0-22.846 18.52-41.364 41.364-41.364h418.342c22.846 0 41.364 18.518 41.364 41.364 0 22.844-18.518 41.364-41.364 41.364z" />
<glyph unicode="&#xe947;" glyph-name="close" d="M1024 793.6l-102.4 102.4-409.6-409.6-409.6 409.6-102.4-102.4 409.6-409.6-409.6-409.6 102.4-102.4 409.6 409.6 409.6-409.6 102.4 102.4-409.6 409.6z" />
<glyph unicode="&#xe948;" glyph-name="view" d="M64 832h64v64h-128v-128h64zM192 896v-64h128v-256h-256v128h-64v-832h1024v1024h-832zM320-64h-256v256h256v-256zM320 256h-256v256h256v-256zM640-64h-256v256h256v-256zM640 256h-256v256h256v-256zM640 576h-256v256h256v-256zM960-64h-256v256h256v-256zM960 256h-256v256h256v-256zM960 576h-256v256h256v-256z" />
<glyph unicode="&#xe949;" glyph-name="undelete" d="M512 0c158.812 0 288 129.188 288 288s-129.188 288-288 288v-192l-320 256 320 256v-192c229.376 0 416-186.626 416-416 0-229.376-186.624-416-416-416-229.374 0-416 186.624-416 416h128c0-158.812 129.188-288 288-288z" />
<glyph unicode="&#xe94a;" glyph-name="newview" d="M0 896v-1024h512v64h-128v256h64v64h-64v256h256v-64h64v64h192v64h-192v256h256v-192h64v256h-1024zM320-64h-256v256h256v-256zM320 256h-256v256h256v-256zM320 576h-256v256h256v-256zM640 576h-256v256h256v-256zM768 384c-141.384 0-256-114.616-256-256s114.616-256 256-256 256 114.616 256 256c-0.158 141.32-114.68 255.842-256 256zM768-64c-106.038 0-192 85.962-192 192s85.962 192 192 192 192-85.962 192-192c-0.106-105.994-86.006-191.894-192-192zM800 224h-64v-64h-64v-64h64v-64h64v64h64v64h-64zM960 448h64v-64h-64v64zM960 576h64v-64h-64v64z" />
<glyph unicode="&#xe94b;" glyph-name="viewsettings" d="M0 896v-1024h448v64h-64v576h512v64h-192v256h256v-128h64v192h-1024zM320-64h-256v256h256v-256zM320 256h-256v256h256v-256zM320 576h-256v256h256v-256zM640 576h-256v256h256v-256zM937.6 318.304l12.064 60.8-139.136 80.32-46.72-40.864h-55.712l-46.72 40.864-139.072-80.32 12-60.8-27.904-48.352-58.4-19.872v-160.64l58.4-19.872 27.904-48.352-12.064-60.8 139.136-80.32 46.72 40.864h55.808l46.72-40.864 139.072 80.32-12 60.8 27.904 48.32 58.4 19.904v160.64l-58.4 19.904-28 48.32zM960 135.264l-37.792-12.8-51.808-90.080 7.808-39.52-59.904-34.464-30.336 26.528h-103.936l-30.336-26.528-59.744 34.496 7.808 39.52-51.936 89.984-37.824 12.864v68.992l37.824 12.8 51.936 90.144-7.808 39.52 59.744 34.496 30.336-26.528h103.936l30.336 26.56 59.744-34.528-7.648-39.52 51.968-90.048 37.792-12.8-0.16-69.088zM960 512h64v-64h-64v64zM960 640h64v-64h-64v64zM736 297.6c-70.692 0-128-57.308-128-128s57.308-128 128-128c70.692 0 128 57.308 128 128s-57.308 128-128 128zM736 105.6c-35.346 0-64 28.654-64 64s28.654 64 64 64c35.346 0 64-28.654 64-64s-28.654-64-64-64z" />
<glyph unicode="&#xe94c;" glyph-name="checkbox-checked" d="M426.667 170.667l-213.333 213.333 60.16 60.587 153.173-153.173 323.84 323.84 60.16-60.587zM810.667 768h-597.333c-47.36 0-85.333-37.973-85.333-85.333v-597.333c0-47.128 38.205-85.333 85.333-85.333v0h597.333c47.128 0 85.333 38.205 85.333 85.333v0 597.333c0 47.36-38.4 85.333-85.333 85.333z" />
<glyph unicode="&#xe94d;" glyph-name="checkbox-intermediate" d="M810.667 768h-597.333c-47.128 0-85.333-38.205-85.333-85.333v0-597.333c0-47.128 38.205-85.333 85.333-85.333v0h597.333c47.128 0 85.333 38.205 85.333 85.333v0 597.333c0 47.128-38.205 85.333-85.333 85.333v0zM810.667 85.333h-597.333v597.333h597.333v-597.333zM725.333 170.667h-426.667v426.667h426.667v-426.667z" />
<glyph unicode="&#xe94e;" glyph-name="checkbox-unchecked" d="M810.667 768h-597.333c-47.36 0-85.333-37.973-85.333-85.333v-597.333c0-47.128 38.205-85.333 85.333-85.333v0h597.333c47.128 0 85.333 38.205 85.333 85.333v0 597.333c0 47.36-38.4 85.333-85.333 85.333zM810.667 682.667v-597.333h-597.333v597.333h597.333z" />
<glyph unicode="&#xe94f;" glyph-name="log" d="M885.868 896h-582.037c-61.688 0-111.876-50.188-111.876-111.876v-704.729h-167.652v-97.266c0-60.724 49.404-110.13 110.128-110.13h583.783c81.796 0 110.134 70.29 113.692 107.456l0.136 1.426v707.725h167.65v93.568h0.002c0 62.764-51.064 113.826-113.826 113.826zM134.434-67.996v-0.002c-27.64 0-50.128 22.488-50.128 50.13v37.266h520.349v-41.352c0 0-1.904-27.382 13.554-45.902 0.034-0.040 0.044-0.094 0.068-0.14h-483.843zM772.046 782.174v-797.954h-0.004c-0.538-3.44-2.81-15.598-9.428-27.21-9.718-17.060-23.868-23.712-44.4-25.008-44.966-2.84-53.162 46.944-53.562 49.46v97.934h-412.695v704.729c0 28.604 23.272 51.876 51.876 51.876h481.761c-0.72-1.338-13.844-24.714-13.548-53.826zM939.694 748.606h-107.65v33.568c0 3.71 0.378 7.334 1.096 10.834 5.028 24.504 26.76 42.992 52.728 42.992 29.68 0 53.826-24.146 53.826-53.826v-33.568zM347.279 465.481h329.019v-60h-329.019v60zM347.279 590.861h329.019v-60h-329.019v60zM347.279 339.741h329.019v-60h-329.019v60z" />
<glyph unicode="&#xe950;" glyph-name="line-chart" d="M533.122 303.084l-141.944 142.285-326.65-326.65-64.528 68.625 332.796 332.881 54.2 55.48 202.631-203.143 309.238 310.177 62.138-64.528-372.059-373.168-55.907 58.041z" />
<glyph unicode="&#xe951;" glyph-name="more" d="M512.002 640.001c70.719 0 128.001 57.279 128.001 128.001-0.003 70.719-57.282 127.998-128.001 127.998s-128.001-57.279-128.001-128.001c0-70.719 57.279-127.998 128.001-127.998zM512.002 512c-70.722 0-128.001-57.279-128.001-128.001s57.279-128.001 128.001-128.001 128.001 57.279 128.001 128.001-57.282 128.001-128.001 128.001zM512.002 127.999c-70.722 0-128.001-57.279-128.001-128.001 0-70.719 57.279-128.001 128.001-128.001s128.001 57.279 128.001 128.001c-0.003 70.722-57.282 128.001-128.001 128.001z" />
<glyph unicode="&#xe952;" glyph-name="clipboard" d="M870.4 793.599h-214.272c-20.993 59.393-77.314 102.401-144.129 102.401s-123.137-43.008-144.127-102.401h-214.272c-56.575 0-102.401-45.823-102.401-102.401v-716.798c0-56.575 45.823-102.401 102.401-102.401h716.8c56.575 0 102.401 45.823 102.401 102.401v716.8c-0.002 56.575-45.826 102.398-102.401 102.398zM511.999 793.599c28.159 0 51.199-22.783 51.199-51.199s-23.040-51.199-51.199-51.199-51.199 22.783-51.199 51.199c0 28.416 23.040 51.199 51.199 51.199zM614.4 76.801h-358.399v102.401h358.399v-102.401zM767.999 281.6h-511.999v102.401h511.999v-102.401zM767.999 486.4h-511.999v102.401h511.999v-102.401z" />
<glyph unicode="&#xe953;" glyph-name="tasks" d="M384 896h640v-256h-640v256zM384 512h640v-256h-640v256zM384 128h640v-256h-640v256zM192 832v-128h-128v128h128zM256 896h-256v-256h256v256zM192 64v-128h-128v128h128zM256 128h-256v-256h256v256zM339.2 518.4l-38.4 51.2-57.6-57.6h-243.2v-256h256v179.2l83.2 83.2zM172.8 448l-44.8-44.8-51.2 44.8h96zM64 371.2l57.6-51.2h-57.6v51.2zM192 320h-57.6l57.6 57.6v-57.6z" />
<glyph unicode="&#xe954;" glyph-name="clipboard-ok" d="M870.4 793.599h-214.272c-20.993 59.393-77.314 102.401-144.129 102.401s-123.137-43.008-144.127-102.401h-214.272c-56.575 0-102.401-45.823-102.401-102.401v-716.798c0-56.575 45.823-102.401 102.401-102.401h716.8c56.575 0 102.401 45.823 102.401 102.401v716.8c-0.002 56.575-45.826 102.398-102.401 102.398zM511.999 793.599c28.159 0 51.199-22.783 51.199-51.199s-23.040-51.199-51.199-51.199-51.199 22.783-51.199 51.199c0 28.416 23.040 51.199 51.199 51.199zM409.6 76.801l-204.801 204.799 72.449 72.449 132.353-132.353 337.152 337.152 72.449-72.449-409.6-409.598z" />
<glyph unicode="&#xe955;" glyph-name="function" d="M246.936-128c83.672 0 128.092 74.727 141.154 118.873 0.208 0.697 0.402 1.408 0.582 2.134 30.437 126.065 78.923 325.873 114.842 471.209h128.516c24.164 0 43.758 19.587 43.758 43.758s-19.594 43.758-43.758 43.758h-106.766c11.496 45.792 19.91 78.406 23.223 89.536l3.679 12.459c13.566 46.295 45.332 154.735 94.457 154.735 45.555 0 52.345-70.157 52.654-73.548 1.94-24.020 22.892-42.163 46.97-40.087 24.099 1.839 42.134 22.899 40.273 46.984-4.088 53.336-38.628 154.188-139.911 154.188-114.684 0-157.738-146.996-178.424-217.656l-3.521-11.92c-4.203-13.983-15.233-57.065-29.618-114.691h-153.103c-24.171 0-43.758-19.587-43.758-43.758s19.587-43.758 43.758-43.758h131.426c-44.929-182.233-102.994-422.601-109.381-449.064-2.386-6.934-20.327-55.628-57.029-55.628-56.045 0-80.31 78.664-80.504 79.253-6.725 23.201-30.933 36.63-54.206 29.862-23.208-6.733-36.587-30.997-29.862-54.213 15.312-52.891 67.182-142.426 164.55-142.426zM895.894-15.156c25.788 0 47.459 18.315 47.459 47.473 0 13.544-5.418 25.766-16.95 39.332l-90.865 104.431 88.17 103.080c8.134 10.174 14.227 21.024 14.227 35.265 0 25.795-21.031 44.771-48.163 44.771-18.301 0-32.528-11.525-44.757-26.47l-68.483-89.485-67.132 89.5c-13.58 16.936-27.8 26.456-48.141 26.456-25.795 0-47.473-18.33-47.473-47.487 0-13.544 5.432-25.766 16.936-39.311l84.779-97.662-92.92-109.855c-8.816-10.174-14.227-21.024-14.227-35.265 0-25.788 21.024-44.757 48.134-44.757 18.315 0 32.549 11.525 44.757 26.456l73.218 96.282 73.239-96.282c13.609-16.979 27.85-26.47 48.192-26.47z" />
</font>
</defs>
</svg>
